<mxfile host="app.diagrams.net" modified="2023-11-13T06:51:06.682Z" agent="Mozilla/5.0 (Windows NT 10.0; Win64; x64) AppleWebKit/537.36 (KHTML, like Gecko) Chrome/119.0.0.0 Safari/537.36" etag="dn1k3nq6PqESSly39wEI" version="22.1.0" type="github">
  <diagram name="Page-1" id="r73j2ridED8xUcbDZQc5">
    <mxGraphModel dx="13490" dy="8480" grid="1" gridSize="10" guides="1" tooltips="1" connect="1" arrows="1" fold="1" page="1" pageScale="1" pageWidth="850" pageHeight="1100" math="0" shadow="0">
      <root>
        <mxCell id="0" />
        <mxCell id="1" parent="0" />
        <mxCell id="bC43uHXILsUVz6L1ORMm-1" value="" style="group" vertex="1" connectable="0" parent="1">
          <mxGeometry x="1860" y="580" width="465" height="643" as="geometry" />
        </mxCell>
        <mxCell id="bC43uHXILsUVz6L1ORMm-2" value="set value i to to temp&lt;br&gt;aka original value J&lt;br&gt;(hand values)" style="rounded=0;whiteSpace=wrap;html=1;container=0;" vertex="1" parent="bC43uHXILsUVz6L1ORMm-1">
          <mxGeometry x="345" y="583" width="120" height="60" as="geometry" />
        </mxCell>
        <mxCell id="bC43uHXILsUVz6L1ORMm-3" value="create temp&lt;br&gt;store value J&lt;br&gt;(face values)" style="rounded=0;whiteSpace=wrap;html=1;container=0;" vertex="1" parent="bC43uHXILsUVz6L1ORMm-1">
          <mxGeometry x="174" y="583" width="120" height="60" as="geometry" />
        </mxCell>
        <mxCell id="bC43uHXILsUVz6L1ORMm-4" value="value j &amp;gt; value i?" style="rhombus;whiteSpace=wrap;html=1;container=0;" vertex="1" parent="bC43uHXILsUVz6L1ORMm-1">
          <mxGeometry x="159" y="415" width="150" height="80" as="geometry" />
        </mxCell>
        <mxCell id="bC43uHXILsUVz6L1ORMm-5" value="create temp&lt;br&gt;store J value&lt;br&gt;(hand values)" style="rounded=0;whiteSpace=wrap;html=1;container=0;" vertex="1" parent="bC43uHXILsUVz6L1ORMm-1">
          <mxGeometry x="345" y="425" width="120" height="60" as="geometry" />
        </mxCell>
        <mxCell id="bC43uHXILsUVz6L1ORMm-6" value="set value J&lt;br&gt;to value i&lt;br&gt;(hand values)" style="rounded=0;whiteSpace=wrap;html=1;container=0;" vertex="1" parent="bC43uHXILsUVz6L1ORMm-1">
          <mxGeometry x="345" y="504" width="120" height="60" as="geometry" />
        </mxCell>
        <mxCell id="bC43uHXILsUVz6L1ORMm-7" value="set value J&lt;br&gt;to value i&lt;br&gt;(face values)" style="rounded=0;whiteSpace=wrap;html=1;container=0;" vertex="1" parent="bC43uHXILsUVz6L1ORMm-1">
          <mxGeometry y="583" width="120" height="60" as="geometry" />
        </mxCell>
        <mxCell id="bC43uHXILsUVz6L1ORMm-8" value="set value i to temp&lt;br&gt;aka original value 1&lt;br&gt;(face values)" style="rounded=0;whiteSpace=wrap;html=1;container=0;" vertex="1" parent="bC43uHXILsUVz6L1ORMm-1">
          <mxGeometry y="504" width="120" height="60" as="geometry" />
        </mxCell>
        <mxCell id="bC43uHXILsUVz6L1ORMm-9" value="Start mSort" style="ellipse;whiteSpace=wrap;html=1;container=0;" vertex="1" parent="bC43uHXILsUVz6L1ORMm-1">
          <mxGeometry x="174" width="120" height="40" as="geometry" />
        </mxCell>
        <mxCell id="bC43uHXILsUVz6L1ORMm-10" value="End mSort" style="ellipse;whiteSpace=wrap;html=1;container=0;" vertex="1" parent="bC43uHXILsUVz6L1ORMm-1">
          <mxGeometry y="158" width="120" height="40" as="geometry" />
        </mxCell>
        <mxCell id="bC43uHXILsUVz6L1ORMm-11" value="int i &amp;lt; 13?" style="rhombus;whiteSpace=wrap;html=1;container=0;" vertex="1" parent="bC43uHXILsUVz6L1ORMm-1">
          <mxGeometry x="159" y="315.5" width="150" height="80" as="geometry" />
        </mxCell>
        <mxCell id="bC43uHXILsUVz6L1ORMm-12" value="j = 0" style="rounded=0;whiteSpace=wrap;html=1;container=0;" vertex="1" parent="bC43uHXILsUVz6L1ORMm-1">
          <mxGeometry x="174" y="62.5" width="120" height="60" as="geometry" />
        </mxCell>
        <mxCell id="bC43uHXILsUVz6L1ORMm-13" value="(loop ends)&lt;br&gt;increment i" style="rounded=0;whiteSpace=wrap;html=1;container=0;" vertex="1" parent="bC43uHXILsUVz6L1ORMm-1">
          <mxGeometry y="325.5" width="120" height="60" as="geometry" />
        </mxCell>
        <mxCell id="bC43uHXILsUVz6L1ORMm-14" value="(loop ends)&lt;br&gt;increment j" style="rounded=0;whiteSpace=wrap;html=1;container=0;" vertex="1" parent="bC43uHXILsUVz6L1ORMm-1">
          <mxGeometry x="345" y="237.5" width="120" height="60" as="geometry" />
        </mxCell>
        <mxCell id="bC43uHXILsUVz6L1ORMm-15" value="j &amp;lt; 13?" style="rhombus;whiteSpace=wrap;html=1;container=0;" vertex="1" parent="bC43uHXILsUVz6L1ORMm-1">
          <mxGeometry x="159" y="138" width="150" height="80" as="geometry" />
        </mxCell>
        <mxCell id="bC43uHXILsUVz6L1ORMm-16" value="i = 0" style="rounded=0;whiteSpace=wrap;html=1;container=0;" vertex="1" parent="bC43uHXILsUVz6L1ORMm-1">
          <mxGeometry x="174" y="237.5" width="120" height="60" as="geometry" />
        </mxCell>
        <mxCell id="bC43uHXILsUVz6L1ORMm-17" value="" style="endArrow=classic;html=1;rounded=0;exitX=0;exitY=0.5;exitDx=0;exitDy=0;entryX=0.5;entryY=1;entryDx=0;entryDy=0;" edge="1" parent="bC43uHXILsUVz6L1ORMm-1" source="bC43uHXILsUVz6L1ORMm-4" target="bC43uHXILsUVz6L1ORMm-13">
          <mxGeometry width="50" height="50" relative="1" as="geometry">
            <mxPoint x="-30" y="651" as="sourcePoint" />
            <mxPoint x="20" y="601" as="targetPoint" />
            <Array as="points">
              <mxPoint x="60" y="455" />
            </Array>
          </mxGeometry>
        </mxCell>
        <mxCell id="bC43uHXILsUVz6L1ORMm-18" value="" style="endArrow=classic;html=1;rounded=0;exitX=1;exitY=0.5;exitDx=0;exitDy=0;entryX=0.5;entryY=1;entryDx=0;entryDy=0;" edge="1" parent="bC43uHXILsUVz6L1ORMm-1" source="bC43uHXILsUVz6L1ORMm-11" target="bC43uHXILsUVz6L1ORMm-14">
          <mxGeometry width="50" height="50" relative="1" as="geometry">
            <mxPoint x="360" y="381" as="sourcePoint" />
            <mxPoint x="410" y="331" as="targetPoint" />
            <Array as="points">
              <mxPoint x="405" y="356" />
            </Array>
          </mxGeometry>
        </mxCell>
        <mxCell id="bC43uHXILsUVz6L1ORMm-19" value="" style="endArrow=classic;html=1;rounded=0;exitX=0.5;exitY=1;exitDx=0;exitDy=0;entryX=0.5;entryY=0;entryDx=0;entryDy=0;" edge="1" parent="bC43uHXILsUVz6L1ORMm-1" source="bC43uHXILsUVz6L1ORMm-9" target="bC43uHXILsUVz6L1ORMm-12">
          <mxGeometry width="50" height="50" relative="1" as="geometry">
            <mxPoint x="-60" y="381" as="sourcePoint" />
            <mxPoint x="-10" y="331" as="targetPoint" />
          </mxGeometry>
        </mxCell>
        <mxCell id="bC43uHXILsUVz6L1ORMm-20" value="" style="endArrow=classic;html=1;rounded=0;exitX=0.5;exitY=1;exitDx=0;exitDy=0;entryX=0.5;entryY=0;entryDx=0;entryDy=0;" edge="1" parent="bC43uHXILsUVz6L1ORMm-1" source="bC43uHXILsUVz6L1ORMm-12" target="bC43uHXILsUVz6L1ORMm-15">
          <mxGeometry width="50" height="50" relative="1" as="geometry">
            <mxPoint x="-180" y="331" as="sourcePoint" />
            <mxPoint x="-130" y="281" as="targetPoint" />
          </mxGeometry>
        </mxCell>
        <mxCell id="bC43uHXILsUVz6L1ORMm-21" value="" style="endArrow=classic;html=1;rounded=0;exitX=0.5;exitY=1;exitDx=0;exitDy=0;" edge="1" parent="bC43uHXILsUVz6L1ORMm-1" source="bC43uHXILsUVz6L1ORMm-15" target="bC43uHXILsUVz6L1ORMm-16">
          <mxGeometry width="50" height="50" relative="1" as="geometry">
            <mxPoint x="-120" y="351" as="sourcePoint" />
            <mxPoint x="-70" y="301" as="targetPoint" />
          </mxGeometry>
        </mxCell>
        <mxCell id="bC43uHXILsUVz6L1ORMm-22" value="" style="endArrow=classic;html=1;rounded=0;exitX=1;exitY=0.5;exitDx=0;exitDy=0;entryX=0;entryY=0.5;entryDx=0;entryDy=0;" edge="1" parent="bC43uHXILsUVz6L1ORMm-1" source="bC43uHXILsUVz6L1ORMm-4" target="bC43uHXILsUVz6L1ORMm-5">
          <mxGeometry width="50" height="50" relative="1" as="geometry">
            <mxPoint x="-150" y="581" as="sourcePoint" />
            <mxPoint x="-100" y="531" as="targetPoint" />
          </mxGeometry>
        </mxCell>
        <mxCell id="bC43uHXILsUVz6L1ORMm-23" value="" style="endArrow=classic;html=1;rounded=0;exitX=0.5;exitY=1;exitDx=0;exitDy=0;entryX=0.5;entryY=0;entryDx=0;entryDy=0;" edge="1" parent="bC43uHXILsUVz6L1ORMm-1" source="bC43uHXILsUVz6L1ORMm-5" target="bC43uHXILsUVz6L1ORMm-6">
          <mxGeometry width="50" height="50" relative="1" as="geometry">
            <mxPoint x="220" y="561" as="sourcePoint" />
            <mxPoint x="270" y="511" as="targetPoint" />
          </mxGeometry>
        </mxCell>
        <mxCell id="bC43uHXILsUVz6L1ORMm-24" value="" style="endArrow=classic;html=1;rounded=0;exitX=0.5;exitY=1;exitDx=0;exitDy=0;" edge="1" parent="bC43uHXILsUVz6L1ORMm-1" source="bC43uHXILsUVz6L1ORMm-6" target="bC43uHXILsUVz6L1ORMm-2">
          <mxGeometry width="50" height="50" relative="1" as="geometry">
            <mxPoint x="210" y="601" as="sourcePoint" />
            <mxPoint x="260" y="551" as="targetPoint" />
          </mxGeometry>
        </mxCell>
        <mxCell id="bC43uHXILsUVz6L1ORMm-25" value="" style="endArrow=classic;html=1;rounded=0;exitX=0;exitY=0.5;exitDx=0;exitDy=0;entryX=1;entryY=0.5;entryDx=0;entryDy=0;" edge="1" parent="bC43uHXILsUVz6L1ORMm-1" source="bC43uHXILsUVz6L1ORMm-2" target="bC43uHXILsUVz6L1ORMm-3">
          <mxGeometry width="50" height="50" relative="1" as="geometry">
            <mxPoint x="160" y="591" as="sourcePoint" />
            <mxPoint x="210" y="541" as="targetPoint" />
          </mxGeometry>
        </mxCell>
        <mxCell id="bC43uHXILsUVz6L1ORMm-26" value="" style="endArrow=classic;html=1;rounded=0;exitX=0;exitY=0.5;exitDx=0;exitDy=0;" edge="1" parent="bC43uHXILsUVz6L1ORMm-1" source="bC43uHXILsUVz6L1ORMm-3" target="bC43uHXILsUVz6L1ORMm-7">
          <mxGeometry width="50" height="50" relative="1" as="geometry">
            <mxPoint x="290" y="581" as="sourcePoint" />
            <mxPoint x="340" y="531" as="targetPoint" />
          </mxGeometry>
        </mxCell>
        <mxCell id="bC43uHXILsUVz6L1ORMm-27" value="" style="endArrow=classic;html=1;rounded=0;exitX=0.5;exitY=0;exitDx=0;exitDy=0;entryX=0.5;entryY=1;entryDx=0;entryDy=0;" edge="1" parent="bC43uHXILsUVz6L1ORMm-1" source="bC43uHXILsUVz6L1ORMm-7" target="bC43uHXILsUVz6L1ORMm-8">
          <mxGeometry width="50" height="50" relative="1" as="geometry">
            <mxPoint x="180" y="571" as="sourcePoint" />
            <mxPoint x="230" y="521" as="targetPoint" />
          </mxGeometry>
        </mxCell>
        <mxCell id="bC43uHXILsUVz6L1ORMm-28" value="" style="endArrow=classic;html=1;rounded=0;exitX=0.5;exitY=0;exitDx=0;exitDy=0;" edge="1" parent="bC43uHXILsUVz6L1ORMm-1" source="bC43uHXILsUVz6L1ORMm-8">
          <mxGeometry width="50" height="50" relative="1" as="geometry">
            <mxPoint x="170" y="611" as="sourcePoint" />
            <mxPoint x="60" y="451" as="targetPoint" />
          </mxGeometry>
        </mxCell>
        <mxCell id="bC43uHXILsUVz6L1ORMm-29" value="" style="endArrow=classic;html=1;rounded=0;exitX=0.5;exitY=1;exitDx=0;exitDy=0;entryX=0.5;entryY=0;entryDx=0;entryDy=0;" edge="1" parent="bC43uHXILsUVz6L1ORMm-1" source="bC43uHXILsUVz6L1ORMm-16" target="bC43uHXILsUVz6L1ORMm-11">
          <mxGeometry width="50" height="50" relative="1" as="geometry">
            <mxPoint x="-120" y="321" as="sourcePoint" />
            <mxPoint x="-70" y="271" as="targetPoint" />
          </mxGeometry>
        </mxCell>
        <mxCell id="bC43uHXILsUVz6L1ORMm-30" value="" style="endArrow=classic;html=1;rounded=0;exitX=0.5;exitY=1;exitDx=0;exitDy=0;entryX=0.5;entryY=0;entryDx=0;entryDy=0;" edge="1" parent="bC43uHXILsUVz6L1ORMm-1" source="bC43uHXILsUVz6L1ORMm-11" target="bC43uHXILsUVz6L1ORMm-4">
          <mxGeometry width="50" height="50" relative="1" as="geometry">
            <mxPoint x="-170" y="461" as="sourcePoint" />
            <mxPoint x="-120" y="411" as="targetPoint" />
          </mxGeometry>
        </mxCell>
        <mxCell id="bC43uHXILsUVz6L1ORMm-31" value="" style="endArrow=classic;html=1;rounded=0;exitX=0;exitY=0.5;exitDx=0;exitDy=0;entryX=1;entryY=0.5;entryDx=0;entryDy=0;" edge="1" parent="bC43uHXILsUVz6L1ORMm-1" source="bC43uHXILsUVz6L1ORMm-15" target="bC43uHXILsUVz6L1ORMm-10">
          <mxGeometry width="50" height="50" relative="1" as="geometry">
            <mxPoint x="-130" y="381" as="sourcePoint" />
            <mxPoint x="-80" y="331" as="targetPoint" />
          </mxGeometry>
        </mxCell>
        <mxCell id="bC43uHXILsUVz6L1ORMm-32" value="" style="endArrow=classic;html=1;rounded=0;exitX=0.5;exitY=0;exitDx=0;exitDy=0;entryX=1;entryY=0.5;entryDx=0;entryDy=0;" edge="1" parent="bC43uHXILsUVz6L1ORMm-1" source="bC43uHXILsUVz6L1ORMm-14" target="bC43uHXILsUVz6L1ORMm-15">
          <mxGeometry width="50" height="50" relative="1" as="geometry">
            <mxPoint x="560" y="321" as="sourcePoint" />
            <mxPoint x="610" y="271" as="targetPoint" />
            <Array as="points">
              <mxPoint x="405" y="178" />
            </Array>
          </mxGeometry>
        </mxCell>
        <mxCell id="bC43uHXILsUVz6L1ORMm-33" value="" style="endArrow=classic;html=1;rounded=0;exitX=1;exitY=0.5;exitDx=0;exitDy=0;entryX=0;entryY=0.5;entryDx=0;entryDy=0;" edge="1" parent="bC43uHXILsUVz6L1ORMm-1" source="bC43uHXILsUVz6L1ORMm-13" target="bC43uHXILsUVz6L1ORMm-11">
          <mxGeometry width="50" height="50" relative="1" as="geometry">
            <mxPoint x="20" y="421" as="sourcePoint" />
            <mxPoint x="70" y="371" as="targetPoint" />
          </mxGeometry>
        </mxCell>
        <mxCell id="bC43uHXILsUVz6L1ORMm-34" value="Yes" style="text;html=1;strokeColor=none;fillColor=none;align=center;verticalAlign=middle;whiteSpace=wrap;rounded=0;container=0;" vertex="1" parent="bC43uHXILsUVz6L1ORMm-1">
          <mxGeometry x="285" y="428.5" width="60" height="30" as="geometry" />
        </mxCell>
        <mxCell id="bC43uHXILsUVz6L1ORMm-35" value="No" style="text;html=1;strokeColor=none;fillColor=none;align=center;verticalAlign=middle;whiteSpace=wrap;rounded=0;container=0;" vertex="1" parent="bC43uHXILsUVz6L1ORMm-1">
          <mxGeometry x="80" y="428.5" width="60" height="30" as="geometry" />
        </mxCell>
        <mxCell id="bC43uHXILsUVz6L1ORMm-36" value="No" style="text;html=1;strokeColor=none;fillColor=none;align=center;verticalAlign=middle;whiteSpace=wrap;rounded=0;container=0;" vertex="1" parent="bC43uHXILsUVz6L1ORMm-1">
          <mxGeometry x="294" y="330" width="60" height="30" as="geometry" />
        </mxCell>
        <mxCell id="bC43uHXILsUVz6L1ORMm-37" value="No" style="text;html=1;strokeColor=none;fillColor=none;align=center;verticalAlign=middle;whiteSpace=wrap;rounded=0;container=0;" vertex="1" parent="bC43uHXILsUVz6L1ORMm-1">
          <mxGeometry x="110" y="153" width="60" height="30" as="geometry" />
        </mxCell>
        <mxCell id="bC43uHXILsUVz6L1ORMm-38" value="Yes" style="text;html=1;strokeColor=none;fillColor=none;align=center;verticalAlign=middle;whiteSpace=wrap;rounded=0;container=0;" vertex="1" parent="bC43uHXILsUVz6L1ORMm-1">
          <mxGeometry x="180" y="390.5" width="60" height="30" as="geometry" />
        </mxCell>
        <mxCell id="bC43uHXILsUVz6L1ORMm-39" value="Yes" style="text;html=1;strokeColor=none;fillColor=none;align=center;verticalAlign=middle;whiteSpace=wrap;rounded=0;container=0;" vertex="1" parent="bC43uHXILsUVz6L1ORMm-1">
          <mxGeometry x="190" y="210" width="60" height="30" as="geometry" />
        </mxCell>
        <mxCell id="bC43uHXILsUVz6L1ORMm-40" value="" style="group" vertex="1" connectable="0" parent="1">
          <mxGeometry x="2770" y="-1030" width="418.75" height="2540" as="geometry" />
        </mxCell>
        <mxCell id="bC43uHXILsUVz6L1ORMm-41" value="if&lt;br&gt;p.hand.cards[0] == 0&lt;br&gt;&amp;nbsp;" style="rhombus;whiteSpace=wrap;html=1;" vertex="1" parent="bC43uHXILsUVz6L1ORMm-40">
          <mxGeometry x="123.75" y="59" width="150" height="80" as="geometry" />
        </mxCell>
        <mxCell id="bC43uHXILsUVz6L1ORMm-42" value="cout &amp;lt;&amp;lt; &quot; &quot;&lt;br&gt;(empty string)" style="shape=parallelogram;perimeter=parallelogramPerimeter;whiteSpace=wrap;html=1;fixedSize=1;" vertex="1" parent="bC43uHXILsUVz6L1ORMm-40">
          <mxGeometry x="1.75" y="139" width="157.5" height="60" as="geometry" />
        </mxCell>
        <mxCell id="bC43uHXILsUVz6L1ORMm-43" style="edgeStyle=orthogonalEdgeStyle;rounded=0;orthogonalLoop=1;jettySize=auto;html=1;exitX=0;exitY=0.5;exitDx=0;exitDy=0;entryX=0.5;entryY=0;entryDx=0;entryDy=0;" edge="1" parent="bC43uHXILsUVz6L1ORMm-40" source="bC43uHXILsUVz6L1ORMm-41" target="bC43uHXILsUVz6L1ORMm-42">
          <mxGeometry relative="1" as="geometry" />
        </mxCell>
        <mxCell id="bC43uHXILsUVz6L1ORMm-44" value="else&lt;br&gt;&lt;br&gt;cout &amp;lt;&amp;lt; &quot;1&quot; &amp;lt;&amp;lt; &quot;\t&quot;" style="shape=parallelogram;perimeter=parallelogramPerimeter;whiteSpace=wrap;html=1;fixedSize=1;" vertex="1" parent="bC43uHXILsUVz6L1ORMm-40">
          <mxGeometry x="238.75" y="139" width="157.5" height="60" as="geometry" />
        </mxCell>
        <mxCell id="bC43uHXILsUVz6L1ORMm-45" style="edgeStyle=orthogonalEdgeStyle;rounded=0;orthogonalLoop=1;jettySize=auto;html=1;exitX=1;exitY=0.5;exitDx=0;exitDy=0;" edge="1" parent="bC43uHXILsUVz6L1ORMm-40" source="bC43uHXILsUVz6L1ORMm-41" target="bC43uHXILsUVz6L1ORMm-44">
          <mxGeometry relative="1" as="geometry" />
        </mxCell>
        <mxCell id="bC43uHXILsUVz6L1ORMm-46" value="cout &amp;lt;&amp;lt; &quot; &quot;&lt;br&gt;(empty string)" style="shape=parallelogram;perimeter=parallelogramPerimeter;whiteSpace=wrap;html=1;fixedSize=1;" vertex="1" parent="bC43uHXILsUVz6L1ORMm-40">
          <mxGeometry x="1.5" y="300" width="157.5" height="60" as="geometry" />
        </mxCell>
        <mxCell id="bC43uHXILsUVz6L1ORMm-47" style="edgeStyle=orthogonalEdgeStyle;rounded=0;orthogonalLoop=1;jettySize=auto;html=1;exitX=0;exitY=0.5;exitDx=0;exitDy=0;entryX=0.5;entryY=0;entryDx=0;entryDy=0;" edge="1" parent="bC43uHXILsUVz6L1ORMm-40" source="bC43uHXILsUVz6L1ORMm-48" target="bC43uHXILsUVz6L1ORMm-46">
          <mxGeometry relative="1" as="geometry" />
        </mxCell>
        <mxCell id="bC43uHXILsUVz6L1ORMm-48" value="if&lt;br&gt;p.hand.cards[1] == 0&lt;br&gt;&amp;nbsp;" style="rhombus;whiteSpace=wrap;html=1;" vertex="1" parent="bC43uHXILsUVz6L1ORMm-40">
          <mxGeometry x="123.5" y="220" width="150" height="80" as="geometry" />
        </mxCell>
        <mxCell id="bC43uHXILsUVz6L1ORMm-49" style="edgeStyle=orthogonalEdgeStyle;rounded=0;orthogonalLoop=1;jettySize=auto;html=1;exitX=0.5;exitY=1;exitDx=0;exitDy=0;entryX=0.5;entryY=0;entryDx=0;entryDy=0;" edge="1" parent="bC43uHXILsUVz6L1ORMm-40" source="bC43uHXILsUVz6L1ORMm-42" target="bC43uHXILsUVz6L1ORMm-48">
          <mxGeometry relative="1" as="geometry">
            <Array as="points">
              <mxPoint x="80.75" y="210" />
              <mxPoint x="198.75" y="210" />
            </Array>
          </mxGeometry>
        </mxCell>
        <mxCell id="bC43uHXILsUVz6L1ORMm-50" style="edgeStyle=orthogonalEdgeStyle;rounded=0;orthogonalLoop=1;jettySize=auto;html=1;exitX=0.5;exitY=1;exitDx=0;exitDy=0;entryX=0.5;entryY=0;entryDx=0;entryDy=0;" edge="1" parent="bC43uHXILsUVz6L1ORMm-40" source="bC43uHXILsUVz6L1ORMm-44" target="bC43uHXILsUVz6L1ORMm-48">
          <mxGeometry relative="1" as="geometry">
            <Array as="points">
              <mxPoint x="317.75" y="210" />
              <mxPoint x="198.75" y="210" />
            </Array>
          </mxGeometry>
        </mxCell>
        <mxCell id="bC43uHXILsUVz6L1ORMm-51" value="else&lt;br&gt;&lt;br&gt;cout &amp;lt;&amp;lt; &quot;2&quot; &amp;lt;&amp;lt; &quot;\t&quot;" style="shape=parallelogram;perimeter=parallelogramPerimeter;whiteSpace=wrap;html=1;fixedSize=1;" vertex="1" parent="bC43uHXILsUVz6L1ORMm-40">
          <mxGeometry x="238.5" y="300" width="157.5" height="60" as="geometry" />
        </mxCell>
        <mxCell id="bC43uHXILsUVz6L1ORMm-52" style="edgeStyle=orthogonalEdgeStyle;rounded=0;orthogonalLoop=1;jettySize=auto;html=1;exitX=1;exitY=0.5;exitDx=0;exitDy=0;entryX=0.5;entryY=0;entryDx=0;entryDy=0;" edge="1" parent="bC43uHXILsUVz6L1ORMm-40" source="bC43uHXILsUVz6L1ORMm-48" target="bC43uHXILsUVz6L1ORMm-51">
          <mxGeometry relative="1" as="geometry" />
        </mxCell>
        <mxCell id="bC43uHXILsUVz6L1ORMm-53" value="cout &amp;lt;&amp;lt; &quot; &quot;&lt;br&gt;(empty string)" style="shape=parallelogram;perimeter=parallelogramPerimeter;whiteSpace=wrap;html=1;fixedSize=1;" vertex="1" parent="bC43uHXILsUVz6L1ORMm-40">
          <mxGeometry x="1.25" y="460" width="157.5" height="60" as="geometry" />
        </mxCell>
        <mxCell id="bC43uHXILsUVz6L1ORMm-54" style="edgeStyle=orthogonalEdgeStyle;rounded=0;orthogonalLoop=1;jettySize=auto;html=1;exitX=0;exitY=0.5;exitDx=0;exitDy=0;" edge="1" parent="bC43uHXILsUVz6L1ORMm-40" source="bC43uHXILsUVz6L1ORMm-55" target="bC43uHXILsUVz6L1ORMm-53">
          <mxGeometry relative="1" as="geometry" />
        </mxCell>
        <mxCell id="bC43uHXILsUVz6L1ORMm-55" value="if&lt;br&gt;p.hand.cards[2] == 0&lt;br&gt;&amp;nbsp;" style="rhombus;whiteSpace=wrap;html=1;" vertex="1" parent="bC43uHXILsUVz6L1ORMm-40">
          <mxGeometry x="123.25" y="380" width="150" height="80" as="geometry" />
        </mxCell>
        <mxCell id="bC43uHXILsUVz6L1ORMm-56" style="edgeStyle=orthogonalEdgeStyle;rounded=0;orthogonalLoop=1;jettySize=auto;html=1;exitX=0.5;exitY=1;exitDx=0;exitDy=0;" edge="1" parent="bC43uHXILsUVz6L1ORMm-40" source="bC43uHXILsUVz6L1ORMm-46" target="bC43uHXILsUVz6L1ORMm-55">
          <mxGeometry relative="1" as="geometry">
            <Array as="points">
              <mxPoint x="80.75" y="370" />
              <mxPoint x="198.75" y="370" />
            </Array>
          </mxGeometry>
        </mxCell>
        <mxCell id="bC43uHXILsUVz6L1ORMm-57" style="edgeStyle=orthogonalEdgeStyle;rounded=0;orthogonalLoop=1;jettySize=auto;html=1;exitX=0.5;exitY=1;exitDx=0;exitDy=0;" edge="1" parent="bC43uHXILsUVz6L1ORMm-40" source="bC43uHXILsUVz6L1ORMm-51" target="bC43uHXILsUVz6L1ORMm-55">
          <mxGeometry relative="1" as="geometry">
            <Array as="points">
              <mxPoint x="317.75" y="370" />
              <mxPoint x="198.75" y="370" />
            </Array>
          </mxGeometry>
        </mxCell>
        <mxCell id="bC43uHXILsUVz6L1ORMm-58" value="else&lt;br&gt;&lt;br&gt;cout &amp;lt;&amp;lt; &quot;3&quot; &amp;lt;&amp;lt; &quot;\t&quot;" style="shape=parallelogram;perimeter=parallelogramPerimeter;whiteSpace=wrap;html=1;fixedSize=1;" vertex="1" parent="bC43uHXILsUVz6L1ORMm-40">
          <mxGeometry x="238.25" y="460" width="157.5" height="60" as="geometry" />
        </mxCell>
        <mxCell id="bC43uHXILsUVz6L1ORMm-59" style="edgeStyle=orthogonalEdgeStyle;rounded=0;orthogonalLoop=1;jettySize=auto;html=1;exitX=1;exitY=0.5;exitDx=0;exitDy=0;entryX=0.5;entryY=0;entryDx=0;entryDy=0;" edge="1" parent="bC43uHXILsUVz6L1ORMm-40" source="bC43uHXILsUVz6L1ORMm-55" target="bC43uHXILsUVz6L1ORMm-58">
          <mxGeometry relative="1" as="geometry" />
        </mxCell>
        <mxCell id="bC43uHXILsUVz6L1ORMm-60" value="cout &amp;lt;&amp;lt; &quot; &quot;&lt;br&gt;(empty string)" style="shape=parallelogram;perimeter=parallelogramPerimeter;whiteSpace=wrap;html=1;fixedSize=1;" vertex="1" parent="bC43uHXILsUVz6L1ORMm-40">
          <mxGeometry x="1" y="620" width="157.5" height="60" as="geometry" />
        </mxCell>
        <mxCell id="bC43uHXILsUVz6L1ORMm-61" style="edgeStyle=orthogonalEdgeStyle;rounded=0;orthogonalLoop=1;jettySize=auto;html=1;exitX=0;exitY=0.5;exitDx=0;exitDy=0;entryX=0.5;entryY=0;entryDx=0;entryDy=0;" edge="1" parent="bC43uHXILsUVz6L1ORMm-40" source="bC43uHXILsUVz6L1ORMm-62" target="bC43uHXILsUVz6L1ORMm-60">
          <mxGeometry relative="1" as="geometry" />
        </mxCell>
        <mxCell id="bC43uHXILsUVz6L1ORMm-62" value="if&lt;br&gt;p.hand.cards[3] == 0&lt;br&gt;&amp;nbsp;" style="rhombus;whiteSpace=wrap;html=1;" vertex="1" parent="bC43uHXILsUVz6L1ORMm-40">
          <mxGeometry x="123" y="540" width="150" height="80" as="geometry" />
        </mxCell>
        <mxCell id="bC43uHXILsUVz6L1ORMm-63" style="edgeStyle=orthogonalEdgeStyle;rounded=0;orthogonalLoop=1;jettySize=auto;html=1;exitX=0.5;exitY=1;exitDx=0;exitDy=0;" edge="1" parent="bC43uHXILsUVz6L1ORMm-40" source="bC43uHXILsUVz6L1ORMm-53" target="bC43uHXILsUVz6L1ORMm-62">
          <mxGeometry relative="1" as="geometry">
            <mxPoint x="198.75" y="540" as="targetPoint" />
            <Array as="points">
              <mxPoint x="79.75" y="530" />
              <mxPoint x="197.75" y="530" />
            </Array>
          </mxGeometry>
        </mxCell>
        <mxCell id="bC43uHXILsUVz6L1ORMm-64" style="edgeStyle=orthogonalEdgeStyle;rounded=0;orthogonalLoop=1;jettySize=auto;html=1;exitX=0.5;exitY=1;exitDx=0;exitDy=0;entryX=0.5;entryY=0;entryDx=0;entryDy=0;" edge="1" parent="bC43uHXILsUVz6L1ORMm-40" source="bC43uHXILsUVz6L1ORMm-58" target="bC43uHXILsUVz6L1ORMm-62">
          <mxGeometry relative="1" as="geometry">
            <Array as="points">
              <mxPoint x="316.75" y="530" />
              <mxPoint x="197.75" y="530" />
            </Array>
          </mxGeometry>
        </mxCell>
        <mxCell id="bC43uHXILsUVz6L1ORMm-65" value="else&lt;br&gt;&lt;br&gt;cout &amp;lt;&amp;lt; &quot;4&quot; &amp;lt;&amp;lt; &quot;\t&quot;" style="shape=parallelogram;perimeter=parallelogramPerimeter;whiteSpace=wrap;html=1;fixedSize=1;" vertex="1" parent="bC43uHXILsUVz6L1ORMm-40">
          <mxGeometry x="238" y="620" width="157.5" height="60" as="geometry" />
        </mxCell>
        <mxCell id="bC43uHXILsUVz6L1ORMm-66" style="edgeStyle=orthogonalEdgeStyle;rounded=0;orthogonalLoop=1;jettySize=auto;html=1;exitX=1;exitY=0.5;exitDx=0;exitDy=0;entryX=0.5;entryY=0;entryDx=0;entryDy=0;" edge="1" parent="bC43uHXILsUVz6L1ORMm-40" source="bC43uHXILsUVz6L1ORMm-62" target="bC43uHXILsUVz6L1ORMm-65">
          <mxGeometry relative="1" as="geometry" />
        </mxCell>
        <mxCell id="bC43uHXILsUVz6L1ORMm-67" value="cout &amp;lt;&amp;lt; &quot; &quot;&lt;br&gt;(empty string)" style="shape=parallelogram;perimeter=parallelogramPerimeter;whiteSpace=wrap;html=1;fixedSize=1;" vertex="1" parent="bC43uHXILsUVz6L1ORMm-40">
          <mxGeometry x="0.75" y="780" width="157.5" height="60" as="geometry" />
        </mxCell>
        <mxCell id="bC43uHXILsUVz6L1ORMm-68" style="edgeStyle=orthogonalEdgeStyle;rounded=0;orthogonalLoop=1;jettySize=auto;html=1;exitX=0;exitY=0.5;exitDx=0;exitDy=0;entryX=0.5;entryY=0;entryDx=0;entryDy=0;" edge="1" parent="bC43uHXILsUVz6L1ORMm-40" source="bC43uHXILsUVz6L1ORMm-69" target="bC43uHXILsUVz6L1ORMm-67">
          <mxGeometry relative="1" as="geometry" />
        </mxCell>
        <mxCell id="bC43uHXILsUVz6L1ORMm-69" value="if&lt;br&gt;p.hand.cards[4] == 0&lt;br&gt;&amp;nbsp;" style="rhombus;whiteSpace=wrap;html=1;" vertex="1" parent="bC43uHXILsUVz6L1ORMm-40">
          <mxGeometry x="122.75" y="700" width="150" height="80" as="geometry" />
        </mxCell>
        <mxCell id="bC43uHXILsUVz6L1ORMm-70" style="edgeStyle=orthogonalEdgeStyle;rounded=0;orthogonalLoop=1;jettySize=auto;html=1;exitX=0.5;exitY=1;exitDx=0;exitDy=0;" edge="1" parent="bC43uHXILsUVz6L1ORMm-40" source="bC43uHXILsUVz6L1ORMm-60" target="bC43uHXILsUVz6L1ORMm-69">
          <mxGeometry relative="1" as="geometry">
            <Array as="points">
              <mxPoint x="79.75" y="690" />
              <mxPoint x="197.75" y="690" />
            </Array>
          </mxGeometry>
        </mxCell>
        <mxCell id="bC43uHXILsUVz6L1ORMm-71" style="edgeStyle=orthogonalEdgeStyle;rounded=0;orthogonalLoop=1;jettySize=auto;html=1;exitX=0.5;exitY=1;exitDx=0;exitDy=0;entryX=0.5;entryY=0;entryDx=0;entryDy=0;" edge="1" parent="bC43uHXILsUVz6L1ORMm-40" source="bC43uHXILsUVz6L1ORMm-65" target="bC43uHXILsUVz6L1ORMm-69">
          <mxGeometry relative="1" as="geometry">
            <Array as="points">
              <mxPoint x="316.75" y="690" />
              <mxPoint x="197.75" y="690" />
            </Array>
          </mxGeometry>
        </mxCell>
        <mxCell id="bC43uHXILsUVz6L1ORMm-72" value="else&lt;br&gt;&lt;br&gt;cout &amp;lt;&amp;lt; &quot;5&quot; &amp;lt;&amp;lt; &quot;\t&quot;" style="shape=parallelogram;perimeter=parallelogramPerimeter;whiteSpace=wrap;html=1;fixedSize=1;" vertex="1" parent="bC43uHXILsUVz6L1ORMm-40">
          <mxGeometry x="237.75" y="780" width="157.5" height="60" as="geometry" />
        </mxCell>
        <mxCell id="bC43uHXILsUVz6L1ORMm-73" style="edgeStyle=orthogonalEdgeStyle;rounded=0;orthogonalLoop=1;jettySize=auto;html=1;exitX=1;exitY=0.5;exitDx=0;exitDy=0;" edge="1" parent="bC43uHXILsUVz6L1ORMm-40" source="bC43uHXILsUVz6L1ORMm-69" target="bC43uHXILsUVz6L1ORMm-72">
          <mxGeometry relative="1" as="geometry" />
        </mxCell>
        <mxCell id="bC43uHXILsUVz6L1ORMm-74" value="cout &amp;lt;&amp;lt; &quot; &quot;&lt;br&gt;(empty string)" style="shape=parallelogram;perimeter=parallelogramPerimeter;whiteSpace=wrap;html=1;fixedSize=1;" vertex="1" parent="bC43uHXILsUVz6L1ORMm-40">
          <mxGeometry x="1.75" y="940" width="157.5" height="60" as="geometry" />
        </mxCell>
        <mxCell id="bC43uHXILsUVz6L1ORMm-75" style="edgeStyle=orthogonalEdgeStyle;rounded=0;orthogonalLoop=1;jettySize=auto;html=1;exitX=0;exitY=0.5;exitDx=0;exitDy=0;entryX=0.5;entryY=0;entryDx=0;entryDy=0;" edge="1" parent="bC43uHXILsUVz6L1ORMm-40" source="bC43uHXILsUVz6L1ORMm-76" target="bC43uHXILsUVz6L1ORMm-74">
          <mxGeometry relative="1" as="geometry" />
        </mxCell>
        <mxCell id="bC43uHXILsUVz6L1ORMm-76" value="if&lt;br&gt;p.hand.cards[5] == 0&lt;br&gt;&amp;nbsp;" style="rhombus;whiteSpace=wrap;html=1;" vertex="1" parent="bC43uHXILsUVz6L1ORMm-40">
          <mxGeometry x="123.75" y="860" width="150" height="80" as="geometry" />
        </mxCell>
        <mxCell id="bC43uHXILsUVz6L1ORMm-77" style="edgeStyle=orthogonalEdgeStyle;rounded=0;orthogonalLoop=1;jettySize=auto;html=1;exitX=0.5;exitY=1;exitDx=0;exitDy=0;entryX=0.5;entryY=0;entryDx=0;entryDy=0;" edge="1" parent="bC43uHXILsUVz6L1ORMm-40" source="bC43uHXILsUVz6L1ORMm-67" target="bC43uHXILsUVz6L1ORMm-76">
          <mxGeometry relative="1" as="geometry">
            <Array as="points">
              <mxPoint x="79.75" y="850" />
              <mxPoint x="198.75" y="850" />
            </Array>
          </mxGeometry>
        </mxCell>
        <mxCell id="bC43uHXILsUVz6L1ORMm-78" style="edgeStyle=orthogonalEdgeStyle;rounded=0;orthogonalLoop=1;jettySize=auto;html=1;exitX=0.5;exitY=1;exitDx=0;exitDy=0;entryX=0.5;entryY=0;entryDx=0;entryDy=0;" edge="1" parent="bC43uHXILsUVz6L1ORMm-40" source="bC43uHXILsUVz6L1ORMm-72" target="bC43uHXILsUVz6L1ORMm-76">
          <mxGeometry relative="1" as="geometry">
            <Array as="points">
              <mxPoint x="316.75" y="850" />
              <mxPoint x="198.75" y="850" />
            </Array>
          </mxGeometry>
        </mxCell>
        <mxCell id="bC43uHXILsUVz6L1ORMm-79" value="else&lt;br&gt;&lt;br&gt;cout &amp;lt;&amp;lt; &quot;6&quot; &amp;lt;&amp;lt; &quot;\t&quot;" style="shape=parallelogram;perimeter=parallelogramPerimeter;whiteSpace=wrap;html=1;fixedSize=1;" vertex="1" parent="bC43uHXILsUVz6L1ORMm-40">
          <mxGeometry x="238.75" y="940" width="157.5" height="60" as="geometry" />
        </mxCell>
        <mxCell id="bC43uHXILsUVz6L1ORMm-80" style="edgeStyle=orthogonalEdgeStyle;rounded=0;orthogonalLoop=1;jettySize=auto;html=1;exitX=1;exitY=0.5;exitDx=0;exitDy=0;entryX=0.5;entryY=0;entryDx=0;entryDy=0;" edge="1" parent="bC43uHXILsUVz6L1ORMm-40" source="bC43uHXILsUVz6L1ORMm-76" target="bC43uHXILsUVz6L1ORMm-79">
          <mxGeometry relative="1" as="geometry" />
        </mxCell>
        <mxCell id="bC43uHXILsUVz6L1ORMm-81" value="cout &amp;lt;&amp;lt; &quot; &quot;&lt;br&gt;(empty string)" style="shape=parallelogram;perimeter=parallelogramPerimeter;whiteSpace=wrap;html=1;fixedSize=1;" vertex="1" parent="bC43uHXILsUVz6L1ORMm-40">
          <mxGeometry x="0.5" y="1100" width="157.5" height="60" as="geometry" />
        </mxCell>
        <mxCell id="bC43uHXILsUVz6L1ORMm-82" style="edgeStyle=orthogonalEdgeStyle;rounded=0;orthogonalLoop=1;jettySize=auto;html=1;exitX=0;exitY=0.5;exitDx=0;exitDy=0;entryX=0.5;entryY=0;entryDx=0;entryDy=0;" edge="1" parent="bC43uHXILsUVz6L1ORMm-40" source="bC43uHXILsUVz6L1ORMm-83" target="bC43uHXILsUVz6L1ORMm-81">
          <mxGeometry relative="1" as="geometry" />
        </mxCell>
        <mxCell id="bC43uHXILsUVz6L1ORMm-83" value="if&lt;br&gt;p.hand.cards[6] == 0&lt;br&gt;&amp;nbsp;" style="rhombus;whiteSpace=wrap;html=1;" vertex="1" parent="bC43uHXILsUVz6L1ORMm-40">
          <mxGeometry x="122.5" y="1020" width="150" height="80" as="geometry" />
        </mxCell>
        <mxCell id="bC43uHXILsUVz6L1ORMm-84" style="edgeStyle=orthogonalEdgeStyle;rounded=0;orthogonalLoop=1;jettySize=auto;html=1;exitX=0.5;exitY=1;exitDx=0;exitDy=0;entryX=0.5;entryY=0;entryDx=0;entryDy=0;" edge="1" parent="bC43uHXILsUVz6L1ORMm-40" source="bC43uHXILsUVz6L1ORMm-74" target="bC43uHXILsUVz6L1ORMm-83">
          <mxGeometry relative="1" as="geometry">
            <Array as="points">
              <mxPoint x="80.75" y="1010" />
              <mxPoint x="197.75" y="1010" />
            </Array>
          </mxGeometry>
        </mxCell>
        <mxCell id="bC43uHXILsUVz6L1ORMm-85" style="edgeStyle=orthogonalEdgeStyle;rounded=0;orthogonalLoop=1;jettySize=auto;html=1;exitX=0.5;exitY=1;exitDx=0;exitDy=0;" edge="1" parent="bC43uHXILsUVz6L1ORMm-40" source="bC43uHXILsUVz6L1ORMm-79" target="bC43uHXILsUVz6L1ORMm-83">
          <mxGeometry relative="1" as="geometry">
            <Array as="points">
              <mxPoint x="317.75" y="1010" />
              <mxPoint x="197.75" y="1010" />
            </Array>
          </mxGeometry>
        </mxCell>
        <mxCell id="bC43uHXILsUVz6L1ORMm-86" value="else&lt;br&gt;&lt;br&gt;cout &amp;lt;&amp;lt; &quot;7&quot; &amp;lt;&amp;lt; &quot;\t&quot;" style="shape=parallelogram;perimeter=parallelogramPerimeter;whiteSpace=wrap;html=1;fixedSize=1;" vertex="1" parent="bC43uHXILsUVz6L1ORMm-40">
          <mxGeometry x="237.5" y="1100" width="157.5" height="60" as="geometry" />
        </mxCell>
        <mxCell id="bC43uHXILsUVz6L1ORMm-87" style="edgeStyle=orthogonalEdgeStyle;rounded=0;orthogonalLoop=1;jettySize=auto;html=1;exitX=1;exitY=0.5;exitDx=0;exitDy=0;entryX=0.5;entryY=0;entryDx=0;entryDy=0;" edge="1" parent="bC43uHXILsUVz6L1ORMm-40" source="bC43uHXILsUVz6L1ORMm-83" target="bC43uHXILsUVz6L1ORMm-86">
          <mxGeometry relative="1" as="geometry" />
        </mxCell>
        <mxCell id="bC43uHXILsUVz6L1ORMm-88" value="cout &amp;lt;&amp;lt; &quot; &quot;&lt;br&gt;(empty string)" style="shape=parallelogram;perimeter=parallelogramPerimeter;whiteSpace=wrap;html=1;fixedSize=1;" vertex="1" parent="bC43uHXILsUVz6L1ORMm-40">
          <mxGeometry x="1" y="1260" width="157.5" height="60" as="geometry" />
        </mxCell>
        <mxCell id="bC43uHXILsUVz6L1ORMm-89" style="edgeStyle=orthogonalEdgeStyle;rounded=0;orthogonalLoop=1;jettySize=auto;html=1;exitX=0;exitY=0.5;exitDx=0;exitDy=0;entryX=0.5;entryY=0;entryDx=0;entryDy=0;" edge="1" parent="bC43uHXILsUVz6L1ORMm-40" source="bC43uHXILsUVz6L1ORMm-90" target="bC43uHXILsUVz6L1ORMm-88">
          <mxGeometry relative="1" as="geometry" />
        </mxCell>
        <mxCell id="bC43uHXILsUVz6L1ORMm-90" value="if&lt;br&gt;p.hand.cards[7] == 0&lt;br&gt;&amp;nbsp;" style="rhombus;whiteSpace=wrap;html=1;" vertex="1" parent="bC43uHXILsUVz6L1ORMm-40">
          <mxGeometry x="123" y="1180" width="150" height="80" as="geometry" />
        </mxCell>
        <mxCell id="bC43uHXILsUVz6L1ORMm-91" style="edgeStyle=orthogonalEdgeStyle;rounded=0;orthogonalLoop=1;jettySize=auto;html=1;exitX=0.5;exitY=1;exitDx=0;exitDy=0;entryX=0.5;entryY=0;entryDx=0;entryDy=0;" edge="1" parent="bC43uHXILsUVz6L1ORMm-40" source="bC43uHXILsUVz6L1ORMm-81" target="bC43uHXILsUVz6L1ORMm-90">
          <mxGeometry relative="1" as="geometry">
            <Array as="points">
              <mxPoint x="79.75" y="1170" />
              <mxPoint x="197.75" y="1170" />
            </Array>
          </mxGeometry>
        </mxCell>
        <mxCell id="bC43uHXILsUVz6L1ORMm-92" style="edgeStyle=orthogonalEdgeStyle;rounded=0;orthogonalLoop=1;jettySize=auto;html=1;exitX=0.5;exitY=1;exitDx=0;exitDy=0;entryX=0.5;entryY=0;entryDx=0;entryDy=0;" edge="1" parent="bC43uHXILsUVz6L1ORMm-40" source="bC43uHXILsUVz6L1ORMm-86" target="bC43uHXILsUVz6L1ORMm-90">
          <mxGeometry relative="1" as="geometry">
            <Array as="points">
              <mxPoint x="316.75" y="1170" />
              <mxPoint x="197.75" y="1170" />
            </Array>
          </mxGeometry>
        </mxCell>
        <mxCell id="bC43uHXILsUVz6L1ORMm-93" value="else&lt;br&gt;&lt;br&gt;cout &amp;lt;&amp;lt; &quot;8&quot; &amp;lt;&amp;lt; &quot;\t&quot;" style="shape=parallelogram;perimeter=parallelogramPerimeter;whiteSpace=wrap;html=1;fixedSize=1;" vertex="1" parent="bC43uHXILsUVz6L1ORMm-40">
          <mxGeometry x="238" y="1260" width="157.5" height="60" as="geometry" />
        </mxCell>
        <mxCell id="bC43uHXILsUVz6L1ORMm-94" style="edgeStyle=orthogonalEdgeStyle;rounded=0;orthogonalLoop=1;jettySize=auto;html=1;exitX=1;exitY=0.5;exitDx=0;exitDy=0;entryX=0.5;entryY=0;entryDx=0;entryDy=0;" edge="1" parent="bC43uHXILsUVz6L1ORMm-40" source="bC43uHXILsUVz6L1ORMm-90" target="bC43uHXILsUVz6L1ORMm-93">
          <mxGeometry relative="1" as="geometry" />
        </mxCell>
        <mxCell id="bC43uHXILsUVz6L1ORMm-95" value="cout &amp;lt;&amp;lt; &quot; &quot;&lt;br&gt;(empty string)" style="shape=parallelogram;perimeter=parallelogramPerimeter;whiteSpace=wrap;html=1;fixedSize=1;" vertex="1" parent="bC43uHXILsUVz6L1ORMm-40">
          <mxGeometry y="1420" width="157.5" height="60" as="geometry" />
        </mxCell>
        <mxCell id="bC43uHXILsUVz6L1ORMm-96" style="edgeStyle=orthogonalEdgeStyle;rounded=0;orthogonalLoop=1;jettySize=auto;html=1;exitX=0;exitY=0.5;exitDx=0;exitDy=0;entryX=0.5;entryY=0;entryDx=0;entryDy=0;" edge="1" parent="bC43uHXILsUVz6L1ORMm-40" source="bC43uHXILsUVz6L1ORMm-97" target="bC43uHXILsUVz6L1ORMm-95">
          <mxGeometry relative="1" as="geometry" />
        </mxCell>
        <mxCell id="bC43uHXILsUVz6L1ORMm-97" value="if&lt;br&gt;p.hand.cards[8] == 0&lt;br&gt;&amp;nbsp;" style="rhombus;whiteSpace=wrap;html=1;" vertex="1" parent="bC43uHXILsUVz6L1ORMm-40">
          <mxGeometry x="122" y="1340" width="150" height="80" as="geometry" />
        </mxCell>
        <mxCell id="bC43uHXILsUVz6L1ORMm-98" style="edgeStyle=orthogonalEdgeStyle;rounded=0;orthogonalLoop=1;jettySize=auto;html=1;exitX=0.5;exitY=1;exitDx=0;exitDy=0;" edge="1" parent="bC43uHXILsUVz6L1ORMm-40" source="bC43uHXILsUVz6L1ORMm-88" target="bC43uHXILsUVz6L1ORMm-97">
          <mxGeometry relative="1" as="geometry">
            <Array as="points">
              <mxPoint x="79.75" y="1330" />
              <mxPoint x="196.75" y="1330" />
            </Array>
          </mxGeometry>
        </mxCell>
        <mxCell id="bC43uHXILsUVz6L1ORMm-99" style="edgeStyle=orthogonalEdgeStyle;rounded=0;orthogonalLoop=1;jettySize=auto;html=1;exitX=0.5;exitY=1;exitDx=0;exitDy=0;entryX=0.5;entryY=0;entryDx=0;entryDy=0;" edge="1" parent="bC43uHXILsUVz6L1ORMm-40" source="bC43uHXILsUVz6L1ORMm-93" target="bC43uHXILsUVz6L1ORMm-97">
          <mxGeometry relative="1" as="geometry">
            <Array as="points">
              <mxPoint x="316.75" y="1330" />
              <mxPoint x="196.75" y="1330" />
            </Array>
          </mxGeometry>
        </mxCell>
        <mxCell id="bC43uHXILsUVz6L1ORMm-100" value="else&lt;br&gt;&lt;br&gt;cout &amp;lt;&amp;lt; &quot;9&quot; &amp;lt;&amp;lt; &quot;\t&quot;" style="shape=parallelogram;perimeter=parallelogramPerimeter;whiteSpace=wrap;html=1;fixedSize=1;" vertex="1" parent="bC43uHXILsUVz6L1ORMm-40">
          <mxGeometry x="237" y="1420" width="157.5" height="60" as="geometry" />
        </mxCell>
        <mxCell id="bC43uHXILsUVz6L1ORMm-101" style="edgeStyle=orthogonalEdgeStyle;rounded=0;orthogonalLoop=1;jettySize=auto;html=1;exitX=1;exitY=0.5;exitDx=0;exitDy=0;entryX=0.5;entryY=0;entryDx=0;entryDy=0;" edge="1" parent="bC43uHXILsUVz6L1ORMm-40" source="bC43uHXILsUVz6L1ORMm-97" target="bC43uHXILsUVz6L1ORMm-100">
          <mxGeometry relative="1" as="geometry" />
        </mxCell>
        <mxCell id="bC43uHXILsUVz6L1ORMm-102" value="cout &amp;lt;&amp;lt; &quot; &quot;&lt;br&gt;(empty string)" style="shape=parallelogram;perimeter=parallelogramPerimeter;whiteSpace=wrap;html=1;fixedSize=1;" vertex="1" parent="bC43uHXILsUVz6L1ORMm-40">
          <mxGeometry x="0.5" y="1580" width="157.5" height="60" as="geometry" />
        </mxCell>
        <mxCell id="bC43uHXILsUVz6L1ORMm-103" style="edgeStyle=orthogonalEdgeStyle;rounded=0;orthogonalLoop=1;jettySize=auto;html=1;exitX=0;exitY=0.5;exitDx=0;exitDy=0;entryX=0.5;entryY=0;entryDx=0;entryDy=0;" edge="1" parent="bC43uHXILsUVz6L1ORMm-40" source="bC43uHXILsUVz6L1ORMm-104" target="bC43uHXILsUVz6L1ORMm-102">
          <mxGeometry relative="1" as="geometry" />
        </mxCell>
        <mxCell id="bC43uHXILsUVz6L1ORMm-104" value="if&lt;br&gt;p.hand.cards[9] == 0&lt;br&gt;&amp;nbsp;" style="rhombus;whiteSpace=wrap;html=1;" vertex="1" parent="bC43uHXILsUVz6L1ORMm-40">
          <mxGeometry x="122.5" y="1500" width="150" height="80" as="geometry" />
        </mxCell>
        <mxCell id="bC43uHXILsUVz6L1ORMm-105" style="edgeStyle=orthogonalEdgeStyle;rounded=0;orthogonalLoop=1;jettySize=auto;html=1;exitX=0.5;exitY=1;exitDx=0;exitDy=0;" edge="1" parent="bC43uHXILsUVz6L1ORMm-40" source="bC43uHXILsUVz6L1ORMm-95" target="bC43uHXILsUVz6L1ORMm-104">
          <mxGeometry relative="1" as="geometry">
            <Array as="points">
              <mxPoint x="78.75" y="1490" />
              <mxPoint x="197.75" y="1490" />
            </Array>
          </mxGeometry>
        </mxCell>
        <mxCell id="bC43uHXILsUVz6L1ORMm-106" style="edgeStyle=orthogonalEdgeStyle;rounded=0;orthogonalLoop=1;jettySize=auto;html=1;exitX=0.5;exitY=1;exitDx=0;exitDy=0;entryX=0.5;entryY=0;entryDx=0;entryDy=0;" edge="1" parent="bC43uHXILsUVz6L1ORMm-40" source="bC43uHXILsUVz6L1ORMm-100" target="bC43uHXILsUVz6L1ORMm-104">
          <mxGeometry relative="1" as="geometry">
            <Array as="points">
              <mxPoint x="315.75" y="1490" />
              <mxPoint x="197.75" y="1490" />
            </Array>
          </mxGeometry>
        </mxCell>
        <mxCell id="bC43uHXILsUVz6L1ORMm-107" value="else&lt;br&gt;&lt;br&gt;cout &amp;lt;&amp;lt; &quot;10&quot; &amp;lt;&amp;lt; &quot;\t&quot;" style="shape=parallelogram;perimeter=parallelogramPerimeter;whiteSpace=wrap;html=1;fixedSize=1;" vertex="1" parent="bC43uHXILsUVz6L1ORMm-40">
          <mxGeometry x="237.5" y="1580" width="157.5" height="60" as="geometry" />
        </mxCell>
        <mxCell id="bC43uHXILsUVz6L1ORMm-108" style="edgeStyle=orthogonalEdgeStyle;rounded=0;orthogonalLoop=1;jettySize=auto;html=1;exitX=1;exitY=0.5;exitDx=0;exitDy=0;entryX=0.5;entryY=0;entryDx=0;entryDy=0;" edge="1" parent="bC43uHXILsUVz6L1ORMm-40" source="bC43uHXILsUVz6L1ORMm-104" target="bC43uHXILsUVz6L1ORMm-107">
          <mxGeometry relative="1" as="geometry" />
        </mxCell>
        <mxCell id="bC43uHXILsUVz6L1ORMm-109" value="cout &amp;lt;&amp;lt; &quot; &quot;&lt;br&gt;(empty string)" style="shape=parallelogram;perimeter=parallelogramPerimeter;whiteSpace=wrap;html=1;fixedSize=1;" vertex="1" parent="bC43uHXILsUVz6L1ORMm-40">
          <mxGeometry x="1.25" y="1740" width="157.5" height="60" as="geometry" />
        </mxCell>
        <mxCell id="bC43uHXILsUVz6L1ORMm-110" style="edgeStyle=orthogonalEdgeStyle;rounded=0;orthogonalLoop=1;jettySize=auto;html=1;exitX=0;exitY=0.5;exitDx=0;exitDy=0;" edge="1" parent="bC43uHXILsUVz6L1ORMm-40" source="bC43uHXILsUVz6L1ORMm-111" target="bC43uHXILsUVz6L1ORMm-109">
          <mxGeometry relative="1" as="geometry" />
        </mxCell>
        <mxCell id="bC43uHXILsUVz6L1ORMm-111" value="if&lt;br&gt;p.hand.cards[10] == 0&lt;br&gt;&amp;nbsp;" style="rhombus;whiteSpace=wrap;html=1;" vertex="1" parent="bC43uHXILsUVz6L1ORMm-40">
          <mxGeometry x="123.25" y="1660" width="150" height="80" as="geometry" />
        </mxCell>
        <mxCell id="bC43uHXILsUVz6L1ORMm-112" style="edgeStyle=orthogonalEdgeStyle;rounded=0;orthogonalLoop=1;jettySize=auto;html=1;exitX=0.5;exitY=1;exitDx=0;exitDy=0;entryX=0.5;entryY=0;entryDx=0;entryDy=0;" edge="1" parent="bC43uHXILsUVz6L1ORMm-40" source="bC43uHXILsUVz6L1ORMm-102" target="bC43uHXILsUVz6L1ORMm-111">
          <mxGeometry relative="1" as="geometry">
            <Array as="points">
              <mxPoint x="79.75" y="1650" />
              <mxPoint x="198.75" y="1650" />
            </Array>
          </mxGeometry>
        </mxCell>
        <mxCell id="bC43uHXILsUVz6L1ORMm-113" style="edgeStyle=orthogonalEdgeStyle;rounded=0;orthogonalLoop=1;jettySize=auto;html=1;exitX=0.5;exitY=1;exitDx=0;exitDy=0;entryX=0.5;entryY=0;entryDx=0;entryDy=0;" edge="1" parent="bC43uHXILsUVz6L1ORMm-40" source="bC43uHXILsUVz6L1ORMm-107" target="bC43uHXILsUVz6L1ORMm-111">
          <mxGeometry relative="1" as="geometry">
            <Array as="points">
              <mxPoint x="316.75" y="1650" />
              <mxPoint x="198.75" y="1650" />
            </Array>
          </mxGeometry>
        </mxCell>
        <mxCell id="bC43uHXILsUVz6L1ORMm-114" value="else&lt;br&gt;&lt;br&gt;cout &amp;lt;&amp;lt; &quot;11&quot; &amp;lt;&amp;lt; &quot;\t&quot;" style="shape=parallelogram;perimeter=parallelogramPerimeter;whiteSpace=wrap;html=1;fixedSize=1;" vertex="1" parent="bC43uHXILsUVz6L1ORMm-40">
          <mxGeometry x="238.25" y="1740" width="157.5" height="60" as="geometry" />
        </mxCell>
        <mxCell id="bC43uHXILsUVz6L1ORMm-115" style="edgeStyle=orthogonalEdgeStyle;rounded=0;orthogonalLoop=1;jettySize=auto;html=1;exitX=1;exitY=0.5;exitDx=0;exitDy=0;entryX=0.5;entryY=0;entryDx=0;entryDy=0;" edge="1" parent="bC43uHXILsUVz6L1ORMm-40" source="bC43uHXILsUVz6L1ORMm-111" target="bC43uHXILsUVz6L1ORMm-114">
          <mxGeometry relative="1" as="geometry" />
        </mxCell>
        <mxCell id="bC43uHXILsUVz6L1ORMm-116" value="cout &amp;lt;&amp;lt; &quot; &quot;&lt;br&gt;(empty string)" style="shape=parallelogram;perimeter=parallelogramPerimeter;whiteSpace=wrap;html=1;fixedSize=1;" vertex="1" parent="bC43uHXILsUVz6L1ORMm-40">
          <mxGeometry x="1.75" y="1900" width="157.5" height="60" as="geometry" />
        </mxCell>
        <mxCell id="bC43uHXILsUVz6L1ORMm-117" style="edgeStyle=orthogonalEdgeStyle;rounded=0;orthogonalLoop=1;jettySize=auto;html=1;exitX=0;exitY=0.5;exitDx=0;exitDy=0;entryX=0.5;entryY=0;entryDx=0;entryDy=0;" edge="1" parent="bC43uHXILsUVz6L1ORMm-40" source="bC43uHXILsUVz6L1ORMm-118" target="bC43uHXILsUVz6L1ORMm-116">
          <mxGeometry relative="1" as="geometry" />
        </mxCell>
        <mxCell id="bC43uHXILsUVz6L1ORMm-118" value="if&lt;br&gt;p.hand.cards[11] == 0&lt;br&gt;&amp;nbsp;" style="rhombus;whiteSpace=wrap;html=1;" vertex="1" parent="bC43uHXILsUVz6L1ORMm-40">
          <mxGeometry x="123.75" y="1820" width="150" height="80" as="geometry" />
        </mxCell>
        <mxCell id="bC43uHXILsUVz6L1ORMm-119" style="edgeStyle=orthogonalEdgeStyle;rounded=0;orthogonalLoop=1;jettySize=auto;html=1;exitX=0.5;exitY=1;exitDx=0;exitDy=0;" edge="1" parent="bC43uHXILsUVz6L1ORMm-40" source="bC43uHXILsUVz6L1ORMm-109" target="bC43uHXILsUVz6L1ORMm-118">
          <mxGeometry relative="1" as="geometry">
            <Array as="points">
              <mxPoint x="79.75" y="1810" />
              <mxPoint x="198.75" y="1810" />
            </Array>
          </mxGeometry>
        </mxCell>
        <mxCell id="bC43uHXILsUVz6L1ORMm-120" style="edgeStyle=orthogonalEdgeStyle;rounded=0;orthogonalLoop=1;jettySize=auto;html=1;exitX=0.5;exitY=1;exitDx=0;exitDy=0;entryX=0.5;entryY=0;entryDx=0;entryDy=0;" edge="1" parent="bC43uHXILsUVz6L1ORMm-40" source="bC43uHXILsUVz6L1ORMm-114" target="bC43uHXILsUVz6L1ORMm-118">
          <mxGeometry relative="1" as="geometry">
            <Array as="points">
              <mxPoint x="316.75" y="1810" />
              <mxPoint x="198.75" y="1810" />
            </Array>
          </mxGeometry>
        </mxCell>
        <mxCell id="bC43uHXILsUVz6L1ORMm-121" value="else&lt;br&gt;&lt;br&gt;cout &amp;lt;&amp;lt; &quot;12&quot; &amp;lt;&amp;lt; &quot;\t&quot;" style="shape=parallelogram;perimeter=parallelogramPerimeter;whiteSpace=wrap;html=1;fixedSize=1;" vertex="1" parent="bC43uHXILsUVz6L1ORMm-40">
          <mxGeometry x="238.75" y="1900" width="157.5" height="60" as="geometry" />
        </mxCell>
        <mxCell id="bC43uHXILsUVz6L1ORMm-122" style="edgeStyle=orthogonalEdgeStyle;rounded=0;orthogonalLoop=1;jettySize=auto;html=1;exitX=1;exitY=0.5;exitDx=0;exitDy=0;" edge="1" parent="bC43uHXILsUVz6L1ORMm-40" source="bC43uHXILsUVz6L1ORMm-118" target="bC43uHXILsUVz6L1ORMm-121">
          <mxGeometry relative="1" as="geometry" />
        </mxCell>
        <mxCell id="bC43uHXILsUVz6L1ORMm-123" value="cout &amp;lt;&amp;lt; &quot; &quot;&lt;br&gt;(empty string)" style="shape=parallelogram;perimeter=parallelogramPerimeter;whiteSpace=wrap;html=1;fixedSize=1;" vertex="1" parent="bC43uHXILsUVz6L1ORMm-40">
          <mxGeometry x="1.25" y="2060" width="157.5" height="60" as="geometry" />
        </mxCell>
        <mxCell id="bC43uHXILsUVz6L1ORMm-124" style="edgeStyle=orthogonalEdgeStyle;rounded=0;orthogonalLoop=1;jettySize=auto;html=1;exitX=0;exitY=0.5;exitDx=0;exitDy=0;entryX=0.5;entryY=0;entryDx=0;entryDy=0;" edge="1" parent="bC43uHXILsUVz6L1ORMm-40" source="bC43uHXILsUVz6L1ORMm-125" target="bC43uHXILsUVz6L1ORMm-123">
          <mxGeometry relative="1" as="geometry" />
        </mxCell>
        <mxCell id="bC43uHXILsUVz6L1ORMm-125" value="if&lt;br&gt;p.hand.cards[11] == 0&lt;br&gt;&amp;nbsp;" style="rhombus;whiteSpace=wrap;html=1;" vertex="1" parent="bC43uHXILsUVz6L1ORMm-40">
          <mxGeometry x="123.25" y="1980" width="150" height="80" as="geometry" />
        </mxCell>
        <mxCell id="bC43uHXILsUVz6L1ORMm-126" style="edgeStyle=orthogonalEdgeStyle;rounded=0;orthogonalLoop=1;jettySize=auto;html=1;exitX=0.5;exitY=1;exitDx=0;exitDy=0;" edge="1" parent="bC43uHXILsUVz6L1ORMm-40" source="bC43uHXILsUVz6L1ORMm-116" target="bC43uHXILsUVz6L1ORMm-125">
          <mxGeometry relative="1" as="geometry">
            <Array as="points">
              <mxPoint x="80.75" y="1970" />
              <mxPoint x="198.75" y="1970" />
            </Array>
          </mxGeometry>
        </mxCell>
        <mxCell id="bC43uHXILsUVz6L1ORMm-127" style="edgeStyle=orthogonalEdgeStyle;rounded=0;orthogonalLoop=1;jettySize=auto;html=1;exitX=0.5;exitY=1;exitDx=0;exitDy=0;entryX=0.5;entryY=0;entryDx=0;entryDy=0;" edge="1" parent="bC43uHXILsUVz6L1ORMm-40" source="bC43uHXILsUVz6L1ORMm-121" target="bC43uHXILsUVz6L1ORMm-125">
          <mxGeometry relative="1" as="geometry">
            <Array as="points">
              <mxPoint x="317.75" y="1970" />
              <mxPoint x="198.75" y="1970" />
            </Array>
          </mxGeometry>
        </mxCell>
        <mxCell id="bC43uHXILsUVz6L1ORMm-128" value="else&lt;br&gt;&lt;br&gt;cout &amp;lt;&amp;lt; &quot;12&quot; &amp;lt;&amp;lt; &quot;\t&quot;" style="shape=parallelogram;perimeter=parallelogramPerimeter;whiteSpace=wrap;html=1;fixedSize=1;" vertex="1" parent="bC43uHXILsUVz6L1ORMm-40">
          <mxGeometry x="238.25" y="2060" width="157.5" height="60" as="geometry" />
        </mxCell>
        <mxCell id="bC43uHXILsUVz6L1ORMm-129" style="edgeStyle=orthogonalEdgeStyle;rounded=0;orthogonalLoop=1;jettySize=auto;html=1;exitX=1;exitY=0.5;exitDx=0;exitDy=0;entryX=0.5;entryY=0;entryDx=0;entryDy=0;" edge="1" parent="bC43uHXILsUVz6L1ORMm-40" source="bC43uHXILsUVz6L1ORMm-125" target="bC43uHXILsUVz6L1ORMm-128">
          <mxGeometry relative="1" as="geometry" />
        </mxCell>
        <mxCell id="bC43uHXILsUVz6L1ORMm-130" value="cout &amp;lt;&amp;lt; endl&lt;br&gt;&amp;lt;&amp;lt; setw(14) &amp;lt;&amp;lt; &quot;\t&quot;" style="shape=parallelogram;perimeter=parallelogramPerimeter;whiteSpace=wrap;html=1;fixedSize=1;" vertex="1" parent="bC43uHXILsUVz6L1ORMm-40">
          <mxGeometry x="120" y="2140" width="157.5" height="60" as="geometry" />
        </mxCell>
        <mxCell id="bC43uHXILsUVz6L1ORMm-131" style="edgeStyle=orthogonalEdgeStyle;rounded=0;orthogonalLoop=1;jettySize=auto;html=1;exitX=0.5;exitY=1;exitDx=0;exitDy=0;entryX=0.5;entryY=0;entryDx=0;entryDy=0;" edge="1" parent="bC43uHXILsUVz6L1ORMm-40" source="bC43uHXILsUVz6L1ORMm-123" target="bC43uHXILsUVz6L1ORMm-130">
          <mxGeometry relative="1" as="geometry">
            <Array as="points">
              <mxPoint x="79.75" y="2130" />
              <mxPoint x="198.75" y="2130" />
            </Array>
          </mxGeometry>
        </mxCell>
        <mxCell id="bC43uHXILsUVz6L1ORMm-132" style="edgeStyle=orthogonalEdgeStyle;rounded=0;orthogonalLoop=1;jettySize=auto;html=1;exitX=0.5;exitY=1;exitDx=0;exitDy=0;entryX=0.5;entryY=0;entryDx=0;entryDy=0;" edge="1" parent="bC43uHXILsUVz6L1ORMm-40" source="bC43uHXILsUVz6L1ORMm-128" target="bC43uHXILsUVz6L1ORMm-130">
          <mxGeometry relative="1" as="geometry">
            <Array as="points">
              <mxPoint x="316.75" y="2130" />
              <mxPoint x="198.75" y="2130" />
            </Array>
          </mxGeometry>
        </mxCell>
        <mxCell id="bC43uHXILsUVz6L1ORMm-133" value="initiate loop&lt;br&gt;j = 0" style="rounded=0;whiteSpace=wrap;html=1;" vertex="1" parent="bC43uHXILsUVz6L1ORMm-40">
          <mxGeometry x="138.5" y="2220" width="120" height="60" as="geometry" />
        </mxCell>
        <mxCell id="bC43uHXILsUVz6L1ORMm-134" style="edgeStyle=orthogonalEdgeStyle;rounded=0;orthogonalLoop=1;jettySize=auto;html=1;exitX=0.5;exitY=1;exitDx=0;exitDy=0;entryX=0.5;entryY=0;entryDx=0;entryDy=0;" edge="1" parent="bC43uHXILsUVz6L1ORMm-40" source="bC43uHXILsUVz6L1ORMm-130" target="bC43uHXILsUVz6L1ORMm-133">
          <mxGeometry relative="1" as="geometry" />
        </mxCell>
        <mxCell id="bC43uHXILsUVz6L1ORMm-135" value="j &amp;lt; 13" style="rhombus;whiteSpace=wrap;html=1;" vertex="1" parent="bC43uHXILsUVz6L1ORMm-40">
          <mxGeometry x="123.75" y="2300" width="150" height="80" as="geometry" />
        </mxCell>
        <mxCell id="bC43uHXILsUVz6L1ORMm-136" style="edgeStyle=orthogonalEdgeStyle;rounded=0;orthogonalLoop=1;jettySize=auto;html=1;exitX=0.5;exitY=1;exitDx=0;exitDy=0;entryX=0.5;entryY=0;entryDx=0;entryDy=0;" edge="1" parent="bC43uHXILsUVz6L1ORMm-40" source="bC43uHXILsUVz6L1ORMm-133" target="bC43uHXILsUVz6L1ORMm-135">
          <mxGeometry relative="1" as="geometry" />
        </mxCell>
        <mxCell id="bC43uHXILsUVz6L1ORMm-137" style="edgeStyle=orthogonalEdgeStyle;rounded=0;orthogonalLoop=1;jettySize=auto;html=1;exitX=0;exitY=0.5;exitDx=0;exitDy=0;entryX=1;entryY=0.5;entryDx=0;entryDy=0;" edge="1" parent="bC43uHXILsUVz6L1ORMm-40" source="bC43uHXILsUVz6L1ORMm-138" target="bC43uHXILsUVz6L1ORMm-135">
          <mxGeometry relative="1" as="geometry" />
        </mxCell>
        <mxCell id="bC43uHXILsUVz6L1ORMm-138" value="increment j" style="rounded=0;whiteSpace=wrap;html=1;" vertex="1" parent="bC43uHXILsUVz6L1ORMm-40">
          <mxGeometry x="298.75" y="2310" width="120" height="60" as="geometry" />
        </mxCell>
        <mxCell id="bC43uHXILsUVz6L1ORMm-139" style="edgeStyle=orthogonalEdgeStyle;rounded=0;orthogonalLoop=1;jettySize=auto;html=1;exitX=1;exitY=0.5;exitDx=0;exitDy=0;entryX=0.5;entryY=1;entryDx=0;entryDy=0;" edge="1" parent="bC43uHXILsUVz6L1ORMm-40" source="bC43uHXILsUVz6L1ORMm-140" target="bC43uHXILsUVz6L1ORMm-138">
          <mxGeometry relative="1" as="geometry" />
        </mxCell>
        <mxCell id="bC43uHXILsUVz6L1ORMm-140" value="cout &amp;lt;&amp;lt; pfv.pshow[ j ]" style="shape=parallelogram;perimeter=parallelogramPerimeter;whiteSpace=wrap;html=1;fixedSize=1;" vertex="1" parent="bC43uHXILsUVz6L1ORMm-40">
          <mxGeometry x="119.5" y="2400" width="157.5" height="60" as="geometry" />
        </mxCell>
        <mxCell id="bC43uHXILsUVz6L1ORMm-141" style="edgeStyle=orthogonalEdgeStyle;rounded=0;orthogonalLoop=1;jettySize=auto;html=1;exitX=0.5;exitY=1;exitDx=0;exitDy=0;entryX=0.5;entryY=0;entryDx=0;entryDy=0;" edge="1" parent="bC43uHXILsUVz6L1ORMm-40" source="bC43uHXILsUVz6L1ORMm-135" target="bC43uHXILsUVz6L1ORMm-140">
          <mxGeometry relative="1" as="geometry" />
        </mxCell>
        <mxCell id="bC43uHXILsUVz6L1ORMm-142" value="cout &amp;lt;&amp;lt; endl" style="shape=parallelogram;perimeter=parallelogramPerimeter;whiteSpace=wrap;html=1;fixedSize=1;" vertex="1" parent="bC43uHXILsUVz6L1ORMm-40">
          <mxGeometry x="120" y="2480" width="157.5" height="60" as="geometry" />
        </mxCell>
        <mxCell id="bC43uHXILsUVz6L1ORMm-143" style="edgeStyle=orthogonalEdgeStyle;rounded=0;orthogonalLoop=1;jettySize=auto;html=1;exitX=0;exitY=0.5;exitDx=0;exitDy=0;entryX=0;entryY=0.5;entryDx=0;entryDy=0;" edge="1" parent="bC43uHXILsUVz6L1ORMm-40" source="bC43uHXILsUVz6L1ORMm-135" target="bC43uHXILsUVz6L1ORMm-142">
          <mxGeometry relative="1" as="geometry">
            <Array as="points">
              <mxPoint x="84" y="2340" />
              <mxPoint x="84" y="2510" />
            </Array>
          </mxGeometry>
        </mxCell>
        <mxCell id="bC43uHXILsUVz6L1ORMm-144" value="End print" style="ellipse;whiteSpace=wrap;html=1;" vertex="1" parent="bC43uHXILsUVz6L1ORMm-40">
          <mxGeometry x="298.75" y="2490" width="120" height="40" as="geometry" />
        </mxCell>
        <mxCell id="bC43uHXILsUVz6L1ORMm-145" style="edgeStyle=orthogonalEdgeStyle;rounded=0;orthogonalLoop=1;jettySize=auto;html=1;exitX=1;exitY=0.5;exitDx=0;exitDy=0;entryX=0;entryY=0.5;entryDx=0;entryDy=0;" edge="1" parent="bC43uHXILsUVz6L1ORMm-40" source="bC43uHXILsUVz6L1ORMm-142" target="bC43uHXILsUVz6L1ORMm-144">
          <mxGeometry relative="1" as="geometry" />
        </mxCell>
        <mxCell id="bC43uHXILsUVz6L1ORMm-146" style="edgeStyle=orthogonalEdgeStyle;rounded=0;orthogonalLoop=1;jettySize=auto;html=1;exitX=0.5;exitY=1;exitDx=0;exitDy=0;entryX=0.5;entryY=0;entryDx=0;entryDy=0;" edge="1" parent="bC43uHXILsUVz6L1ORMm-40" source="bC43uHXILsUVz6L1ORMm-147" target="bC43uHXILsUVz6L1ORMm-41">
          <mxGeometry relative="1" as="geometry" />
        </mxCell>
        <mxCell id="bC43uHXILsUVz6L1ORMm-147" value="Start print" style="ellipse;whiteSpace=wrap;html=1;" vertex="1" parent="bC43uHXILsUVz6L1ORMm-40">
          <mxGeometry x="137" width="120" height="40" as="geometry" />
        </mxCell>
        <mxCell id="bC43uHXILsUVz6L1ORMm-148" value="Yes" style="text;html=1;strokeColor=none;fillColor=none;align=center;verticalAlign=middle;whiteSpace=wrap;rounded=0;" vertex="1" parent="bC43uHXILsUVz6L1ORMm-40">
          <mxGeometry x="73.75" y="70" width="60" height="30" as="geometry" />
        </mxCell>
        <mxCell id="bC43uHXILsUVz6L1ORMm-149" value="No" style="text;html=1;strokeColor=none;fillColor=none;align=center;verticalAlign=middle;whiteSpace=wrap;rounded=0;" vertex="1" parent="bC43uHXILsUVz6L1ORMm-40">
          <mxGeometry x="263.75" y="70" width="60" height="30" as="geometry" />
        </mxCell>
        <mxCell id="bC43uHXILsUVz6L1ORMm-150" value="Yes" style="text;html=1;strokeColor=none;fillColor=none;align=center;verticalAlign=middle;whiteSpace=wrap;rounded=0;" vertex="1" parent="bC43uHXILsUVz6L1ORMm-40">
          <mxGeometry x="73.75" y="230" width="60" height="30" as="geometry" />
        </mxCell>
        <mxCell id="bC43uHXILsUVz6L1ORMm-151" value="No" style="text;html=1;strokeColor=none;fillColor=none;align=center;verticalAlign=middle;whiteSpace=wrap;rounded=0;" vertex="1" parent="bC43uHXILsUVz6L1ORMm-40">
          <mxGeometry x="263.75" y="230" width="60" height="30" as="geometry" />
        </mxCell>
        <mxCell id="bC43uHXILsUVz6L1ORMm-152" value="Yes" style="text;html=1;strokeColor=none;fillColor=none;align=center;verticalAlign=middle;whiteSpace=wrap;rounded=0;" vertex="1" parent="bC43uHXILsUVz6L1ORMm-40">
          <mxGeometry x="73.75" y="390" width="60" height="30" as="geometry" />
        </mxCell>
        <mxCell id="bC43uHXILsUVz6L1ORMm-153" value="No" style="text;html=1;strokeColor=none;fillColor=none;align=center;verticalAlign=middle;whiteSpace=wrap;rounded=0;" vertex="1" parent="bC43uHXILsUVz6L1ORMm-40">
          <mxGeometry x="263.75" y="390" width="60" height="30" as="geometry" />
        </mxCell>
        <mxCell id="bC43uHXILsUVz6L1ORMm-154" value="Yes" style="text;html=1;strokeColor=none;fillColor=none;align=center;verticalAlign=middle;whiteSpace=wrap;rounded=0;" vertex="1" parent="bC43uHXILsUVz6L1ORMm-40">
          <mxGeometry x="73.75" y="550" width="60" height="30" as="geometry" />
        </mxCell>
        <mxCell id="bC43uHXILsUVz6L1ORMm-155" value="No" style="text;html=1;strokeColor=none;fillColor=none;align=center;verticalAlign=middle;whiteSpace=wrap;rounded=0;" vertex="1" parent="bC43uHXILsUVz6L1ORMm-40">
          <mxGeometry x="263.75" y="550" width="60" height="30" as="geometry" />
        </mxCell>
        <mxCell id="bC43uHXILsUVz6L1ORMm-156" value="Yes" style="text;html=1;strokeColor=none;fillColor=none;align=center;verticalAlign=middle;whiteSpace=wrap;rounded=0;" vertex="1" parent="bC43uHXILsUVz6L1ORMm-40">
          <mxGeometry x="72.5" y="550" width="60" height="30" as="geometry" />
        </mxCell>
        <mxCell id="bC43uHXILsUVz6L1ORMm-157" value="No" style="text;html=1;strokeColor=none;fillColor=none;align=center;verticalAlign=middle;whiteSpace=wrap;rounded=0;" vertex="1" parent="bC43uHXILsUVz6L1ORMm-40">
          <mxGeometry x="262.5" y="550" width="60" height="30" as="geometry" />
        </mxCell>
        <mxCell id="bC43uHXILsUVz6L1ORMm-158" value="Yes" style="text;html=1;strokeColor=none;fillColor=none;align=center;verticalAlign=middle;whiteSpace=wrap;rounded=0;" vertex="1" parent="bC43uHXILsUVz6L1ORMm-40">
          <mxGeometry x="72.5" y="710" width="60" height="30" as="geometry" />
        </mxCell>
        <mxCell id="bC43uHXILsUVz6L1ORMm-159" value="No" style="text;html=1;strokeColor=none;fillColor=none;align=center;verticalAlign=middle;whiteSpace=wrap;rounded=0;" vertex="1" parent="bC43uHXILsUVz6L1ORMm-40">
          <mxGeometry x="262.5" y="710" width="60" height="30" as="geometry" />
        </mxCell>
        <mxCell id="bC43uHXILsUVz6L1ORMm-160" value="Yes" style="text;html=1;strokeColor=none;fillColor=none;align=center;verticalAlign=middle;whiteSpace=wrap;rounded=0;" vertex="1" parent="bC43uHXILsUVz6L1ORMm-40">
          <mxGeometry x="72.5" y="870" width="60" height="30" as="geometry" />
        </mxCell>
        <mxCell id="bC43uHXILsUVz6L1ORMm-161" value="No" style="text;html=1;strokeColor=none;fillColor=none;align=center;verticalAlign=middle;whiteSpace=wrap;rounded=0;" vertex="1" parent="bC43uHXILsUVz6L1ORMm-40">
          <mxGeometry x="262.5" y="870" width="60" height="30" as="geometry" />
        </mxCell>
        <mxCell id="bC43uHXILsUVz6L1ORMm-162" value="Yes" style="text;html=1;strokeColor=none;fillColor=none;align=center;verticalAlign=middle;whiteSpace=wrap;rounded=0;" vertex="1" parent="bC43uHXILsUVz6L1ORMm-40">
          <mxGeometry x="72.5" y="1030" width="60" height="30" as="geometry" />
        </mxCell>
        <mxCell id="bC43uHXILsUVz6L1ORMm-163" value="No" style="text;html=1;strokeColor=none;fillColor=none;align=center;verticalAlign=middle;whiteSpace=wrap;rounded=0;" vertex="1" parent="bC43uHXILsUVz6L1ORMm-40">
          <mxGeometry x="262.5" y="1030" width="60" height="30" as="geometry" />
        </mxCell>
        <mxCell id="bC43uHXILsUVz6L1ORMm-164" value="Yes" style="text;html=1;strokeColor=none;fillColor=none;align=center;verticalAlign=middle;whiteSpace=wrap;rounded=0;" vertex="1" parent="bC43uHXILsUVz6L1ORMm-40">
          <mxGeometry x="72" y="1190" width="60" height="30" as="geometry" />
        </mxCell>
        <mxCell id="bC43uHXILsUVz6L1ORMm-165" value="No" style="text;html=1;strokeColor=none;fillColor=none;align=center;verticalAlign=middle;whiteSpace=wrap;rounded=0;" vertex="1" parent="bC43uHXILsUVz6L1ORMm-40">
          <mxGeometry x="262" y="1190" width="60" height="30" as="geometry" />
        </mxCell>
        <mxCell id="bC43uHXILsUVz6L1ORMm-166" value="Yes" style="text;html=1;strokeColor=none;fillColor=none;align=center;verticalAlign=middle;whiteSpace=wrap;rounded=0;" vertex="1" parent="bC43uHXILsUVz6L1ORMm-40">
          <mxGeometry x="72" y="1350" width="60" height="30" as="geometry" />
        </mxCell>
        <mxCell id="bC43uHXILsUVz6L1ORMm-167" value="No" style="text;html=1;strokeColor=none;fillColor=none;align=center;verticalAlign=middle;whiteSpace=wrap;rounded=0;" vertex="1" parent="bC43uHXILsUVz6L1ORMm-40">
          <mxGeometry x="262" y="1350" width="60" height="30" as="geometry" />
        </mxCell>
        <mxCell id="bC43uHXILsUVz6L1ORMm-168" value="Yes" style="text;html=1;strokeColor=none;fillColor=none;align=center;verticalAlign=middle;whiteSpace=wrap;rounded=0;" vertex="1" parent="bC43uHXILsUVz6L1ORMm-40">
          <mxGeometry x="72" y="1510" width="60" height="30" as="geometry" />
        </mxCell>
        <mxCell id="bC43uHXILsUVz6L1ORMm-169" value="No" style="text;html=1;strokeColor=none;fillColor=none;align=center;verticalAlign=middle;whiteSpace=wrap;rounded=0;" vertex="1" parent="bC43uHXILsUVz6L1ORMm-40">
          <mxGeometry x="262" y="1510" width="60" height="30" as="geometry" />
        </mxCell>
        <mxCell id="bC43uHXILsUVz6L1ORMm-170" value="Yes" style="text;html=1;strokeColor=none;fillColor=none;align=center;verticalAlign=middle;whiteSpace=wrap;rounded=0;" vertex="1" parent="bC43uHXILsUVz6L1ORMm-40">
          <mxGeometry x="72" y="1670" width="60" height="30" as="geometry" />
        </mxCell>
        <mxCell id="bC43uHXILsUVz6L1ORMm-171" value="No" style="text;html=1;strokeColor=none;fillColor=none;align=center;verticalAlign=middle;whiteSpace=wrap;rounded=0;" vertex="1" parent="bC43uHXILsUVz6L1ORMm-40">
          <mxGeometry x="262" y="1670" width="60" height="30" as="geometry" />
        </mxCell>
        <mxCell id="bC43uHXILsUVz6L1ORMm-172" value="Yes" style="text;html=1;strokeColor=none;fillColor=none;align=center;verticalAlign=middle;whiteSpace=wrap;rounded=0;" vertex="1" parent="bC43uHXILsUVz6L1ORMm-40">
          <mxGeometry x="72" y="1830" width="60" height="30" as="geometry" />
        </mxCell>
        <mxCell id="bC43uHXILsUVz6L1ORMm-173" value="No" style="text;html=1;strokeColor=none;fillColor=none;align=center;verticalAlign=middle;whiteSpace=wrap;rounded=0;" vertex="1" parent="bC43uHXILsUVz6L1ORMm-40">
          <mxGeometry x="262" y="1830" width="60" height="30" as="geometry" />
        </mxCell>
        <mxCell id="bC43uHXILsUVz6L1ORMm-174" value="Yes" style="text;html=1;strokeColor=none;fillColor=none;align=center;verticalAlign=middle;whiteSpace=wrap;rounded=0;" vertex="1" parent="bC43uHXILsUVz6L1ORMm-40">
          <mxGeometry x="72" y="1990" width="60" height="30" as="geometry" />
        </mxCell>
        <mxCell id="bC43uHXILsUVz6L1ORMm-175" value="No" style="text;html=1;strokeColor=none;fillColor=none;align=center;verticalAlign=middle;whiteSpace=wrap;rounded=0;" vertex="1" parent="bC43uHXILsUVz6L1ORMm-40">
          <mxGeometry x="262" y="1990" width="60" height="30" as="geometry" />
        </mxCell>
        <mxCell id="bC43uHXILsUVz6L1ORMm-176" value="Yes" style="text;html=1;strokeColor=none;fillColor=none;align=center;verticalAlign=middle;whiteSpace=wrap;rounded=0;" vertex="1" parent="bC43uHXILsUVz6L1ORMm-40">
          <mxGeometry x="153.75" y="2370" width="60" height="30" as="geometry" />
        </mxCell>
        <mxCell id="bC43uHXILsUVz6L1ORMm-177" value="No" style="text;html=1;strokeColor=none;fillColor=none;align=center;verticalAlign=middle;whiteSpace=wrap;rounded=0;" vertex="1" parent="bC43uHXILsUVz6L1ORMm-40">
          <mxGeometry x="78.5" y="2310" width="60" height="30" as="geometry" />
        </mxCell>
        <mxCell id="bC43uHXILsUVz6L1ORMm-178" value="" style="group" vertex="1" connectable="0" parent="1">
          <mxGeometry x="2180" y="-1070" width="326" height="1450" as="geometry" />
        </mxCell>
        <mxCell id="bC43uHXILsUVz6L1ORMm-179" value="&lt;font style=&quot;font-size: 10px;&quot;&gt;if &lt;br&gt;p.choice == p.hand.cards[0]&lt;br&gt;&amp;nbsp;&lt;br&gt;&lt;/font&gt;" style="rhombus;whiteSpace=wrap;html=1;" vertex="1" parent="bC43uHXILsUVz6L1ORMm-178">
          <mxGeometry y="70" width="150" height="80" as="geometry" />
        </mxCell>
        <mxCell id="bC43uHXILsUVz6L1ORMm-180" style="edgeStyle=orthogonalEdgeStyle;rounded=0;orthogonalLoop=1;jettySize=auto;html=1;exitX=1;exitY=0.5;exitDx=0;exitDy=0;" edge="1" parent="bC43uHXILsUVz6L1ORMm-178" source="bC43uHXILsUVz6L1ORMm-181">
          <mxGeometry relative="1" as="geometry">
            <mxPoint x="326" y="220" as="targetPoint" />
          </mxGeometry>
        </mxCell>
        <mxCell id="bC43uHXILsUVz6L1ORMm-181" value="p.hand.cards[0] = 0&lt;br&gt;pfv.pshow[0] = &quot; &quot;" style="rounded=0;whiteSpace=wrap;html=1;" vertex="1" parent="bC43uHXILsUVz6L1ORMm-178">
          <mxGeometry x="186" y="80" width="120" height="60" as="geometry" />
        </mxCell>
        <mxCell id="bC43uHXILsUVz6L1ORMm-182" style="edgeStyle=orthogonalEdgeStyle;rounded=0;orthogonalLoop=1;jettySize=auto;html=1;exitX=1;exitY=0.5;exitDx=0;exitDy=0;entryX=0;entryY=0.5;entryDx=0;entryDy=0;" edge="1" parent="bC43uHXILsUVz6L1ORMm-178" source="bC43uHXILsUVz6L1ORMm-179" target="bC43uHXILsUVz6L1ORMm-181">
          <mxGeometry relative="1" as="geometry" />
        </mxCell>
        <mxCell id="bC43uHXILsUVz6L1ORMm-183" value="&lt;font style=&quot;font-size: 10px;&quot;&gt;if &lt;br&gt;p.choice == p.hand.cards[1]&lt;br&gt;&amp;nbsp;&lt;br&gt;&lt;/font&gt;" style="rhombus;whiteSpace=wrap;html=1;" vertex="1" parent="bC43uHXILsUVz6L1ORMm-178">
          <mxGeometry y="173" width="150" height="80" as="geometry" />
        </mxCell>
        <mxCell id="bC43uHXILsUVz6L1ORMm-184" style="edgeStyle=orthogonalEdgeStyle;rounded=0;orthogonalLoop=1;jettySize=auto;html=1;exitX=0.5;exitY=1;exitDx=0;exitDy=0;entryX=0.5;entryY=0;entryDx=0;entryDy=0;" edge="1" parent="bC43uHXILsUVz6L1ORMm-178" source="bC43uHXILsUVz6L1ORMm-179" target="bC43uHXILsUVz6L1ORMm-183">
          <mxGeometry relative="1" as="geometry" />
        </mxCell>
        <mxCell id="bC43uHXILsUVz6L1ORMm-185" style="edgeStyle=orthogonalEdgeStyle;rounded=0;orthogonalLoop=1;jettySize=auto;html=1;exitX=1;exitY=0.5;exitDx=0;exitDy=0;" edge="1" parent="bC43uHXILsUVz6L1ORMm-178" source="bC43uHXILsUVz6L1ORMm-186">
          <mxGeometry relative="1" as="geometry">
            <mxPoint x="326" y="320" as="targetPoint" />
          </mxGeometry>
        </mxCell>
        <mxCell id="bC43uHXILsUVz6L1ORMm-186" value="p.hand.cards[1] = 0&lt;br&gt;pfv.pshow[1] = &quot; &quot;" style="rounded=0;whiteSpace=wrap;html=1;" vertex="1" parent="bC43uHXILsUVz6L1ORMm-178">
          <mxGeometry x="186" y="183" width="120" height="60" as="geometry" />
        </mxCell>
        <mxCell id="bC43uHXILsUVz6L1ORMm-187" style="edgeStyle=orthogonalEdgeStyle;rounded=0;orthogonalLoop=1;jettySize=auto;html=1;exitX=1;exitY=0.5;exitDx=0;exitDy=0;entryX=0;entryY=0.5;entryDx=0;entryDy=0;" edge="1" parent="bC43uHXILsUVz6L1ORMm-178" source="bC43uHXILsUVz6L1ORMm-183" target="bC43uHXILsUVz6L1ORMm-186">
          <mxGeometry relative="1" as="geometry" />
        </mxCell>
        <mxCell id="bC43uHXILsUVz6L1ORMm-188" value="&lt;font style=&quot;font-size: 10px;&quot;&gt;if &lt;br&gt;p.choice == p.hand.cards[2]&lt;br&gt;&amp;nbsp;&lt;br&gt;&lt;/font&gt;" style="rhombus;whiteSpace=wrap;html=1;" vertex="1" parent="bC43uHXILsUVz6L1ORMm-178">
          <mxGeometry y="277" width="150" height="80" as="geometry" />
        </mxCell>
        <mxCell id="bC43uHXILsUVz6L1ORMm-189" style="edgeStyle=orthogonalEdgeStyle;rounded=0;orthogonalLoop=1;jettySize=auto;html=1;exitX=0.5;exitY=1;exitDx=0;exitDy=0;entryX=0.5;entryY=0;entryDx=0;entryDy=0;" edge="1" parent="bC43uHXILsUVz6L1ORMm-178" source="bC43uHXILsUVz6L1ORMm-183" target="bC43uHXILsUVz6L1ORMm-188">
          <mxGeometry relative="1" as="geometry" />
        </mxCell>
        <mxCell id="bC43uHXILsUVz6L1ORMm-190" style="edgeStyle=orthogonalEdgeStyle;rounded=0;orthogonalLoop=1;jettySize=auto;html=1;exitX=1;exitY=0.5;exitDx=0;exitDy=0;" edge="1" parent="bC43uHXILsUVz6L1ORMm-178" source="bC43uHXILsUVz6L1ORMm-191">
          <mxGeometry relative="1" as="geometry">
            <mxPoint x="326" y="420" as="targetPoint" />
          </mxGeometry>
        </mxCell>
        <mxCell id="bC43uHXILsUVz6L1ORMm-191" value="p.hand.cards[2] = 0&lt;br&gt;pfv.pshow[2] = &quot; &quot;" style="rounded=0;whiteSpace=wrap;html=1;" vertex="1" parent="bC43uHXILsUVz6L1ORMm-178">
          <mxGeometry x="186" y="287" width="120" height="60" as="geometry" />
        </mxCell>
        <mxCell id="bC43uHXILsUVz6L1ORMm-192" style="edgeStyle=orthogonalEdgeStyle;rounded=0;orthogonalLoop=1;jettySize=auto;html=1;exitX=1;exitY=0.5;exitDx=0;exitDy=0;entryX=0;entryY=0.5;entryDx=0;entryDy=0;" edge="1" parent="bC43uHXILsUVz6L1ORMm-178" source="bC43uHXILsUVz6L1ORMm-188" target="bC43uHXILsUVz6L1ORMm-191">
          <mxGeometry relative="1" as="geometry" />
        </mxCell>
        <mxCell id="bC43uHXILsUVz6L1ORMm-193" value="&lt;font style=&quot;font-size: 10px;&quot;&gt;if &lt;br&gt;p.choice == p.hand.cards[3]&lt;br&gt;&amp;nbsp;&lt;br&gt;&lt;/font&gt;" style="rhombus;whiteSpace=wrap;html=1;" vertex="1" parent="bC43uHXILsUVz6L1ORMm-178">
          <mxGeometry y="380" width="150" height="80" as="geometry" />
        </mxCell>
        <mxCell id="bC43uHXILsUVz6L1ORMm-194" style="edgeStyle=orthogonalEdgeStyle;rounded=0;orthogonalLoop=1;jettySize=auto;html=1;exitX=0.5;exitY=1;exitDx=0;exitDy=0;entryX=0.5;entryY=0;entryDx=0;entryDy=0;" edge="1" parent="bC43uHXILsUVz6L1ORMm-178" source="bC43uHXILsUVz6L1ORMm-188" target="bC43uHXILsUVz6L1ORMm-193">
          <mxGeometry relative="1" as="geometry" />
        </mxCell>
        <mxCell id="bC43uHXILsUVz6L1ORMm-195" style="edgeStyle=orthogonalEdgeStyle;rounded=0;orthogonalLoop=1;jettySize=auto;html=1;exitX=1;exitY=0.5;exitDx=0;exitDy=0;" edge="1" parent="bC43uHXILsUVz6L1ORMm-178" source="bC43uHXILsUVz6L1ORMm-196">
          <mxGeometry relative="1" as="geometry">
            <mxPoint x="326" y="530" as="targetPoint" />
          </mxGeometry>
        </mxCell>
        <mxCell id="bC43uHXILsUVz6L1ORMm-196" value="p.hand.cards[3] = 0&lt;br&gt;pfv.pshow[3] = &quot; &quot;" style="rounded=0;whiteSpace=wrap;html=1;" vertex="1" parent="bC43uHXILsUVz6L1ORMm-178">
          <mxGeometry x="186" y="390" width="120" height="60" as="geometry" />
        </mxCell>
        <mxCell id="bC43uHXILsUVz6L1ORMm-197" style="edgeStyle=orthogonalEdgeStyle;rounded=0;orthogonalLoop=1;jettySize=auto;html=1;exitX=1;exitY=0.5;exitDx=0;exitDy=0;entryX=0;entryY=0.5;entryDx=0;entryDy=0;" edge="1" parent="bC43uHXILsUVz6L1ORMm-178" source="bC43uHXILsUVz6L1ORMm-193" target="bC43uHXILsUVz6L1ORMm-196">
          <mxGeometry relative="1" as="geometry" />
        </mxCell>
        <mxCell id="bC43uHXILsUVz6L1ORMm-198" value="&lt;font style=&quot;font-size: 10px;&quot;&gt;if &lt;br&gt;p.choice == p.hand.cards[4]&lt;br&gt;&amp;nbsp;&lt;br&gt;&lt;/font&gt;" style="rhombus;whiteSpace=wrap;html=1;" vertex="1" parent="bC43uHXILsUVz6L1ORMm-178">
          <mxGeometry y="483" width="150" height="80" as="geometry" />
        </mxCell>
        <mxCell id="bC43uHXILsUVz6L1ORMm-199" style="edgeStyle=orthogonalEdgeStyle;rounded=0;orthogonalLoop=1;jettySize=auto;html=1;exitX=0.5;exitY=1;exitDx=0;exitDy=0;entryX=0.5;entryY=0;entryDx=0;entryDy=0;" edge="1" parent="bC43uHXILsUVz6L1ORMm-178" source="bC43uHXILsUVz6L1ORMm-193" target="bC43uHXILsUVz6L1ORMm-198">
          <mxGeometry relative="1" as="geometry" />
        </mxCell>
        <mxCell id="bC43uHXILsUVz6L1ORMm-200" style="edgeStyle=orthogonalEdgeStyle;rounded=0;orthogonalLoop=1;jettySize=auto;html=1;exitX=1;exitY=0.5;exitDx=0;exitDy=0;" edge="1" parent="bC43uHXILsUVz6L1ORMm-178" source="bC43uHXILsUVz6L1ORMm-201">
          <mxGeometry relative="1" as="geometry">
            <mxPoint x="326" y="630" as="targetPoint" />
          </mxGeometry>
        </mxCell>
        <mxCell id="bC43uHXILsUVz6L1ORMm-201" value="p.hand.cards[4] = 0&lt;br&gt;pfv.pshow[4] = &quot; &quot;" style="rounded=0;whiteSpace=wrap;html=1;" vertex="1" parent="bC43uHXILsUVz6L1ORMm-178">
          <mxGeometry x="186" y="493" width="120" height="60" as="geometry" />
        </mxCell>
        <mxCell id="bC43uHXILsUVz6L1ORMm-202" style="edgeStyle=orthogonalEdgeStyle;rounded=0;orthogonalLoop=1;jettySize=auto;html=1;exitX=1;exitY=0.5;exitDx=0;exitDy=0;entryX=0;entryY=0.5;entryDx=0;entryDy=0;" edge="1" parent="bC43uHXILsUVz6L1ORMm-178" source="bC43uHXILsUVz6L1ORMm-198" target="bC43uHXILsUVz6L1ORMm-201">
          <mxGeometry relative="1" as="geometry" />
        </mxCell>
        <mxCell id="bC43uHXILsUVz6L1ORMm-203" value="&lt;font style=&quot;font-size: 10px;&quot;&gt;if &lt;br&gt;p.choice == p.hand.cards[5]&lt;br&gt;&amp;nbsp;&lt;br&gt;&lt;/font&gt;" style="rhombus;whiteSpace=wrap;html=1;" vertex="1" parent="bC43uHXILsUVz6L1ORMm-178">
          <mxGeometry y="587" width="150" height="80" as="geometry" />
        </mxCell>
        <mxCell id="bC43uHXILsUVz6L1ORMm-204" style="edgeStyle=orthogonalEdgeStyle;rounded=0;orthogonalLoop=1;jettySize=auto;html=1;exitX=0.5;exitY=1;exitDx=0;exitDy=0;entryX=0.5;entryY=0;entryDx=0;entryDy=0;" edge="1" parent="bC43uHXILsUVz6L1ORMm-178" source="bC43uHXILsUVz6L1ORMm-198" target="bC43uHXILsUVz6L1ORMm-203">
          <mxGeometry relative="1" as="geometry" />
        </mxCell>
        <mxCell id="bC43uHXILsUVz6L1ORMm-205" style="edgeStyle=orthogonalEdgeStyle;rounded=0;orthogonalLoop=1;jettySize=auto;html=1;exitX=1;exitY=0.5;exitDx=0;exitDy=0;" edge="1" parent="bC43uHXILsUVz6L1ORMm-178" source="bC43uHXILsUVz6L1ORMm-206">
          <mxGeometry relative="1" as="geometry">
            <mxPoint x="326" y="730" as="targetPoint" />
          </mxGeometry>
        </mxCell>
        <mxCell id="bC43uHXILsUVz6L1ORMm-206" value="p.hand.cards[5] = 0&lt;br&gt;pfv.pshow[5] = &quot; &quot;" style="rounded=0;whiteSpace=wrap;html=1;" vertex="1" parent="bC43uHXILsUVz6L1ORMm-178">
          <mxGeometry x="186" y="597" width="120" height="60" as="geometry" />
        </mxCell>
        <mxCell id="bC43uHXILsUVz6L1ORMm-207" style="edgeStyle=orthogonalEdgeStyle;rounded=0;orthogonalLoop=1;jettySize=auto;html=1;exitX=1;exitY=0.5;exitDx=0;exitDy=0;entryX=0;entryY=0.5;entryDx=0;entryDy=0;" edge="1" parent="bC43uHXILsUVz6L1ORMm-178" source="bC43uHXILsUVz6L1ORMm-203" target="bC43uHXILsUVz6L1ORMm-206">
          <mxGeometry relative="1" as="geometry" />
        </mxCell>
        <mxCell id="bC43uHXILsUVz6L1ORMm-208" value="&lt;font style=&quot;font-size: 10px;&quot;&gt;if &lt;br&gt;p.choice == p.hand.cards[6]&lt;br&gt;&amp;nbsp;&lt;br&gt;&lt;/font&gt;" style="rhombus;whiteSpace=wrap;html=1;" vertex="1" parent="bC43uHXILsUVz6L1ORMm-178">
          <mxGeometry y="690" width="150" height="80" as="geometry" />
        </mxCell>
        <mxCell id="bC43uHXILsUVz6L1ORMm-209" style="edgeStyle=orthogonalEdgeStyle;rounded=0;orthogonalLoop=1;jettySize=auto;html=1;exitX=0.5;exitY=1;exitDx=0;exitDy=0;entryX=0.5;entryY=0;entryDx=0;entryDy=0;" edge="1" parent="bC43uHXILsUVz6L1ORMm-178" source="bC43uHXILsUVz6L1ORMm-203" target="bC43uHXILsUVz6L1ORMm-208">
          <mxGeometry relative="1" as="geometry" />
        </mxCell>
        <mxCell id="bC43uHXILsUVz6L1ORMm-210" style="edgeStyle=orthogonalEdgeStyle;rounded=0;orthogonalLoop=1;jettySize=auto;html=1;exitX=1;exitY=0.5;exitDx=0;exitDy=0;" edge="1" parent="bC43uHXILsUVz6L1ORMm-178" source="bC43uHXILsUVz6L1ORMm-211">
          <mxGeometry relative="1" as="geometry">
            <mxPoint x="326" y="840" as="targetPoint" />
          </mxGeometry>
        </mxCell>
        <mxCell id="bC43uHXILsUVz6L1ORMm-211" value="p.hand.cards[6] = 0&lt;br&gt;pfv.pshow[6] = &quot; &quot;" style="rounded=0;whiteSpace=wrap;html=1;" vertex="1" parent="bC43uHXILsUVz6L1ORMm-178">
          <mxGeometry x="186" y="700" width="120" height="60" as="geometry" />
        </mxCell>
        <mxCell id="bC43uHXILsUVz6L1ORMm-212" style="edgeStyle=orthogonalEdgeStyle;rounded=0;orthogonalLoop=1;jettySize=auto;html=1;exitX=1;exitY=0.5;exitDx=0;exitDy=0;entryX=0;entryY=0.5;entryDx=0;entryDy=0;" edge="1" parent="bC43uHXILsUVz6L1ORMm-178" source="bC43uHXILsUVz6L1ORMm-208" target="bC43uHXILsUVz6L1ORMm-211">
          <mxGeometry relative="1" as="geometry" />
        </mxCell>
        <mxCell id="bC43uHXILsUVz6L1ORMm-213" value="&lt;font style=&quot;font-size: 10px;&quot;&gt;if &lt;br&gt;p.choice == p.hand.cards[7]&lt;br&gt;&amp;nbsp;&lt;br&gt;&lt;/font&gt;" style="rhombus;whiteSpace=wrap;html=1;" vertex="1" parent="bC43uHXILsUVz6L1ORMm-178">
          <mxGeometry y="793" width="150" height="80" as="geometry" />
        </mxCell>
        <mxCell id="bC43uHXILsUVz6L1ORMm-214" style="edgeStyle=orthogonalEdgeStyle;rounded=0;orthogonalLoop=1;jettySize=auto;html=1;exitX=0.5;exitY=1;exitDx=0;exitDy=0;entryX=0.5;entryY=0;entryDx=0;entryDy=0;" edge="1" parent="bC43uHXILsUVz6L1ORMm-178" source="bC43uHXILsUVz6L1ORMm-208" target="bC43uHXILsUVz6L1ORMm-213">
          <mxGeometry relative="1" as="geometry" />
        </mxCell>
        <mxCell id="bC43uHXILsUVz6L1ORMm-215" style="edgeStyle=orthogonalEdgeStyle;rounded=0;orthogonalLoop=1;jettySize=auto;html=1;exitX=1;exitY=0.5;exitDx=0;exitDy=0;" edge="1" parent="bC43uHXILsUVz6L1ORMm-178" source="bC43uHXILsUVz6L1ORMm-216">
          <mxGeometry relative="1" as="geometry">
            <mxPoint x="326" y="939.9999999999995" as="targetPoint" />
          </mxGeometry>
        </mxCell>
        <mxCell id="bC43uHXILsUVz6L1ORMm-216" value="p.hand.cards[7] = 0&lt;br&gt;pfv.pshow[7] = &quot; &quot;" style="rounded=0;whiteSpace=wrap;html=1;" vertex="1" parent="bC43uHXILsUVz6L1ORMm-178">
          <mxGeometry x="186" y="803" width="120" height="60" as="geometry" />
        </mxCell>
        <mxCell id="bC43uHXILsUVz6L1ORMm-217" style="edgeStyle=orthogonalEdgeStyle;rounded=0;orthogonalLoop=1;jettySize=auto;html=1;exitX=1;exitY=0.5;exitDx=0;exitDy=0;entryX=0;entryY=0.5;entryDx=0;entryDy=0;" edge="1" parent="bC43uHXILsUVz6L1ORMm-178" source="bC43uHXILsUVz6L1ORMm-213" target="bC43uHXILsUVz6L1ORMm-216">
          <mxGeometry relative="1" as="geometry" />
        </mxCell>
        <mxCell id="bC43uHXILsUVz6L1ORMm-218" value="&lt;font style=&quot;font-size: 10px;&quot;&gt;if &lt;br&gt;p.choice == p.hand.cards[8]&lt;br&gt;&amp;nbsp;&lt;br&gt;&lt;/font&gt;" style="rhombus;whiteSpace=wrap;html=1;" vertex="1" parent="bC43uHXILsUVz6L1ORMm-178">
          <mxGeometry y="897" width="150" height="80" as="geometry" />
        </mxCell>
        <mxCell id="bC43uHXILsUVz6L1ORMm-219" style="edgeStyle=orthogonalEdgeStyle;rounded=0;orthogonalLoop=1;jettySize=auto;html=1;exitX=0.5;exitY=1;exitDx=0;exitDy=0;entryX=0.5;entryY=0;entryDx=0;entryDy=0;" edge="1" parent="bC43uHXILsUVz6L1ORMm-178" source="bC43uHXILsUVz6L1ORMm-213" target="bC43uHXILsUVz6L1ORMm-218">
          <mxGeometry relative="1" as="geometry" />
        </mxCell>
        <mxCell id="bC43uHXILsUVz6L1ORMm-220" style="edgeStyle=orthogonalEdgeStyle;rounded=0;orthogonalLoop=1;jettySize=auto;html=1;exitX=1;exitY=0.5;exitDx=0;exitDy=0;" edge="1" parent="bC43uHXILsUVz6L1ORMm-178" source="bC43uHXILsUVz6L1ORMm-221">
          <mxGeometry relative="1" as="geometry">
            <mxPoint x="326" y="1040" as="targetPoint" />
          </mxGeometry>
        </mxCell>
        <mxCell id="bC43uHXILsUVz6L1ORMm-221" value="p.hand.cards[8] = 0&lt;br&gt;pfv.pshow[8] = &quot; &quot;" style="rounded=0;whiteSpace=wrap;html=1;" vertex="1" parent="bC43uHXILsUVz6L1ORMm-178">
          <mxGeometry x="186" y="907" width="120" height="60" as="geometry" />
        </mxCell>
        <mxCell id="bC43uHXILsUVz6L1ORMm-222" style="edgeStyle=orthogonalEdgeStyle;rounded=0;orthogonalLoop=1;jettySize=auto;html=1;exitX=1;exitY=0.5;exitDx=0;exitDy=0;entryX=0;entryY=0.5;entryDx=0;entryDy=0;" edge="1" parent="bC43uHXILsUVz6L1ORMm-178" source="bC43uHXILsUVz6L1ORMm-218" target="bC43uHXILsUVz6L1ORMm-221">
          <mxGeometry relative="1" as="geometry" />
        </mxCell>
        <mxCell id="bC43uHXILsUVz6L1ORMm-223" value="&lt;font style=&quot;font-size: 10px;&quot;&gt;if &lt;br&gt;p.choice == p.hand.cards[9]&lt;br&gt;&amp;nbsp;&lt;br&gt;&lt;/font&gt;" style="rhombus;whiteSpace=wrap;html=1;" vertex="1" parent="bC43uHXILsUVz6L1ORMm-178">
          <mxGeometry y="1000" width="150" height="80" as="geometry" />
        </mxCell>
        <mxCell id="bC43uHXILsUVz6L1ORMm-224" style="edgeStyle=orthogonalEdgeStyle;rounded=0;orthogonalLoop=1;jettySize=auto;html=1;exitX=0.5;exitY=1;exitDx=0;exitDy=0;entryX=0.5;entryY=0;entryDx=0;entryDy=0;" edge="1" parent="bC43uHXILsUVz6L1ORMm-178" source="bC43uHXILsUVz6L1ORMm-218" target="bC43uHXILsUVz6L1ORMm-223">
          <mxGeometry relative="1" as="geometry" />
        </mxCell>
        <mxCell id="bC43uHXILsUVz6L1ORMm-225" style="edgeStyle=orthogonalEdgeStyle;rounded=0;orthogonalLoop=1;jettySize=auto;html=1;exitX=1;exitY=0.5;exitDx=0;exitDy=0;" edge="1" parent="bC43uHXILsUVz6L1ORMm-178" source="bC43uHXILsUVz6L1ORMm-226">
          <mxGeometry relative="1" as="geometry">
            <mxPoint x="326" y="1149.9999999999995" as="targetPoint" />
          </mxGeometry>
        </mxCell>
        <mxCell id="bC43uHXILsUVz6L1ORMm-226" value="p.hand.cards[9] = 0&lt;br&gt;pfv.pshow[9] = &quot; &quot;" style="rounded=0;whiteSpace=wrap;html=1;" vertex="1" parent="bC43uHXILsUVz6L1ORMm-178">
          <mxGeometry x="186" y="1010" width="120" height="60" as="geometry" />
        </mxCell>
        <mxCell id="bC43uHXILsUVz6L1ORMm-227" style="edgeStyle=orthogonalEdgeStyle;rounded=0;orthogonalLoop=1;jettySize=auto;html=1;exitX=1;exitY=0.5;exitDx=0;exitDy=0;entryX=0;entryY=0.5;entryDx=0;entryDy=0;" edge="1" parent="bC43uHXILsUVz6L1ORMm-178" source="bC43uHXILsUVz6L1ORMm-223" target="bC43uHXILsUVz6L1ORMm-226">
          <mxGeometry relative="1" as="geometry" />
        </mxCell>
        <mxCell id="bC43uHXILsUVz6L1ORMm-228" value="&lt;font style=&quot;font-size: 10px;&quot;&gt;if &lt;br&gt;p.choice == p.hand.cards[10]&lt;br&gt;&amp;nbsp;&lt;br&gt;&lt;/font&gt;" style="rhombus;whiteSpace=wrap;html=1;" vertex="1" parent="bC43uHXILsUVz6L1ORMm-178">
          <mxGeometry y="1103" width="150" height="80" as="geometry" />
        </mxCell>
        <mxCell id="bC43uHXILsUVz6L1ORMm-229" style="edgeStyle=orthogonalEdgeStyle;rounded=0;orthogonalLoop=1;jettySize=auto;html=1;exitX=0.5;exitY=1;exitDx=0;exitDy=0;entryX=0.5;entryY=0;entryDx=0;entryDy=0;" edge="1" parent="bC43uHXILsUVz6L1ORMm-178" source="bC43uHXILsUVz6L1ORMm-223" target="bC43uHXILsUVz6L1ORMm-228">
          <mxGeometry relative="1" as="geometry" />
        </mxCell>
        <mxCell id="bC43uHXILsUVz6L1ORMm-230" style="edgeStyle=orthogonalEdgeStyle;rounded=0;orthogonalLoop=1;jettySize=auto;html=1;exitX=1;exitY=0.5;exitDx=0;exitDy=0;" edge="1" parent="bC43uHXILsUVz6L1ORMm-178" source="bC43uHXILsUVz6L1ORMm-231">
          <mxGeometry relative="1" as="geometry">
            <mxPoint x="326" y="1250" as="targetPoint" />
          </mxGeometry>
        </mxCell>
        <mxCell id="bC43uHXILsUVz6L1ORMm-231" value="p.hand.cards[10] = 0&lt;br&gt;pfv.pshow[10] = &quot; &quot;" style="rounded=0;whiteSpace=wrap;html=1;" vertex="1" parent="bC43uHXILsUVz6L1ORMm-178">
          <mxGeometry x="186" y="1113" width="120" height="60" as="geometry" />
        </mxCell>
        <mxCell id="bC43uHXILsUVz6L1ORMm-232" value="" style="edgeStyle=orthogonalEdgeStyle;rounded=0;orthogonalLoop=1;jettySize=auto;html=1;" edge="1" parent="bC43uHXILsUVz6L1ORMm-178" source="bC43uHXILsUVz6L1ORMm-228" target="bC43uHXILsUVz6L1ORMm-231">
          <mxGeometry relative="1" as="geometry" />
        </mxCell>
        <mxCell id="bC43uHXILsUVz6L1ORMm-233" value="&lt;font style=&quot;font-size: 10px;&quot;&gt;if &lt;br&gt;p.choice == p.hand.cards[11]&lt;br&gt;&amp;nbsp;&lt;br&gt;&lt;/font&gt;" style="rhombus;whiteSpace=wrap;html=1;" vertex="1" parent="bC43uHXILsUVz6L1ORMm-178">
          <mxGeometry y="1207" width="150" height="80" as="geometry" />
        </mxCell>
        <mxCell id="bC43uHXILsUVz6L1ORMm-234" style="edgeStyle=orthogonalEdgeStyle;rounded=0;orthogonalLoop=1;jettySize=auto;html=1;exitX=0.5;exitY=1;exitDx=0;exitDy=0;entryX=0.5;entryY=0;entryDx=0;entryDy=0;" edge="1" parent="bC43uHXILsUVz6L1ORMm-178" source="bC43uHXILsUVz6L1ORMm-228" target="bC43uHXILsUVz6L1ORMm-233">
          <mxGeometry relative="1" as="geometry" />
        </mxCell>
        <mxCell id="bC43uHXILsUVz6L1ORMm-235" style="edgeStyle=orthogonalEdgeStyle;rounded=0;orthogonalLoop=1;jettySize=auto;html=1;exitX=1;exitY=0.5;exitDx=0;exitDy=0;" edge="1" parent="bC43uHXILsUVz6L1ORMm-178" source="bC43uHXILsUVz6L1ORMm-236">
          <mxGeometry relative="1" as="geometry">
            <mxPoint x="326" y="1350" as="targetPoint" />
          </mxGeometry>
        </mxCell>
        <mxCell id="bC43uHXILsUVz6L1ORMm-236" value="p.hand.cards[11] = 0&lt;br&gt;pfv.pshow[11] = &quot; &quot;" style="rounded=0;whiteSpace=wrap;html=1;" vertex="1" parent="bC43uHXILsUVz6L1ORMm-178">
          <mxGeometry x="186" y="1217" width="120" height="60" as="geometry" />
        </mxCell>
        <mxCell id="bC43uHXILsUVz6L1ORMm-237" style="edgeStyle=orthogonalEdgeStyle;rounded=0;orthogonalLoop=1;jettySize=auto;html=1;exitX=1;exitY=0.5;exitDx=0;exitDy=0;entryX=0;entryY=0.5;entryDx=0;entryDy=0;" edge="1" parent="bC43uHXILsUVz6L1ORMm-178" source="bC43uHXILsUVz6L1ORMm-233" target="bC43uHXILsUVz6L1ORMm-236">
          <mxGeometry relative="1" as="geometry" />
        </mxCell>
        <mxCell id="bC43uHXILsUVz6L1ORMm-238" value="&lt;font style=&quot;font-size: 10px;&quot;&gt;if &lt;br&gt;p.choice == p.hand.cards[12]&lt;br&gt;&amp;nbsp;&lt;br&gt;&lt;/font&gt;" style="rhombus;whiteSpace=wrap;html=1;" vertex="1" parent="bC43uHXILsUVz6L1ORMm-178">
          <mxGeometry y="1310" width="150" height="80" as="geometry" />
        </mxCell>
        <mxCell id="bC43uHXILsUVz6L1ORMm-239" style="edgeStyle=orthogonalEdgeStyle;rounded=0;orthogonalLoop=1;jettySize=auto;html=1;exitX=0.5;exitY=1;exitDx=0;exitDy=0;entryX=0.5;entryY=0;entryDx=0;entryDy=0;" edge="1" parent="bC43uHXILsUVz6L1ORMm-178" source="bC43uHXILsUVz6L1ORMm-233" target="bC43uHXILsUVz6L1ORMm-238">
          <mxGeometry relative="1" as="geometry" />
        </mxCell>
        <mxCell id="bC43uHXILsUVz6L1ORMm-240" value="p.hand.cards[12] = 0&lt;br&gt;pfv.pshow[12] = &quot; &quot;" style="rounded=0;whiteSpace=wrap;html=1;" vertex="1" parent="bC43uHXILsUVz6L1ORMm-178">
          <mxGeometry x="186" y="1320" width="120" height="60" as="geometry" />
        </mxCell>
        <mxCell id="bC43uHXILsUVz6L1ORMm-241" style="edgeStyle=orthogonalEdgeStyle;rounded=0;orthogonalLoop=1;jettySize=auto;html=1;exitX=1;exitY=0.5;exitDx=0;exitDy=0;entryX=0;entryY=0.5;entryDx=0;entryDy=0;" edge="1" parent="bC43uHXILsUVz6L1ORMm-178" source="bC43uHXILsUVz6L1ORMm-238" target="bC43uHXILsUVz6L1ORMm-240">
          <mxGeometry relative="1" as="geometry" />
        </mxCell>
        <mxCell id="bC43uHXILsUVz6L1ORMm-242" style="edgeStyle=orthogonalEdgeStyle;rounded=0;orthogonalLoop=1;jettySize=auto;html=1;exitX=0.5;exitY=1;exitDx=0;exitDy=0;entryX=0.5;entryY=0;entryDx=0;entryDy=0;" edge="1" parent="bC43uHXILsUVz6L1ORMm-178" source="bC43uHXILsUVz6L1ORMm-243" target="bC43uHXILsUVz6L1ORMm-179">
          <mxGeometry relative="1" as="geometry" />
        </mxCell>
        <mxCell id="bC43uHXILsUVz6L1ORMm-243" value="Start unset" style="ellipse;whiteSpace=wrap;html=1;" vertex="1" parent="bC43uHXILsUVz6L1ORMm-178">
          <mxGeometry x="16" width="120" height="40" as="geometry" />
        </mxCell>
        <mxCell id="bC43uHXILsUVz6L1ORMm-244" value="End unset" style="ellipse;whiteSpace=wrap;html=1;" vertex="1" parent="bC43uHXILsUVz6L1ORMm-178">
          <mxGeometry x="186" y="1410" width="120" height="40" as="geometry" />
        </mxCell>
        <mxCell id="bC43uHXILsUVz6L1ORMm-245" style="edgeStyle=orthogonalEdgeStyle;rounded=0;orthogonalLoop=1;jettySize=auto;html=1;exitX=0.5;exitY=1;exitDx=0;exitDy=0;entryX=0;entryY=0.5;entryDx=0;entryDy=0;" edge="1" parent="bC43uHXILsUVz6L1ORMm-178" source="bC43uHXILsUVz6L1ORMm-238" target="bC43uHXILsUVz6L1ORMm-244">
          <mxGeometry relative="1" as="geometry" />
        </mxCell>
        <mxCell id="bC43uHXILsUVz6L1ORMm-246" style="edgeStyle=orthogonalEdgeStyle;rounded=0;orthogonalLoop=1;jettySize=auto;html=1;exitX=1;exitY=0.5;exitDx=0;exitDy=0;entryX=1;entryY=0.5;entryDx=0;entryDy=0;" edge="1" parent="bC43uHXILsUVz6L1ORMm-178" source="bC43uHXILsUVz6L1ORMm-240" target="bC43uHXILsUVz6L1ORMm-244">
          <mxGeometry relative="1" as="geometry" />
        </mxCell>
        <mxCell id="bC43uHXILsUVz6L1ORMm-247" value="Yes" style="text;html=1;strokeColor=none;fillColor=none;align=center;verticalAlign=middle;whiteSpace=wrap;rounded=0;" vertex="1" parent="bC43uHXILsUVz6L1ORMm-178">
          <mxGeometry x="126" y="80" width="60" height="30" as="geometry" />
        </mxCell>
        <mxCell id="bC43uHXILsUVz6L1ORMm-248" value="No" style="text;html=1;strokeColor=none;fillColor=none;align=center;verticalAlign=middle;whiteSpace=wrap;rounded=0;" vertex="1" parent="bC43uHXILsUVz6L1ORMm-178">
          <mxGeometry x="27.25" y="143" width="60" height="30" as="geometry" />
        </mxCell>
        <mxCell id="bC43uHXILsUVz6L1ORMm-249" value="No" style="text;html=1;strokeColor=none;fillColor=none;align=center;verticalAlign=middle;whiteSpace=wrap;rounded=0;" vertex="1" parent="bC43uHXILsUVz6L1ORMm-178">
          <mxGeometry x="27.25" y="247" width="60" height="30" as="geometry" />
        </mxCell>
        <mxCell id="bC43uHXILsUVz6L1ORMm-250" value="Yes" style="text;html=1;strokeColor=none;fillColor=none;align=center;verticalAlign=middle;whiteSpace=wrap;rounded=0;" vertex="1" parent="bC43uHXILsUVz6L1ORMm-178">
          <mxGeometry x="126" y="184" width="60" height="30" as="geometry" />
        </mxCell>
        <mxCell id="bC43uHXILsUVz6L1ORMm-251" value="No" style="text;html=1;strokeColor=none;fillColor=none;align=center;verticalAlign=middle;whiteSpace=wrap;rounded=0;" vertex="1" parent="bC43uHXILsUVz6L1ORMm-178">
          <mxGeometry x="27.25" y="350" width="60" height="30" as="geometry" />
        </mxCell>
        <mxCell id="bC43uHXILsUVz6L1ORMm-252" value="Yes" style="text;html=1;strokeColor=none;fillColor=none;align=center;verticalAlign=middle;whiteSpace=wrap;rounded=0;" vertex="1" parent="bC43uHXILsUVz6L1ORMm-178">
          <mxGeometry x="126" y="287" width="60" height="30" as="geometry" />
        </mxCell>
        <mxCell id="bC43uHXILsUVz6L1ORMm-253" value="No" style="text;html=1;strokeColor=none;fillColor=none;align=center;verticalAlign=middle;whiteSpace=wrap;rounded=0;" vertex="1" parent="bC43uHXILsUVz6L1ORMm-178">
          <mxGeometry x="27.25" y="454" width="60" height="30" as="geometry" />
        </mxCell>
        <mxCell id="bC43uHXILsUVz6L1ORMm-254" value="Yes" style="text;html=1;strokeColor=none;fillColor=none;align=center;verticalAlign=middle;whiteSpace=wrap;rounded=0;" vertex="1" parent="bC43uHXILsUVz6L1ORMm-178">
          <mxGeometry x="126" y="391" width="60" height="30" as="geometry" />
        </mxCell>
        <mxCell id="bC43uHXILsUVz6L1ORMm-255" value="No" style="text;html=1;strokeColor=none;fillColor=none;align=center;verticalAlign=middle;whiteSpace=wrap;rounded=0;" vertex="1" parent="bC43uHXILsUVz6L1ORMm-178">
          <mxGeometry x="27.25" y="556" width="60" height="30" as="geometry" />
        </mxCell>
        <mxCell id="bC43uHXILsUVz6L1ORMm-256" value="Yes" style="text;html=1;strokeColor=none;fillColor=none;align=center;verticalAlign=middle;whiteSpace=wrap;rounded=0;" vertex="1" parent="bC43uHXILsUVz6L1ORMm-178">
          <mxGeometry x="126" y="493" width="60" height="30" as="geometry" />
        </mxCell>
        <mxCell id="bC43uHXILsUVz6L1ORMm-257" value="No" style="text;html=1;strokeColor=none;fillColor=none;align=center;verticalAlign=middle;whiteSpace=wrap;rounded=0;" vertex="1" parent="bC43uHXILsUVz6L1ORMm-178">
          <mxGeometry x="27.25" y="660" width="60" height="30" as="geometry" />
        </mxCell>
        <mxCell id="bC43uHXILsUVz6L1ORMm-258" value="Yes" style="text;html=1;strokeColor=none;fillColor=none;align=center;verticalAlign=middle;whiteSpace=wrap;rounded=0;" vertex="1" parent="bC43uHXILsUVz6L1ORMm-178">
          <mxGeometry x="126" y="597" width="60" height="30" as="geometry" />
        </mxCell>
        <mxCell id="bC43uHXILsUVz6L1ORMm-259" value="No" style="text;html=1;strokeColor=none;fillColor=none;align=center;verticalAlign=middle;whiteSpace=wrap;rounded=0;" vertex="1" parent="bC43uHXILsUVz6L1ORMm-178">
          <mxGeometry x="29" y="763" width="60" height="30" as="geometry" />
        </mxCell>
        <mxCell id="bC43uHXILsUVz6L1ORMm-260" value="Yes" style="text;html=1;strokeColor=none;fillColor=none;align=center;verticalAlign=middle;whiteSpace=wrap;rounded=0;" vertex="1" parent="bC43uHXILsUVz6L1ORMm-178">
          <mxGeometry x="127.75" y="700" width="60" height="30" as="geometry" />
        </mxCell>
        <mxCell id="bC43uHXILsUVz6L1ORMm-261" value="No" style="text;html=1;strokeColor=none;fillColor=none;align=center;verticalAlign=middle;whiteSpace=wrap;rounded=0;" vertex="1" parent="bC43uHXILsUVz6L1ORMm-178">
          <mxGeometry x="29" y="867" width="60" height="30" as="geometry" />
        </mxCell>
        <mxCell id="bC43uHXILsUVz6L1ORMm-262" value="Yes" style="text;html=1;strokeColor=none;fillColor=none;align=center;verticalAlign=middle;whiteSpace=wrap;rounded=0;" vertex="1" parent="bC43uHXILsUVz6L1ORMm-178">
          <mxGeometry x="127.75" y="804" width="60" height="30" as="geometry" />
        </mxCell>
        <mxCell id="bC43uHXILsUVz6L1ORMm-263" value="No" style="text;html=1;strokeColor=none;fillColor=none;align=center;verticalAlign=middle;whiteSpace=wrap;rounded=0;" vertex="1" parent="bC43uHXILsUVz6L1ORMm-178">
          <mxGeometry x="29" y="969" width="60" height="30" as="geometry" />
        </mxCell>
        <mxCell id="bC43uHXILsUVz6L1ORMm-264" value="Yes" style="text;html=1;strokeColor=none;fillColor=none;align=center;verticalAlign=middle;whiteSpace=wrap;rounded=0;" vertex="1" parent="bC43uHXILsUVz6L1ORMm-178">
          <mxGeometry x="127.75" y="906" width="60" height="30" as="geometry" />
        </mxCell>
        <mxCell id="bC43uHXILsUVz6L1ORMm-265" value="No" style="text;html=1;strokeColor=none;fillColor=none;align=center;verticalAlign=middle;whiteSpace=wrap;rounded=0;" vertex="1" parent="bC43uHXILsUVz6L1ORMm-178">
          <mxGeometry x="29" y="1073" width="60" height="30" as="geometry" />
        </mxCell>
        <mxCell id="bC43uHXILsUVz6L1ORMm-266" value="Yes" style="text;html=1;strokeColor=none;fillColor=none;align=center;verticalAlign=middle;whiteSpace=wrap;rounded=0;" vertex="1" parent="bC43uHXILsUVz6L1ORMm-178">
          <mxGeometry x="127.75" y="1010" width="60" height="30" as="geometry" />
        </mxCell>
        <mxCell id="bC43uHXILsUVz6L1ORMm-267" value="No" style="text;html=1;strokeColor=none;fillColor=none;align=center;verticalAlign=middle;whiteSpace=wrap;rounded=0;" vertex="1" parent="bC43uHXILsUVz6L1ORMm-178">
          <mxGeometry x="29" y="1176" width="60" height="30" as="geometry" />
        </mxCell>
        <mxCell id="bC43uHXILsUVz6L1ORMm-268" value="Yes" style="text;html=1;strokeColor=none;fillColor=none;align=center;verticalAlign=middle;whiteSpace=wrap;rounded=0;" vertex="1" parent="bC43uHXILsUVz6L1ORMm-178">
          <mxGeometry x="127.75" y="1113" width="60" height="30" as="geometry" />
        </mxCell>
        <mxCell id="bC43uHXILsUVz6L1ORMm-269" value="No" style="text;html=1;strokeColor=none;fillColor=none;align=center;verticalAlign=middle;whiteSpace=wrap;rounded=0;" vertex="1" parent="bC43uHXILsUVz6L1ORMm-178">
          <mxGeometry x="29" y="1280" width="60" height="30" as="geometry" />
        </mxCell>
        <mxCell id="bC43uHXILsUVz6L1ORMm-270" value="Yes" style="text;html=1;strokeColor=none;fillColor=none;align=center;verticalAlign=middle;whiteSpace=wrap;rounded=0;" vertex="1" parent="bC43uHXILsUVz6L1ORMm-178">
          <mxGeometry x="127.75" y="1217" width="60" height="30" as="geometry" />
        </mxCell>
        <mxCell id="bC43uHXILsUVz6L1ORMm-271" value="No" style="text;html=1;strokeColor=none;fillColor=none;align=center;verticalAlign=middle;whiteSpace=wrap;rounded=0;" vertex="1" parent="bC43uHXILsUVz6L1ORMm-178">
          <mxGeometry x="27.25" y="1390" width="60" height="30" as="geometry" />
        </mxCell>
        <mxCell id="bC43uHXILsUVz6L1ORMm-272" value="Yes" style="text;html=1;strokeColor=none;fillColor=none;align=center;verticalAlign=middle;whiteSpace=wrap;rounded=0;" vertex="1" parent="bC43uHXILsUVz6L1ORMm-178">
          <mxGeometry x="127.75" y="1320" width="60" height="30" as="geometry" />
        </mxCell>
        <mxCell id="bC43uHXILsUVz6L1ORMm-273" value="" style="group" vertex="1" connectable="0" parent="1">
          <mxGeometry x="1750" y="-1060" width="326" height="1450" as="geometry" />
        </mxCell>
        <mxCell id="bC43uHXILsUVz6L1ORMm-274" value="&lt;font style=&quot;&quot;&gt;&lt;font style=&quot;font-size: 12px;&quot;&gt;p.choice == 1 ?&lt;/font&gt;&lt;br&gt;&lt;/font&gt;" style="rhombus;whiteSpace=wrap;html=1;" vertex="1" parent="bC43uHXILsUVz6L1ORMm-273">
          <mxGeometry y="70" width="150" height="80" as="geometry" />
        </mxCell>
        <mxCell id="bC43uHXILsUVz6L1ORMm-275" style="edgeStyle=orthogonalEdgeStyle;rounded=0;orthogonalLoop=1;jettySize=auto;html=1;exitX=1;exitY=0.5;exitDx=0;exitDy=0;" edge="1" parent="bC43uHXILsUVz6L1ORMm-273" source="bC43uHXILsUVz6L1ORMm-276">
          <mxGeometry relative="1" as="geometry">
            <mxPoint x="326" y="220" as="targetPoint" />
          </mxGeometry>
        </mxCell>
        <mxCell id="bC43uHXILsUVz6L1ORMm-276" value="p.choice = p.hand.cards[0]" style="rounded=0;whiteSpace=wrap;html=1;" vertex="1" parent="bC43uHXILsUVz6L1ORMm-273">
          <mxGeometry x="186" y="80" width="120" height="60" as="geometry" />
        </mxCell>
        <mxCell id="bC43uHXILsUVz6L1ORMm-277" style="edgeStyle=orthogonalEdgeStyle;rounded=0;orthogonalLoop=1;jettySize=auto;html=1;exitX=1;exitY=0.5;exitDx=0;exitDy=0;entryX=0;entryY=0.5;entryDx=0;entryDy=0;" edge="1" parent="bC43uHXILsUVz6L1ORMm-273" source="bC43uHXILsUVz6L1ORMm-274" target="bC43uHXILsUVz6L1ORMm-276">
          <mxGeometry relative="1" as="geometry" />
        </mxCell>
        <mxCell id="bC43uHXILsUVz6L1ORMm-278" value="&lt;font style=&quot;&quot;&gt;&lt;font style=&quot;font-size: 12px;&quot;&gt;p.choice == 2 ?&lt;/font&gt;&lt;br&gt;&lt;/font&gt;" style="rhombus;whiteSpace=wrap;html=1;" vertex="1" parent="bC43uHXILsUVz6L1ORMm-273">
          <mxGeometry y="173" width="150" height="80" as="geometry" />
        </mxCell>
        <mxCell id="bC43uHXILsUVz6L1ORMm-279" style="edgeStyle=orthogonalEdgeStyle;rounded=0;orthogonalLoop=1;jettySize=auto;html=1;exitX=0.5;exitY=1;exitDx=0;exitDy=0;entryX=0.5;entryY=0;entryDx=0;entryDy=0;" edge="1" parent="bC43uHXILsUVz6L1ORMm-273" source="bC43uHXILsUVz6L1ORMm-274" target="bC43uHXILsUVz6L1ORMm-278">
          <mxGeometry relative="1" as="geometry" />
        </mxCell>
        <mxCell id="bC43uHXILsUVz6L1ORMm-280" style="edgeStyle=orthogonalEdgeStyle;rounded=0;orthogonalLoop=1;jettySize=auto;html=1;exitX=1;exitY=0.5;exitDx=0;exitDy=0;" edge="1" parent="bC43uHXILsUVz6L1ORMm-273" source="bC43uHXILsUVz6L1ORMm-281">
          <mxGeometry relative="1" as="geometry">
            <mxPoint x="326" y="320" as="targetPoint" />
          </mxGeometry>
        </mxCell>
        <mxCell id="bC43uHXILsUVz6L1ORMm-281" value="p.choice = p.hand.cards[1]" style="rounded=0;whiteSpace=wrap;html=1;" vertex="1" parent="bC43uHXILsUVz6L1ORMm-273">
          <mxGeometry x="186" y="183" width="120" height="60" as="geometry" />
        </mxCell>
        <mxCell id="bC43uHXILsUVz6L1ORMm-282" style="edgeStyle=orthogonalEdgeStyle;rounded=0;orthogonalLoop=1;jettySize=auto;html=1;exitX=1;exitY=0.5;exitDx=0;exitDy=0;entryX=0;entryY=0.5;entryDx=0;entryDy=0;" edge="1" parent="bC43uHXILsUVz6L1ORMm-273" source="bC43uHXILsUVz6L1ORMm-278" target="bC43uHXILsUVz6L1ORMm-281">
          <mxGeometry relative="1" as="geometry" />
        </mxCell>
        <mxCell id="bC43uHXILsUVz6L1ORMm-283" value="&lt;font style=&quot;&quot;&gt;&lt;font style=&quot;font-size: 12px;&quot;&gt;p.choice == 3 ?&lt;/font&gt;&lt;br&gt;&lt;/font&gt;" style="rhombus;whiteSpace=wrap;html=1;" vertex="1" parent="bC43uHXILsUVz6L1ORMm-273">
          <mxGeometry y="277" width="150" height="80" as="geometry" />
        </mxCell>
        <mxCell id="bC43uHXILsUVz6L1ORMm-284" style="edgeStyle=orthogonalEdgeStyle;rounded=0;orthogonalLoop=1;jettySize=auto;html=1;exitX=0.5;exitY=1;exitDx=0;exitDy=0;entryX=0.5;entryY=0;entryDx=0;entryDy=0;" edge="1" parent="bC43uHXILsUVz6L1ORMm-273" source="bC43uHXILsUVz6L1ORMm-278" target="bC43uHXILsUVz6L1ORMm-283">
          <mxGeometry relative="1" as="geometry" />
        </mxCell>
        <mxCell id="bC43uHXILsUVz6L1ORMm-285" style="edgeStyle=orthogonalEdgeStyle;rounded=0;orthogonalLoop=1;jettySize=auto;html=1;exitX=1;exitY=0.5;exitDx=0;exitDy=0;" edge="1" parent="bC43uHXILsUVz6L1ORMm-273" source="bC43uHXILsUVz6L1ORMm-286">
          <mxGeometry relative="1" as="geometry">
            <mxPoint x="326" y="420" as="targetPoint" />
          </mxGeometry>
        </mxCell>
        <mxCell id="bC43uHXILsUVz6L1ORMm-286" value="p.choice = p.hand.cards[2]" style="rounded=0;whiteSpace=wrap;html=1;" vertex="1" parent="bC43uHXILsUVz6L1ORMm-273">
          <mxGeometry x="186" y="287" width="120" height="60" as="geometry" />
        </mxCell>
        <mxCell id="bC43uHXILsUVz6L1ORMm-287" style="edgeStyle=orthogonalEdgeStyle;rounded=0;orthogonalLoop=1;jettySize=auto;html=1;exitX=1;exitY=0.5;exitDx=0;exitDy=0;entryX=0;entryY=0.5;entryDx=0;entryDy=0;" edge="1" parent="bC43uHXILsUVz6L1ORMm-273" source="bC43uHXILsUVz6L1ORMm-283" target="bC43uHXILsUVz6L1ORMm-286">
          <mxGeometry relative="1" as="geometry" />
        </mxCell>
        <mxCell id="bC43uHXILsUVz6L1ORMm-288" value="&lt;font style=&quot;font-size: 12px;&quot;&gt;p.choice == 4 ?&lt;br&gt;&lt;/font&gt;" style="rhombus;whiteSpace=wrap;html=1;" vertex="1" parent="bC43uHXILsUVz6L1ORMm-273">
          <mxGeometry y="380" width="150" height="80" as="geometry" />
        </mxCell>
        <mxCell id="bC43uHXILsUVz6L1ORMm-289" style="edgeStyle=orthogonalEdgeStyle;rounded=0;orthogonalLoop=1;jettySize=auto;html=1;exitX=0.5;exitY=1;exitDx=0;exitDy=0;entryX=0.5;entryY=0;entryDx=0;entryDy=0;" edge="1" parent="bC43uHXILsUVz6L1ORMm-273" source="bC43uHXILsUVz6L1ORMm-283" target="bC43uHXILsUVz6L1ORMm-288">
          <mxGeometry relative="1" as="geometry" />
        </mxCell>
        <mxCell id="bC43uHXILsUVz6L1ORMm-290" style="edgeStyle=orthogonalEdgeStyle;rounded=0;orthogonalLoop=1;jettySize=auto;html=1;exitX=1;exitY=0.5;exitDx=0;exitDy=0;" edge="1" parent="bC43uHXILsUVz6L1ORMm-273" source="bC43uHXILsUVz6L1ORMm-291">
          <mxGeometry relative="1" as="geometry">
            <mxPoint x="326" y="530" as="targetPoint" />
          </mxGeometry>
        </mxCell>
        <mxCell id="bC43uHXILsUVz6L1ORMm-291" value="p.choice = p.hand.cards[3]" style="rounded=0;whiteSpace=wrap;html=1;" vertex="1" parent="bC43uHXILsUVz6L1ORMm-273">
          <mxGeometry x="186" y="390" width="120" height="60" as="geometry" />
        </mxCell>
        <mxCell id="bC43uHXILsUVz6L1ORMm-292" style="edgeStyle=orthogonalEdgeStyle;rounded=0;orthogonalLoop=1;jettySize=auto;html=1;exitX=1;exitY=0.5;exitDx=0;exitDy=0;entryX=0;entryY=0.5;entryDx=0;entryDy=0;" edge="1" parent="bC43uHXILsUVz6L1ORMm-273" source="bC43uHXILsUVz6L1ORMm-288" target="bC43uHXILsUVz6L1ORMm-291">
          <mxGeometry relative="1" as="geometry" />
        </mxCell>
        <mxCell id="bC43uHXILsUVz6L1ORMm-293" value="&lt;font style=&quot;&quot;&gt;&lt;font style=&quot;font-size: 12px;&quot;&gt;p.choice == 5 ?&lt;/font&gt;&lt;br&gt;&lt;/font&gt;" style="rhombus;whiteSpace=wrap;html=1;" vertex="1" parent="bC43uHXILsUVz6L1ORMm-273">
          <mxGeometry y="483" width="150" height="80" as="geometry" />
        </mxCell>
        <mxCell id="bC43uHXILsUVz6L1ORMm-294" style="edgeStyle=orthogonalEdgeStyle;rounded=0;orthogonalLoop=1;jettySize=auto;html=1;exitX=0.5;exitY=1;exitDx=0;exitDy=0;entryX=0.5;entryY=0;entryDx=0;entryDy=0;" edge="1" parent="bC43uHXILsUVz6L1ORMm-273" source="bC43uHXILsUVz6L1ORMm-288" target="bC43uHXILsUVz6L1ORMm-293">
          <mxGeometry relative="1" as="geometry" />
        </mxCell>
        <mxCell id="bC43uHXILsUVz6L1ORMm-295" style="edgeStyle=orthogonalEdgeStyle;rounded=0;orthogonalLoop=1;jettySize=auto;html=1;exitX=1;exitY=0.5;exitDx=0;exitDy=0;" edge="1" parent="bC43uHXILsUVz6L1ORMm-273" source="bC43uHXILsUVz6L1ORMm-296">
          <mxGeometry relative="1" as="geometry">
            <mxPoint x="326" y="630" as="targetPoint" />
          </mxGeometry>
        </mxCell>
        <mxCell id="bC43uHXILsUVz6L1ORMm-296" value="p.choice = p.hand.cards[4]" style="rounded=0;whiteSpace=wrap;html=1;" vertex="1" parent="bC43uHXILsUVz6L1ORMm-273">
          <mxGeometry x="186" y="493" width="120" height="60" as="geometry" />
        </mxCell>
        <mxCell id="bC43uHXILsUVz6L1ORMm-297" style="edgeStyle=orthogonalEdgeStyle;rounded=0;orthogonalLoop=1;jettySize=auto;html=1;exitX=1;exitY=0.5;exitDx=0;exitDy=0;entryX=0;entryY=0.5;entryDx=0;entryDy=0;" edge="1" parent="bC43uHXILsUVz6L1ORMm-273" source="bC43uHXILsUVz6L1ORMm-293" target="bC43uHXILsUVz6L1ORMm-296">
          <mxGeometry relative="1" as="geometry" />
        </mxCell>
        <mxCell id="bC43uHXILsUVz6L1ORMm-298" value="&lt;font style=&quot;font-size: 12px;&quot;&gt;p.choice == 6 ?&lt;br&gt;&lt;/font&gt;" style="rhombus;whiteSpace=wrap;html=1;" vertex="1" parent="bC43uHXILsUVz6L1ORMm-273">
          <mxGeometry y="587" width="150" height="80" as="geometry" />
        </mxCell>
        <mxCell id="bC43uHXILsUVz6L1ORMm-299" style="edgeStyle=orthogonalEdgeStyle;rounded=0;orthogonalLoop=1;jettySize=auto;html=1;exitX=0.5;exitY=1;exitDx=0;exitDy=0;entryX=0.5;entryY=0;entryDx=0;entryDy=0;" edge="1" parent="bC43uHXILsUVz6L1ORMm-273" source="bC43uHXILsUVz6L1ORMm-293" target="bC43uHXILsUVz6L1ORMm-298">
          <mxGeometry relative="1" as="geometry" />
        </mxCell>
        <mxCell id="bC43uHXILsUVz6L1ORMm-300" style="edgeStyle=orthogonalEdgeStyle;rounded=0;orthogonalLoop=1;jettySize=auto;html=1;exitX=1;exitY=0.5;exitDx=0;exitDy=0;" edge="1" parent="bC43uHXILsUVz6L1ORMm-273" source="bC43uHXILsUVz6L1ORMm-301">
          <mxGeometry relative="1" as="geometry">
            <mxPoint x="326" y="730" as="targetPoint" />
          </mxGeometry>
        </mxCell>
        <mxCell id="bC43uHXILsUVz6L1ORMm-301" value="p.choice = p.hand.cards[5]" style="rounded=0;whiteSpace=wrap;html=1;" vertex="1" parent="bC43uHXILsUVz6L1ORMm-273">
          <mxGeometry x="186" y="597" width="120" height="60" as="geometry" />
        </mxCell>
        <mxCell id="bC43uHXILsUVz6L1ORMm-302" style="edgeStyle=orthogonalEdgeStyle;rounded=0;orthogonalLoop=1;jettySize=auto;html=1;exitX=1;exitY=0.5;exitDx=0;exitDy=0;entryX=0;entryY=0.5;entryDx=0;entryDy=0;" edge="1" parent="bC43uHXILsUVz6L1ORMm-273" source="bC43uHXILsUVz6L1ORMm-298" target="bC43uHXILsUVz6L1ORMm-301">
          <mxGeometry relative="1" as="geometry" />
        </mxCell>
        <mxCell id="bC43uHXILsUVz6L1ORMm-303" value="&lt;font style=&quot;font-size: 12px;&quot;&gt;p.choice == 7 ?&lt;br&gt;&lt;/font&gt;" style="rhombus;whiteSpace=wrap;html=1;" vertex="1" parent="bC43uHXILsUVz6L1ORMm-273">
          <mxGeometry y="690" width="150" height="80" as="geometry" />
        </mxCell>
        <mxCell id="bC43uHXILsUVz6L1ORMm-304" style="edgeStyle=orthogonalEdgeStyle;rounded=0;orthogonalLoop=1;jettySize=auto;html=1;exitX=0.5;exitY=1;exitDx=0;exitDy=0;entryX=0.5;entryY=0;entryDx=0;entryDy=0;" edge="1" parent="bC43uHXILsUVz6L1ORMm-273" source="bC43uHXILsUVz6L1ORMm-298" target="bC43uHXILsUVz6L1ORMm-303">
          <mxGeometry relative="1" as="geometry" />
        </mxCell>
        <mxCell id="bC43uHXILsUVz6L1ORMm-305" style="edgeStyle=orthogonalEdgeStyle;rounded=0;orthogonalLoop=1;jettySize=auto;html=1;exitX=1;exitY=0.5;exitDx=0;exitDy=0;" edge="1" parent="bC43uHXILsUVz6L1ORMm-273" source="bC43uHXILsUVz6L1ORMm-306">
          <mxGeometry relative="1" as="geometry">
            <mxPoint x="326" y="840" as="targetPoint" />
          </mxGeometry>
        </mxCell>
        <mxCell id="bC43uHXILsUVz6L1ORMm-306" value="p.choice = p.hand.cards[6]" style="rounded=0;whiteSpace=wrap;html=1;" vertex="1" parent="bC43uHXILsUVz6L1ORMm-273">
          <mxGeometry x="186" y="700" width="120" height="60" as="geometry" />
        </mxCell>
        <mxCell id="bC43uHXILsUVz6L1ORMm-307" style="edgeStyle=orthogonalEdgeStyle;rounded=0;orthogonalLoop=1;jettySize=auto;html=1;exitX=1;exitY=0.5;exitDx=0;exitDy=0;entryX=0;entryY=0.5;entryDx=0;entryDy=0;" edge="1" parent="bC43uHXILsUVz6L1ORMm-273" source="bC43uHXILsUVz6L1ORMm-303" target="bC43uHXILsUVz6L1ORMm-306">
          <mxGeometry relative="1" as="geometry" />
        </mxCell>
        <mxCell id="bC43uHXILsUVz6L1ORMm-308" value="&lt;font style=&quot;&quot;&gt;&lt;font style=&quot;font-size: 12px;&quot;&gt;p.choice == 8 ?&lt;/font&gt;&lt;br&gt;&lt;/font&gt;" style="rhombus;whiteSpace=wrap;html=1;" vertex="1" parent="bC43uHXILsUVz6L1ORMm-273">
          <mxGeometry y="793" width="150" height="80" as="geometry" />
        </mxCell>
        <mxCell id="bC43uHXILsUVz6L1ORMm-309" style="edgeStyle=orthogonalEdgeStyle;rounded=0;orthogonalLoop=1;jettySize=auto;html=1;exitX=0.5;exitY=1;exitDx=0;exitDy=0;entryX=0.5;entryY=0;entryDx=0;entryDy=0;" edge="1" parent="bC43uHXILsUVz6L1ORMm-273" source="bC43uHXILsUVz6L1ORMm-303" target="bC43uHXILsUVz6L1ORMm-308">
          <mxGeometry relative="1" as="geometry" />
        </mxCell>
        <mxCell id="bC43uHXILsUVz6L1ORMm-310" style="edgeStyle=orthogonalEdgeStyle;rounded=0;orthogonalLoop=1;jettySize=auto;html=1;exitX=1;exitY=0.5;exitDx=0;exitDy=0;" edge="1" parent="bC43uHXILsUVz6L1ORMm-273" source="bC43uHXILsUVz6L1ORMm-311">
          <mxGeometry relative="1" as="geometry">
            <mxPoint x="326" y="939.9999999999995" as="targetPoint" />
          </mxGeometry>
        </mxCell>
        <mxCell id="bC43uHXILsUVz6L1ORMm-311" value="p.choice = p.hand.cards[7]" style="rounded=0;whiteSpace=wrap;html=1;" vertex="1" parent="bC43uHXILsUVz6L1ORMm-273">
          <mxGeometry x="186" y="803" width="120" height="60" as="geometry" />
        </mxCell>
        <mxCell id="bC43uHXILsUVz6L1ORMm-312" style="edgeStyle=orthogonalEdgeStyle;rounded=0;orthogonalLoop=1;jettySize=auto;html=1;exitX=1;exitY=0.5;exitDx=0;exitDy=0;entryX=0;entryY=0.5;entryDx=0;entryDy=0;" edge="1" parent="bC43uHXILsUVz6L1ORMm-273" source="bC43uHXILsUVz6L1ORMm-308" target="bC43uHXILsUVz6L1ORMm-311">
          <mxGeometry relative="1" as="geometry" />
        </mxCell>
        <mxCell id="bC43uHXILsUVz6L1ORMm-313" value="&lt;font style=&quot;font-size: 12px;&quot;&gt;p.choice == 9?&lt;br&gt;&lt;/font&gt;" style="rhombus;whiteSpace=wrap;html=1;" vertex="1" parent="bC43uHXILsUVz6L1ORMm-273">
          <mxGeometry y="897" width="150" height="80" as="geometry" />
        </mxCell>
        <mxCell id="bC43uHXILsUVz6L1ORMm-314" style="edgeStyle=orthogonalEdgeStyle;rounded=0;orthogonalLoop=1;jettySize=auto;html=1;exitX=0.5;exitY=1;exitDx=0;exitDy=0;entryX=0.5;entryY=0;entryDx=0;entryDy=0;" edge="1" parent="bC43uHXILsUVz6L1ORMm-273" source="bC43uHXILsUVz6L1ORMm-308" target="bC43uHXILsUVz6L1ORMm-313">
          <mxGeometry relative="1" as="geometry" />
        </mxCell>
        <mxCell id="bC43uHXILsUVz6L1ORMm-315" style="edgeStyle=orthogonalEdgeStyle;rounded=0;orthogonalLoop=1;jettySize=auto;html=1;exitX=1;exitY=0.5;exitDx=0;exitDy=0;" edge="1" parent="bC43uHXILsUVz6L1ORMm-273" source="bC43uHXILsUVz6L1ORMm-316">
          <mxGeometry relative="1" as="geometry">
            <mxPoint x="326" y="1040" as="targetPoint" />
          </mxGeometry>
        </mxCell>
        <mxCell id="bC43uHXILsUVz6L1ORMm-316" value="p.choice = p.hand.cards[8]" style="rounded=0;whiteSpace=wrap;html=1;" vertex="1" parent="bC43uHXILsUVz6L1ORMm-273">
          <mxGeometry x="186" y="907" width="120" height="60" as="geometry" />
        </mxCell>
        <mxCell id="bC43uHXILsUVz6L1ORMm-317" style="edgeStyle=orthogonalEdgeStyle;rounded=0;orthogonalLoop=1;jettySize=auto;html=1;exitX=1;exitY=0.5;exitDx=0;exitDy=0;entryX=0;entryY=0.5;entryDx=0;entryDy=0;" edge="1" parent="bC43uHXILsUVz6L1ORMm-273" source="bC43uHXILsUVz6L1ORMm-313" target="bC43uHXILsUVz6L1ORMm-316">
          <mxGeometry relative="1" as="geometry" />
        </mxCell>
        <mxCell id="bC43uHXILsUVz6L1ORMm-318" value="&lt;font style=&quot;font-size: 12px;&quot;&gt;p.choice == 10 ?&lt;br&gt;&lt;/font&gt;" style="rhombus;whiteSpace=wrap;html=1;" vertex="1" parent="bC43uHXILsUVz6L1ORMm-273">
          <mxGeometry y="1000" width="150" height="80" as="geometry" />
        </mxCell>
        <mxCell id="bC43uHXILsUVz6L1ORMm-319" style="edgeStyle=orthogonalEdgeStyle;rounded=0;orthogonalLoop=1;jettySize=auto;html=1;exitX=0.5;exitY=1;exitDx=0;exitDy=0;entryX=0.5;entryY=0;entryDx=0;entryDy=0;" edge="1" parent="bC43uHXILsUVz6L1ORMm-273" source="bC43uHXILsUVz6L1ORMm-313" target="bC43uHXILsUVz6L1ORMm-318">
          <mxGeometry relative="1" as="geometry" />
        </mxCell>
        <mxCell id="bC43uHXILsUVz6L1ORMm-320" style="edgeStyle=orthogonalEdgeStyle;rounded=0;orthogonalLoop=1;jettySize=auto;html=1;exitX=1;exitY=0.5;exitDx=0;exitDy=0;" edge="1" parent="bC43uHXILsUVz6L1ORMm-273" source="bC43uHXILsUVz6L1ORMm-321">
          <mxGeometry relative="1" as="geometry">
            <mxPoint x="326" y="1149.9999999999995" as="targetPoint" />
          </mxGeometry>
        </mxCell>
        <mxCell id="bC43uHXILsUVz6L1ORMm-321" value="p.choice = p.hand.cards[9]" style="rounded=0;whiteSpace=wrap;html=1;" vertex="1" parent="bC43uHXILsUVz6L1ORMm-273">
          <mxGeometry x="186" y="1010" width="120" height="60" as="geometry" />
        </mxCell>
        <mxCell id="bC43uHXILsUVz6L1ORMm-322" style="edgeStyle=orthogonalEdgeStyle;rounded=0;orthogonalLoop=1;jettySize=auto;html=1;exitX=1;exitY=0.5;exitDx=0;exitDy=0;entryX=0;entryY=0.5;entryDx=0;entryDy=0;" edge="1" parent="bC43uHXILsUVz6L1ORMm-273" source="bC43uHXILsUVz6L1ORMm-318" target="bC43uHXILsUVz6L1ORMm-321">
          <mxGeometry relative="1" as="geometry" />
        </mxCell>
        <mxCell id="bC43uHXILsUVz6L1ORMm-323" value="&lt;font style=&quot;font-size: 12px;&quot;&gt;p.choice == 11 ?&lt;br&gt;&lt;/font&gt;" style="rhombus;whiteSpace=wrap;html=1;" vertex="1" parent="bC43uHXILsUVz6L1ORMm-273">
          <mxGeometry y="1103" width="150" height="80" as="geometry" />
        </mxCell>
        <mxCell id="bC43uHXILsUVz6L1ORMm-324" style="edgeStyle=orthogonalEdgeStyle;rounded=0;orthogonalLoop=1;jettySize=auto;html=1;exitX=0.5;exitY=1;exitDx=0;exitDy=0;entryX=0.5;entryY=0;entryDx=0;entryDy=0;" edge="1" parent="bC43uHXILsUVz6L1ORMm-273" source="bC43uHXILsUVz6L1ORMm-318" target="bC43uHXILsUVz6L1ORMm-323">
          <mxGeometry relative="1" as="geometry" />
        </mxCell>
        <mxCell id="bC43uHXILsUVz6L1ORMm-325" style="edgeStyle=orthogonalEdgeStyle;rounded=0;orthogonalLoop=1;jettySize=auto;html=1;exitX=1;exitY=0.5;exitDx=0;exitDy=0;" edge="1" parent="bC43uHXILsUVz6L1ORMm-273" source="bC43uHXILsUVz6L1ORMm-326">
          <mxGeometry relative="1" as="geometry">
            <mxPoint x="326" y="1250" as="targetPoint" />
          </mxGeometry>
        </mxCell>
        <mxCell id="bC43uHXILsUVz6L1ORMm-326" value="p.choice = p.hand.cards[10]" style="rounded=0;whiteSpace=wrap;html=1;" vertex="1" parent="bC43uHXILsUVz6L1ORMm-273">
          <mxGeometry x="186" y="1113" width="120" height="60" as="geometry" />
        </mxCell>
        <mxCell id="bC43uHXILsUVz6L1ORMm-327" value="" style="edgeStyle=orthogonalEdgeStyle;rounded=0;orthogonalLoop=1;jettySize=auto;html=1;" edge="1" parent="bC43uHXILsUVz6L1ORMm-273" source="bC43uHXILsUVz6L1ORMm-323" target="bC43uHXILsUVz6L1ORMm-326">
          <mxGeometry relative="1" as="geometry" />
        </mxCell>
        <mxCell id="bC43uHXILsUVz6L1ORMm-328" value="&lt;font style=&quot;font-size: 12px;&quot;&gt;p.choice == 12 ?&lt;br&gt;&lt;/font&gt;" style="rhombus;whiteSpace=wrap;html=1;" vertex="1" parent="bC43uHXILsUVz6L1ORMm-273">
          <mxGeometry y="1207" width="150" height="80" as="geometry" />
        </mxCell>
        <mxCell id="bC43uHXILsUVz6L1ORMm-329" style="edgeStyle=orthogonalEdgeStyle;rounded=0;orthogonalLoop=1;jettySize=auto;html=1;exitX=0.5;exitY=1;exitDx=0;exitDy=0;entryX=0.5;entryY=0;entryDx=0;entryDy=0;" edge="1" parent="bC43uHXILsUVz6L1ORMm-273" source="bC43uHXILsUVz6L1ORMm-323" target="bC43uHXILsUVz6L1ORMm-328">
          <mxGeometry relative="1" as="geometry" />
        </mxCell>
        <mxCell id="bC43uHXILsUVz6L1ORMm-330" style="edgeStyle=orthogonalEdgeStyle;rounded=0;orthogonalLoop=1;jettySize=auto;html=1;exitX=1;exitY=0.5;exitDx=0;exitDy=0;" edge="1" parent="bC43uHXILsUVz6L1ORMm-273" source="bC43uHXILsUVz6L1ORMm-331">
          <mxGeometry relative="1" as="geometry">
            <mxPoint x="326" y="1350" as="targetPoint" />
          </mxGeometry>
        </mxCell>
        <mxCell id="bC43uHXILsUVz6L1ORMm-331" value="p.choice = p.hand.cards[11]" style="rounded=0;whiteSpace=wrap;html=1;" vertex="1" parent="bC43uHXILsUVz6L1ORMm-273">
          <mxGeometry x="186" y="1217" width="120" height="60" as="geometry" />
        </mxCell>
        <mxCell id="bC43uHXILsUVz6L1ORMm-332" style="edgeStyle=orthogonalEdgeStyle;rounded=0;orthogonalLoop=1;jettySize=auto;html=1;exitX=1;exitY=0.5;exitDx=0;exitDy=0;entryX=0;entryY=0.5;entryDx=0;entryDy=0;" edge="1" parent="bC43uHXILsUVz6L1ORMm-273" source="bC43uHXILsUVz6L1ORMm-328" target="bC43uHXILsUVz6L1ORMm-331">
          <mxGeometry relative="1" as="geometry" />
        </mxCell>
        <mxCell id="bC43uHXILsUVz6L1ORMm-333" value="&lt;font style=&quot;&quot;&gt;&lt;font style=&quot;font-size: 12px;&quot;&gt;(else p.choice == 13)&lt;/font&gt;&lt;br&gt;&lt;/font&gt;" style="rhombus;whiteSpace=wrap;html=1;" vertex="1" parent="bC43uHXILsUVz6L1ORMm-273">
          <mxGeometry y="1310" width="150" height="80" as="geometry" />
        </mxCell>
        <mxCell id="bC43uHXILsUVz6L1ORMm-334" style="edgeStyle=orthogonalEdgeStyle;rounded=0;orthogonalLoop=1;jettySize=auto;html=1;exitX=0.5;exitY=1;exitDx=0;exitDy=0;entryX=0.5;entryY=0;entryDx=0;entryDy=0;" edge="1" parent="bC43uHXILsUVz6L1ORMm-273" source="bC43uHXILsUVz6L1ORMm-328" target="bC43uHXILsUVz6L1ORMm-333">
          <mxGeometry relative="1" as="geometry" />
        </mxCell>
        <mxCell id="bC43uHXILsUVz6L1ORMm-335" value="p.choice = p.hand.cards[12]" style="rounded=0;whiteSpace=wrap;html=1;" vertex="1" parent="bC43uHXILsUVz6L1ORMm-273">
          <mxGeometry x="186" y="1320" width="120" height="60" as="geometry" />
        </mxCell>
        <mxCell id="bC43uHXILsUVz6L1ORMm-336" style="edgeStyle=orthogonalEdgeStyle;rounded=0;orthogonalLoop=1;jettySize=auto;html=1;exitX=1;exitY=0.5;exitDx=0;exitDy=0;entryX=0;entryY=0.5;entryDx=0;entryDy=0;" edge="1" parent="bC43uHXILsUVz6L1ORMm-273" source="bC43uHXILsUVz6L1ORMm-333" target="bC43uHXILsUVz6L1ORMm-335">
          <mxGeometry relative="1" as="geometry" />
        </mxCell>
        <mxCell id="bC43uHXILsUVz6L1ORMm-337" style="edgeStyle=orthogonalEdgeStyle;rounded=0;orthogonalLoop=1;jettySize=auto;html=1;exitX=0.5;exitY=1;exitDx=0;exitDy=0;entryX=0.5;entryY=0;entryDx=0;entryDy=0;" edge="1" parent="bC43uHXILsUVz6L1ORMm-273" source="bC43uHXILsUVz6L1ORMm-338" target="bC43uHXILsUVz6L1ORMm-274">
          <mxGeometry relative="1" as="geometry" />
        </mxCell>
        <mxCell id="bC43uHXILsUVz6L1ORMm-338" value="Start set" style="ellipse;whiteSpace=wrap;html=1;" vertex="1" parent="bC43uHXILsUVz6L1ORMm-273">
          <mxGeometry x="16" width="120" height="40" as="geometry" />
        </mxCell>
        <mxCell id="bC43uHXILsUVz6L1ORMm-339" value="End set" style="ellipse;whiteSpace=wrap;html=1;" vertex="1" parent="bC43uHXILsUVz6L1ORMm-273">
          <mxGeometry x="186" y="1410" width="120" height="40" as="geometry" />
        </mxCell>
        <mxCell id="bC43uHXILsUVz6L1ORMm-340" style="edgeStyle=orthogonalEdgeStyle;rounded=0;orthogonalLoop=1;jettySize=auto;html=1;exitX=1;exitY=0.5;exitDx=0;exitDy=0;entryX=1;entryY=0.5;entryDx=0;entryDy=0;" edge="1" parent="bC43uHXILsUVz6L1ORMm-273" source="bC43uHXILsUVz6L1ORMm-335" target="bC43uHXILsUVz6L1ORMm-339">
          <mxGeometry relative="1" as="geometry" />
        </mxCell>
        <mxCell id="bC43uHXILsUVz6L1ORMm-341" value="Yes" style="text;html=1;strokeColor=none;fillColor=none;align=center;verticalAlign=middle;whiteSpace=wrap;rounded=0;" vertex="1" parent="bC43uHXILsUVz6L1ORMm-273">
          <mxGeometry x="126" y="80" width="60" height="30" as="geometry" />
        </mxCell>
        <mxCell id="bC43uHXILsUVz6L1ORMm-342" value="No" style="text;html=1;strokeColor=none;fillColor=none;align=center;verticalAlign=middle;whiteSpace=wrap;rounded=0;" vertex="1" parent="bC43uHXILsUVz6L1ORMm-273">
          <mxGeometry x="27.25" y="143" width="60" height="30" as="geometry" />
        </mxCell>
        <mxCell id="bC43uHXILsUVz6L1ORMm-343" value="No" style="text;html=1;strokeColor=none;fillColor=none;align=center;verticalAlign=middle;whiteSpace=wrap;rounded=0;" vertex="1" parent="bC43uHXILsUVz6L1ORMm-273">
          <mxGeometry x="27.25" y="247" width="60" height="30" as="geometry" />
        </mxCell>
        <mxCell id="bC43uHXILsUVz6L1ORMm-344" value="Yes" style="text;html=1;strokeColor=none;fillColor=none;align=center;verticalAlign=middle;whiteSpace=wrap;rounded=0;" vertex="1" parent="bC43uHXILsUVz6L1ORMm-273">
          <mxGeometry x="126" y="184" width="60" height="30" as="geometry" />
        </mxCell>
        <mxCell id="bC43uHXILsUVz6L1ORMm-345" value="No" style="text;html=1;strokeColor=none;fillColor=none;align=center;verticalAlign=middle;whiteSpace=wrap;rounded=0;" vertex="1" parent="bC43uHXILsUVz6L1ORMm-273">
          <mxGeometry x="27.25" y="350" width="60" height="30" as="geometry" />
        </mxCell>
        <mxCell id="bC43uHXILsUVz6L1ORMm-346" value="Yes" style="text;html=1;strokeColor=none;fillColor=none;align=center;verticalAlign=middle;whiteSpace=wrap;rounded=0;" vertex="1" parent="bC43uHXILsUVz6L1ORMm-273">
          <mxGeometry x="126" y="287" width="60" height="30" as="geometry" />
        </mxCell>
        <mxCell id="bC43uHXILsUVz6L1ORMm-347" value="No" style="text;html=1;strokeColor=none;fillColor=none;align=center;verticalAlign=middle;whiteSpace=wrap;rounded=0;" vertex="1" parent="bC43uHXILsUVz6L1ORMm-273">
          <mxGeometry x="27.25" y="454" width="60" height="30" as="geometry" />
        </mxCell>
        <mxCell id="bC43uHXILsUVz6L1ORMm-348" value="Yes" style="text;html=1;strokeColor=none;fillColor=none;align=center;verticalAlign=middle;whiteSpace=wrap;rounded=0;" vertex="1" parent="bC43uHXILsUVz6L1ORMm-273">
          <mxGeometry x="126" y="391" width="60" height="30" as="geometry" />
        </mxCell>
        <mxCell id="bC43uHXILsUVz6L1ORMm-349" value="No" style="text;html=1;strokeColor=none;fillColor=none;align=center;verticalAlign=middle;whiteSpace=wrap;rounded=0;" vertex="1" parent="bC43uHXILsUVz6L1ORMm-273">
          <mxGeometry x="27.25" y="556" width="60" height="30" as="geometry" />
        </mxCell>
        <mxCell id="bC43uHXILsUVz6L1ORMm-350" value="Yes" style="text;html=1;strokeColor=none;fillColor=none;align=center;verticalAlign=middle;whiteSpace=wrap;rounded=0;" vertex="1" parent="bC43uHXILsUVz6L1ORMm-273">
          <mxGeometry x="126" y="493" width="60" height="30" as="geometry" />
        </mxCell>
        <mxCell id="bC43uHXILsUVz6L1ORMm-351" value="No" style="text;html=1;strokeColor=none;fillColor=none;align=center;verticalAlign=middle;whiteSpace=wrap;rounded=0;" vertex="1" parent="bC43uHXILsUVz6L1ORMm-273">
          <mxGeometry x="27.25" y="660" width="60" height="30" as="geometry" />
        </mxCell>
        <mxCell id="bC43uHXILsUVz6L1ORMm-352" value="Yes" style="text;html=1;strokeColor=none;fillColor=none;align=center;verticalAlign=middle;whiteSpace=wrap;rounded=0;" vertex="1" parent="bC43uHXILsUVz6L1ORMm-273">
          <mxGeometry x="126" y="597" width="60" height="30" as="geometry" />
        </mxCell>
        <mxCell id="bC43uHXILsUVz6L1ORMm-353" value="No" style="text;html=1;strokeColor=none;fillColor=none;align=center;verticalAlign=middle;whiteSpace=wrap;rounded=0;" vertex="1" parent="bC43uHXILsUVz6L1ORMm-273">
          <mxGeometry x="29" y="763" width="60" height="30" as="geometry" />
        </mxCell>
        <mxCell id="bC43uHXILsUVz6L1ORMm-354" value="Yes" style="text;html=1;strokeColor=none;fillColor=none;align=center;verticalAlign=middle;whiteSpace=wrap;rounded=0;" vertex="1" parent="bC43uHXILsUVz6L1ORMm-273">
          <mxGeometry x="127.75" y="700" width="60" height="30" as="geometry" />
        </mxCell>
        <mxCell id="bC43uHXILsUVz6L1ORMm-355" value="No" style="text;html=1;strokeColor=none;fillColor=none;align=center;verticalAlign=middle;whiteSpace=wrap;rounded=0;" vertex="1" parent="bC43uHXILsUVz6L1ORMm-273">
          <mxGeometry x="29" y="867" width="60" height="30" as="geometry" />
        </mxCell>
        <mxCell id="bC43uHXILsUVz6L1ORMm-356" value="Yes" style="text;html=1;strokeColor=none;fillColor=none;align=center;verticalAlign=middle;whiteSpace=wrap;rounded=0;" vertex="1" parent="bC43uHXILsUVz6L1ORMm-273">
          <mxGeometry x="127.75" y="804" width="60" height="30" as="geometry" />
        </mxCell>
        <mxCell id="bC43uHXILsUVz6L1ORMm-357" value="No" style="text;html=1;strokeColor=none;fillColor=none;align=center;verticalAlign=middle;whiteSpace=wrap;rounded=0;" vertex="1" parent="bC43uHXILsUVz6L1ORMm-273">
          <mxGeometry x="29" y="969" width="60" height="30" as="geometry" />
        </mxCell>
        <mxCell id="bC43uHXILsUVz6L1ORMm-358" value="Yes" style="text;html=1;strokeColor=none;fillColor=none;align=center;verticalAlign=middle;whiteSpace=wrap;rounded=0;" vertex="1" parent="bC43uHXILsUVz6L1ORMm-273">
          <mxGeometry x="127.75" y="906" width="60" height="30" as="geometry" />
        </mxCell>
        <mxCell id="bC43uHXILsUVz6L1ORMm-359" value="No" style="text;html=1;strokeColor=none;fillColor=none;align=center;verticalAlign=middle;whiteSpace=wrap;rounded=0;" vertex="1" parent="bC43uHXILsUVz6L1ORMm-273">
          <mxGeometry x="29" y="1073" width="60" height="30" as="geometry" />
        </mxCell>
        <mxCell id="bC43uHXILsUVz6L1ORMm-360" value="Yes" style="text;html=1;strokeColor=none;fillColor=none;align=center;verticalAlign=middle;whiteSpace=wrap;rounded=0;" vertex="1" parent="bC43uHXILsUVz6L1ORMm-273">
          <mxGeometry x="127.75" y="1010" width="60" height="30" as="geometry" />
        </mxCell>
        <mxCell id="bC43uHXILsUVz6L1ORMm-361" value="No" style="text;html=1;strokeColor=none;fillColor=none;align=center;verticalAlign=middle;whiteSpace=wrap;rounded=0;" vertex="1" parent="bC43uHXILsUVz6L1ORMm-273">
          <mxGeometry x="29" y="1176" width="60" height="30" as="geometry" />
        </mxCell>
        <mxCell id="bC43uHXILsUVz6L1ORMm-362" value="Yes" style="text;html=1;strokeColor=none;fillColor=none;align=center;verticalAlign=middle;whiteSpace=wrap;rounded=0;" vertex="1" parent="bC43uHXILsUVz6L1ORMm-273">
          <mxGeometry x="127.75" y="1113" width="60" height="30" as="geometry" />
        </mxCell>
        <mxCell id="bC43uHXILsUVz6L1ORMm-363" value="No" style="text;html=1;strokeColor=none;fillColor=none;align=center;verticalAlign=middle;whiteSpace=wrap;rounded=0;" vertex="1" parent="bC43uHXILsUVz6L1ORMm-273">
          <mxGeometry x="29" y="1280" width="60" height="30" as="geometry" />
        </mxCell>
        <mxCell id="bC43uHXILsUVz6L1ORMm-364" value="Yes" style="text;html=1;strokeColor=none;fillColor=none;align=center;verticalAlign=middle;whiteSpace=wrap;rounded=0;" vertex="1" parent="bC43uHXILsUVz6L1ORMm-273">
          <mxGeometry x="127.75" y="1217" width="60" height="30" as="geometry" />
        </mxCell>
        <mxCell id="bC43uHXILsUVz6L1ORMm-365" value="Yes" style="text;html=1;strokeColor=none;fillColor=none;align=center;verticalAlign=middle;whiteSpace=wrap;rounded=0;" vertex="1" parent="bC43uHXILsUVz6L1ORMm-273">
          <mxGeometry x="127.75" y="1320" width="60" height="30" as="geometry" />
        </mxCell>
        <mxCell id="bC43uHXILsUVz6L1ORMm-366" value="" style="group" vertex="1" connectable="0" parent="1">
          <mxGeometry x="1110" y="-1060" width="533.75" height="1710" as="geometry" />
        </mxCell>
        <mxCell id="bC43uHXILsUVz6L1ORMm-367" value="&lt;font style=&quot;&quot;&gt;&lt;font style=&quot;font-size: 12px;&quot;&gt;case 1&lt;/font&gt;&lt;br&gt;&lt;/font&gt;" style="rhombus;whiteSpace=wrap;html=1;" vertex="1" parent="bC43uHXILsUVz6L1ORMm-366">
          <mxGeometry x="3.75" y="240" width="150" height="80" as="geometry" />
        </mxCell>
        <mxCell id="bC43uHXILsUVz6L1ORMm-368" value="cout &amp;lt;&amp;lt; pfv.pshow[0]" style="rounded=0;whiteSpace=wrap;html=1;shape=parallelogram;perimeter=parallelogramPerimeter;fixedSize=1;" vertex="1" parent="bC43uHXILsUVz6L1ORMm-366">
          <mxGeometry x="189.75" y="250" width="144" height="60" as="geometry" />
        </mxCell>
        <mxCell id="bC43uHXILsUVz6L1ORMm-369" style="edgeStyle=orthogonalEdgeStyle;rounded=0;orthogonalLoop=1;jettySize=auto;html=1;exitX=1;exitY=0.5;exitDx=0;exitDy=0;entryX=0;entryY=0.5;entryDx=0;entryDy=0;" edge="1" parent="bC43uHXILsUVz6L1ORMm-366" source="bC43uHXILsUVz6L1ORMm-367" target="bC43uHXILsUVz6L1ORMm-368">
          <mxGeometry relative="1" as="geometry" />
        </mxCell>
        <mxCell id="bC43uHXILsUVz6L1ORMm-370" value="&lt;font style=&quot;&quot;&gt;&lt;font style=&quot;font-size: 12px;&quot;&gt;case 2&lt;/font&gt;&lt;br&gt;&lt;/font&gt;" style="rhombus;whiteSpace=wrap;html=1;" vertex="1" parent="bC43uHXILsUVz6L1ORMm-366">
          <mxGeometry x="3.75" y="343" width="150" height="80" as="geometry" />
        </mxCell>
        <mxCell id="bC43uHXILsUVz6L1ORMm-371" style="edgeStyle=orthogonalEdgeStyle;rounded=0;orthogonalLoop=1;jettySize=auto;html=1;exitX=0.5;exitY=1;exitDx=0;exitDy=0;entryX=0.5;entryY=0;entryDx=0;entryDy=0;" edge="1" parent="bC43uHXILsUVz6L1ORMm-366" source="bC43uHXILsUVz6L1ORMm-367" target="bC43uHXILsUVz6L1ORMm-370">
          <mxGeometry relative="1" as="geometry" />
        </mxCell>
        <mxCell id="bC43uHXILsUVz6L1ORMm-372" value="cout &amp;lt;&amp;lt; pfv.pshow[1]" style="rounded=0;whiteSpace=wrap;html=1;shape=parallelogram;perimeter=parallelogramPerimeter;fixedSize=1;" vertex="1" parent="bC43uHXILsUVz6L1ORMm-366">
          <mxGeometry x="189.75" y="353" width="144" height="60" as="geometry" />
        </mxCell>
        <mxCell id="bC43uHXILsUVz6L1ORMm-373" style="edgeStyle=orthogonalEdgeStyle;rounded=0;orthogonalLoop=1;jettySize=auto;html=1;exitX=1;exitY=0.5;exitDx=0;exitDy=0;entryX=0;entryY=0.5;entryDx=0;entryDy=0;" edge="1" parent="bC43uHXILsUVz6L1ORMm-366" source="bC43uHXILsUVz6L1ORMm-370" target="bC43uHXILsUVz6L1ORMm-372">
          <mxGeometry relative="1" as="geometry" />
        </mxCell>
        <mxCell id="bC43uHXILsUVz6L1ORMm-374" value="&lt;font style=&quot;&quot;&gt;&lt;font style=&quot;font-size: 12px;&quot;&gt;case 3&lt;/font&gt;&lt;br&gt;&lt;/font&gt;" style="rhombus;whiteSpace=wrap;html=1;" vertex="1" parent="bC43uHXILsUVz6L1ORMm-366">
          <mxGeometry x="3.75" y="447" width="150" height="80" as="geometry" />
        </mxCell>
        <mxCell id="bC43uHXILsUVz6L1ORMm-375" style="edgeStyle=orthogonalEdgeStyle;rounded=0;orthogonalLoop=1;jettySize=auto;html=1;exitX=0.5;exitY=1;exitDx=0;exitDy=0;entryX=0.5;entryY=0;entryDx=0;entryDy=0;" edge="1" parent="bC43uHXILsUVz6L1ORMm-366" source="bC43uHXILsUVz6L1ORMm-370" target="bC43uHXILsUVz6L1ORMm-374">
          <mxGeometry relative="1" as="geometry" />
        </mxCell>
        <mxCell id="bC43uHXILsUVz6L1ORMm-376" value="cout &amp;lt;&amp;lt; pfv.pshow[2]" style="rounded=0;whiteSpace=wrap;html=1;shape=parallelogram;perimeter=parallelogramPerimeter;fixedSize=1;" vertex="1" parent="bC43uHXILsUVz6L1ORMm-366">
          <mxGeometry x="189.75" y="457" width="144" height="60" as="geometry" />
        </mxCell>
        <mxCell id="bC43uHXILsUVz6L1ORMm-377" style="edgeStyle=orthogonalEdgeStyle;rounded=0;orthogonalLoop=1;jettySize=auto;html=1;exitX=1;exitY=0.5;exitDx=0;exitDy=0;entryX=0;entryY=0.5;entryDx=0;entryDy=0;" edge="1" parent="bC43uHXILsUVz6L1ORMm-366" source="bC43uHXILsUVz6L1ORMm-374" target="bC43uHXILsUVz6L1ORMm-376">
          <mxGeometry relative="1" as="geometry" />
        </mxCell>
        <mxCell id="bC43uHXILsUVz6L1ORMm-378" value="&lt;font style=&quot;font-size: 12px;&quot;&gt;case 4&lt;br&gt;&lt;/font&gt;" style="rhombus;whiteSpace=wrap;html=1;" vertex="1" parent="bC43uHXILsUVz6L1ORMm-366">
          <mxGeometry x="3.75" y="550" width="150" height="80" as="geometry" />
        </mxCell>
        <mxCell id="bC43uHXILsUVz6L1ORMm-379" style="edgeStyle=orthogonalEdgeStyle;rounded=0;orthogonalLoop=1;jettySize=auto;html=1;exitX=0.5;exitY=1;exitDx=0;exitDy=0;entryX=0.5;entryY=0;entryDx=0;entryDy=0;" edge="1" parent="bC43uHXILsUVz6L1ORMm-366" source="bC43uHXILsUVz6L1ORMm-374" target="bC43uHXILsUVz6L1ORMm-378">
          <mxGeometry relative="1" as="geometry" />
        </mxCell>
        <mxCell id="bC43uHXILsUVz6L1ORMm-380" value="cout &amp;lt;&amp;lt; pfv.pshow[3]" style="rounded=0;whiteSpace=wrap;html=1;shape=parallelogram;perimeter=parallelogramPerimeter;fixedSize=1;" vertex="1" parent="bC43uHXILsUVz6L1ORMm-366">
          <mxGeometry x="189.75" y="560" width="144" height="60" as="geometry" />
        </mxCell>
        <mxCell id="bC43uHXILsUVz6L1ORMm-381" style="edgeStyle=orthogonalEdgeStyle;rounded=0;orthogonalLoop=1;jettySize=auto;html=1;exitX=1;exitY=0.5;exitDx=0;exitDy=0;entryX=0;entryY=0.5;entryDx=0;entryDy=0;" edge="1" parent="bC43uHXILsUVz6L1ORMm-366" source="bC43uHXILsUVz6L1ORMm-378" target="bC43uHXILsUVz6L1ORMm-380">
          <mxGeometry relative="1" as="geometry" />
        </mxCell>
        <mxCell id="bC43uHXILsUVz6L1ORMm-382" value="&lt;font style=&quot;&quot;&gt;&lt;font style=&quot;font-size: 12px;&quot;&gt;case 5&lt;/font&gt;&lt;br&gt;&lt;/font&gt;" style="rhombus;whiteSpace=wrap;html=1;" vertex="1" parent="bC43uHXILsUVz6L1ORMm-366">
          <mxGeometry x="3.75" y="653" width="150" height="80" as="geometry" />
        </mxCell>
        <mxCell id="bC43uHXILsUVz6L1ORMm-383" style="edgeStyle=orthogonalEdgeStyle;rounded=0;orthogonalLoop=1;jettySize=auto;html=1;exitX=0.5;exitY=1;exitDx=0;exitDy=0;entryX=0.5;entryY=0;entryDx=0;entryDy=0;" edge="1" parent="bC43uHXILsUVz6L1ORMm-366" source="bC43uHXILsUVz6L1ORMm-378" target="bC43uHXILsUVz6L1ORMm-382">
          <mxGeometry relative="1" as="geometry" />
        </mxCell>
        <mxCell id="bC43uHXILsUVz6L1ORMm-384" value="cout &amp;lt;&amp;lt; pfv.pshow[4]" style="rounded=0;whiteSpace=wrap;html=1;shape=parallelogram;perimeter=parallelogramPerimeter;fixedSize=1;" vertex="1" parent="bC43uHXILsUVz6L1ORMm-366">
          <mxGeometry x="189.75" y="663" width="144" height="60" as="geometry" />
        </mxCell>
        <mxCell id="bC43uHXILsUVz6L1ORMm-385" style="edgeStyle=orthogonalEdgeStyle;rounded=0;orthogonalLoop=1;jettySize=auto;html=1;exitX=1;exitY=0.5;exitDx=0;exitDy=0;entryX=0;entryY=0.5;entryDx=0;entryDy=0;" edge="1" parent="bC43uHXILsUVz6L1ORMm-366" source="bC43uHXILsUVz6L1ORMm-382" target="bC43uHXILsUVz6L1ORMm-384">
          <mxGeometry relative="1" as="geometry" />
        </mxCell>
        <mxCell id="bC43uHXILsUVz6L1ORMm-386" value="&lt;font style=&quot;font-size: 12px;&quot;&gt;case 6&lt;br&gt;&lt;/font&gt;" style="rhombus;whiteSpace=wrap;html=1;" vertex="1" parent="bC43uHXILsUVz6L1ORMm-366">
          <mxGeometry x="3.75" y="757" width="150" height="80" as="geometry" />
        </mxCell>
        <mxCell id="bC43uHXILsUVz6L1ORMm-387" style="edgeStyle=orthogonalEdgeStyle;rounded=0;orthogonalLoop=1;jettySize=auto;html=1;exitX=0.5;exitY=1;exitDx=0;exitDy=0;entryX=0.5;entryY=0;entryDx=0;entryDy=0;" edge="1" parent="bC43uHXILsUVz6L1ORMm-366" source="bC43uHXILsUVz6L1ORMm-382" target="bC43uHXILsUVz6L1ORMm-386">
          <mxGeometry relative="1" as="geometry" />
        </mxCell>
        <mxCell id="bC43uHXILsUVz6L1ORMm-388" value="cout &amp;lt;&amp;lt; pfv.pshow[5]" style="rounded=0;whiteSpace=wrap;html=1;shape=parallelogram;perimeter=parallelogramPerimeter;fixedSize=1;" vertex="1" parent="bC43uHXILsUVz6L1ORMm-366">
          <mxGeometry x="189.75" y="767" width="144" height="60" as="geometry" />
        </mxCell>
        <mxCell id="bC43uHXILsUVz6L1ORMm-389" style="edgeStyle=orthogonalEdgeStyle;rounded=0;orthogonalLoop=1;jettySize=auto;html=1;exitX=1;exitY=0.5;exitDx=0;exitDy=0;entryX=0;entryY=0.5;entryDx=0;entryDy=0;" edge="1" parent="bC43uHXILsUVz6L1ORMm-366" source="bC43uHXILsUVz6L1ORMm-386" target="bC43uHXILsUVz6L1ORMm-388">
          <mxGeometry relative="1" as="geometry" />
        </mxCell>
        <mxCell id="bC43uHXILsUVz6L1ORMm-390" value="&lt;font style=&quot;font-size: 12px;&quot;&gt;case 7&lt;br&gt;&lt;/font&gt;" style="rhombus;whiteSpace=wrap;html=1;" vertex="1" parent="bC43uHXILsUVz6L1ORMm-366">
          <mxGeometry x="3.75" y="860" width="150" height="80" as="geometry" />
        </mxCell>
        <mxCell id="bC43uHXILsUVz6L1ORMm-391" style="edgeStyle=orthogonalEdgeStyle;rounded=0;orthogonalLoop=1;jettySize=auto;html=1;exitX=0.5;exitY=1;exitDx=0;exitDy=0;entryX=0.5;entryY=0;entryDx=0;entryDy=0;" edge="1" parent="bC43uHXILsUVz6L1ORMm-366" source="bC43uHXILsUVz6L1ORMm-386" target="bC43uHXILsUVz6L1ORMm-390">
          <mxGeometry relative="1" as="geometry" />
        </mxCell>
        <mxCell id="bC43uHXILsUVz6L1ORMm-392" value="cout &amp;lt;&amp;lt; pfv.pshow[6]" style="rounded=0;whiteSpace=wrap;html=1;shape=parallelogram;perimeter=parallelogramPerimeter;fixedSize=1;" vertex="1" parent="bC43uHXILsUVz6L1ORMm-366">
          <mxGeometry x="189.75" y="870" width="144" height="60" as="geometry" />
        </mxCell>
        <mxCell id="bC43uHXILsUVz6L1ORMm-393" style="edgeStyle=orthogonalEdgeStyle;rounded=0;orthogonalLoop=1;jettySize=auto;html=1;exitX=1;exitY=0.5;exitDx=0;exitDy=0;entryX=0;entryY=0.5;entryDx=0;entryDy=0;" edge="1" parent="bC43uHXILsUVz6L1ORMm-366" source="bC43uHXILsUVz6L1ORMm-390" target="bC43uHXILsUVz6L1ORMm-392">
          <mxGeometry relative="1" as="geometry" />
        </mxCell>
        <mxCell id="bC43uHXILsUVz6L1ORMm-394" value="&lt;font style=&quot;&quot;&gt;&lt;font style=&quot;font-size: 12px;&quot;&gt;case 8&lt;/font&gt;&lt;br&gt;&lt;/font&gt;" style="rhombus;whiteSpace=wrap;html=1;" vertex="1" parent="bC43uHXILsUVz6L1ORMm-366">
          <mxGeometry x="3.75" y="963" width="150" height="80" as="geometry" />
        </mxCell>
        <mxCell id="bC43uHXILsUVz6L1ORMm-395" style="edgeStyle=orthogonalEdgeStyle;rounded=0;orthogonalLoop=1;jettySize=auto;html=1;exitX=0.5;exitY=1;exitDx=0;exitDy=0;entryX=0.5;entryY=0;entryDx=0;entryDy=0;" edge="1" parent="bC43uHXILsUVz6L1ORMm-366" source="bC43uHXILsUVz6L1ORMm-390" target="bC43uHXILsUVz6L1ORMm-394">
          <mxGeometry relative="1" as="geometry" />
        </mxCell>
        <mxCell id="bC43uHXILsUVz6L1ORMm-396" value="cout &amp;lt;&amp;lt; pfv.pshow[7]" style="rounded=0;whiteSpace=wrap;html=1;shape=parallelogram;perimeter=parallelogramPerimeter;fixedSize=1;" vertex="1" parent="bC43uHXILsUVz6L1ORMm-366">
          <mxGeometry x="189.75" y="973" width="144" height="60" as="geometry" />
        </mxCell>
        <mxCell id="bC43uHXILsUVz6L1ORMm-397" style="edgeStyle=orthogonalEdgeStyle;rounded=0;orthogonalLoop=1;jettySize=auto;html=1;exitX=1;exitY=0.5;exitDx=0;exitDy=0;entryX=0;entryY=0.5;entryDx=0;entryDy=0;" edge="1" parent="bC43uHXILsUVz6L1ORMm-366" source="bC43uHXILsUVz6L1ORMm-394" target="bC43uHXILsUVz6L1ORMm-396">
          <mxGeometry relative="1" as="geometry" />
        </mxCell>
        <mxCell id="bC43uHXILsUVz6L1ORMm-398" value="&lt;font style=&quot;font-size: 12px;&quot;&gt;case 9&lt;br&gt;&lt;/font&gt;" style="rhombus;whiteSpace=wrap;html=1;" vertex="1" parent="bC43uHXILsUVz6L1ORMm-366">
          <mxGeometry x="3.75" y="1067" width="150" height="80" as="geometry" />
        </mxCell>
        <mxCell id="bC43uHXILsUVz6L1ORMm-399" style="edgeStyle=orthogonalEdgeStyle;rounded=0;orthogonalLoop=1;jettySize=auto;html=1;exitX=0.5;exitY=1;exitDx=0;exitDy=0;entryX=0.5;entryY=0;entryDx=0;entryDy=0;" edge="1" parent="bC43uHXILsUVz6L1ORMm-366" source="bC43uHXILsUVz6L1ORMm-394" target="bC43uHXILsUVz6L1ORMm-398">
          <mxGeometry relative="1" as="geometry" />
        </mxCell>
        <mxCell id="bC43uHXILsUVz6L1ORMm-400" value="cout &amp;lt;&amp;lt; pfv.pshow[8]" style="rounded=0;whiteSpace=wrap;html=1;shape=parallelogram;perimeter=parallelogramPerimeter;fixedSize=1;" vertex="1" parent="bC43uHXILsUVz6L1ORMm-366">
          <mxGeometry x="189.75" y="1077" width="144" height="60" as="geometry" />
        </mxCell>
        <mxCell id="bC43uHXILsUVz6L1ORMm-401" style="edgeStyle=orthogonalEdgeStyle;rounded=0;orthogonalLoop=1;jettySize=auto;html=1;exitX=1;exitY=0.5;exitDx=0;exitDy=0;entryX=0;entryY=0.5;entryDx=0;entryDy=0;" edge="1" parent="bC43uHXILsUVz6L1ORMm-366" source="bC43uHXILsUVz6L1ORMm-398" target="bC43uHXILsUVz6L1ORMm-400">
          <mxGeometry relative="1" as="geometry" />
        </mxCell>
        <mxCell id="bC43uHXILsUVz6L1ORMm-402" value="&lt;font style=&quot;font-size: 12px;&quot;&gt;case 10&lt;br&gt;&lt;/font&gt;" style="rhombus;whiteSpace=wrap;html=1;" vertex="1" parent="bC43uHXILsUVz6L1ORMm-366">
          <mxGeometry x="3.75" y="1170" width="150" height="80" as="geometry" />
        </mxCell>
        <mxCell id="bC43uHXILsUVz6L1ORMm-403" style="edgeStyle=orthogonalEdgeStyle;rounded=0;orthogonalLoop=1;jettySize=auto;html=1;exitX=0.5;exitY=1;exitDx=0;exitDy=0;entryX=0.5;entryY=0;entryDx=0;entryDy=0;" edge="1" parent="bC43uHXILsUVz6L1ORMm-366" source="bC43uHXILsUVz6L1ORMm-398" target="bC43uHXILsUVz6L1ORMm-402">
          <mxGeometry relative="1" as="geometry" />
        </mxCell>
        <mxCell id="bC43uHXILsUVz6L1ORMm-404" value="cout &amp;lt;&amp;lt; pfv.pshow[9]" style="rounded=0;whiteSpace=wrap;html=1;shape=parallelogram;perimeter=parallelogramPerimeter;fixedSize=1;" vertex="1" parent="bC43uHXILsUVz6L1ORMm-366">
          <mxGeometry x="189.75" y="1180" width="144" height="60" as="geometry" />
        </mxCell>
        <mxCell id="bC43uHXILsUVz6L1ORMm-405" style="edgeStyle=orthogonalEdgeStyle;rounded=0;orthogonalLoop=1;jettySize=auto;html=1;exitX=1;exitY=0.5;exitDx=0;exitDy=0;entryX=0;entryY=0.5;entryDx=0;entryDy=0;" edge="1" parent="bC43uHXILsUVz6L1ORMm-366" source="bC43uHXILsUVz6L1ORMm-402" target="bC43uHXILsUVz6L1ORMm-404">
          <mxGeometry relative="1" as="geometry" />
        </mxCell>
        <mxCell id="bC43uHXILsUVz6L1ORMm-406" value="&lt;font style=&quot;font-size: 12px;&quot;&gt;case 11&lt;br&gt;&lt;/font&gt;" style="rhombus;whiteSpace=wrap;html=1;" vertex="1" parent="bC43uHXILsUVz6L1ORMm-366">
          <mxGeometry x="3.75" y="1273" width="150" height="80" as="geometry" />
        </mxCell>
        <mxCell id="bC43uHXILsUVz6L1ORMm-407" style="edgeStyle=orthogonalEdgeStyle;rounded=0;orthogonalLoop=1;jettySize=auto;html=1;exitX=0.5;exitY=1;exitDx=0;exitDy=0;entryX=0.5;entryY=0;entryDx=0;entryDy=0;" edge="1" parent="bC43uHXILsUVz6L1ORMm-366" source="bC43uHXILsUVz6L1ORMm-402" target="bC43uHXILsUVz6L1ORMm-406">
          <mxGeometry relative="1" as="geometry" />
        </mxCell>
        <mxCell id="bC43uHXILsUVz6L1ORMm-408" value="cout &amp;lt;&amp;lt; pfv.pshow[10]" style="rounded=0;whiteSpace=wrap;html=1;shape=parallelogram;perimeter=parallelogramPerimeter;fixedSize=1;" vertex="1" parent="bC43uHXILsUVz6L1ORMm-366">
          <mxGeometry x="189.75" y="1283" width="144" height="60" as="geometry" />
        </mxCell>
        <mxCell id="bC43uHXILsUVz6L1ORMm-409" value="" style="edgeStyle=orthogonalEdgeStyle;rounded=0;orthogonalLoop=1;jettySize=auto;html=1;" edge="1" parent="bC43uHXILsUVz6L1ORMm-366" source="bC43uHXILsUVz6L1ORMm-406" target="bC43uHXILsUVz6L1ORMm-408">
          <mxGeometry relative="1" as="geometry" />
        </mxCell>
        <mxCell id="bC43uHXILsUVz6L1ORMm-410" value="&lt;font style=&quot;font-size: 12px;&quot;&gt;case 12&lt;br&gt;&lt;/font&gt;" style="rhombus;whiteSpace=wrap;html=1;" vertex="1" parent="bC43uHXILsUVz6L1ORMm-366">
          <mxGeometry x="3.75" y="1377" width="150" height="80" as="geometry" />
        </mxCell>
        <mxCell id="bC43uHXILsUVz6L1ORMm-411" style="edgeStyle=orthogonalEdgeStyle;rounded=0;orthogonalLoop=1;jettySize=auto;html=1;exitX=0.5;exitY=1;exitDx=0;exitDy=0;entryX=0.5;entryY=0;entryDx=0;entryDy=0;" edge="1" parent="bC43uHXILsUVz6L1ORMm-366" source="bC43uHXILsUVz6L1ORMm-406" target="bC43uHXILsUVz6L1ORMm-410">
          <mxGeometry relative="1" as="geometry" />
        </mxCell>
        <mxCell id="bC43uHXILsUVz6L1ORMm-412" value="cout &amp;lt;&amp;lt; pfv.pshow[11]" style="rounded=0;whiteSpace=wrap;html=1;shape=parallelogram;perimeter=parallelogramPerimeter;fixedSize=1;" vertex="1" parent="bC43uHXILsUVz6L1ORMm-366">
          <mxGeometry x="189.75" y="1387" width="144" height="60" as="geometry" />
        </mxCell>
        <mxCell id="bC43uHXILsUVz6L1ORMm-413" style="edgeStyle=orthogonalEdgeStyle;rounded=0;orthogonalLoop=1;jettySize=auto;html=1;exitX=1;exitY=0.5;exitDx=0;exitDy=0;entryX=0;entryY=0.5;entryDx=0;entryDy=0;" edge="1" parent="bC43uHXILsUVz6L1ORMm-366" source="bC43uHXILsUVz6L1ORMm-410" target="bC43uHXILsUVz6L1ORMm-412">
          <mxGeometry relative="1" as="geometry" />
        </mxCell>
        <mxCell id="bC43uHXILsUVz6L1ORMm-414" value="&lt;font style=&quot;&quot;&gt;default (13)&lt;br&gt;&lt;/font&gt;" style="rhombus;whiteSpace=wrap;html=1;" vertex="1" parent="bC43uHXILsUVz6L1ORMm-366">
          <mxGeometry x="3.75" y="1480" width="150" height="80" as="geometry" />
        </mxCell>
        <mxCell id="bC43uHXILsUVz6L1ORMm-415" style="edgeStyle=orthogonalEdgeStyle;rounded=0;orthogonalLoop=1;jettySize=auto;html=1;exitX=0.5;exitY=1;exitDx=0;exitDy=0;entryX=0.5;entryY=0;entryDx=0;entryDy=0;" edge="1" parent="bC43uHXILsUVz6L1ORMm-366" source="bC43uHXILsUVz6L1ORMm-410" target="bC43uHXILsUVz6L1ORMm-414">
          <mxGeometry relative="1" as="geometry" />
        </mxCell>
        <mxCell id="bC43uHXILsUVz6L1ORMm-416" value="cout &amp;lt;&amp;lt; pfv.pshow[12]" style="rounded=0;whiteSpace=wrap;html=1;shape=parallelogram;perimeter=parallelogramPerimeter;fixedSize=1;" vertex="1" parent="bC43uHXILsUVz6L1ORMm-366">
          <mxGeometry x="189.75" y="1490" width="144" height="60" as="geometry" />
        </mxCell>
        <mxCell id="bC43uHXILsUVz6L1ORMm-417" style="edgeStyle=orthogonalEdgeStyle;rounded=0;orthogonalLoop=1;jettySize=auto;html=1;exitX=1;exitY=0.5;exitDx=0;exitDy=0;entryX=0;entryY=0.5;entryDx=0;entryDy=0;" edge="1" parent="bC43uHXILsUVz6L1ORMm-366" source="bC43uHXILsUVz6L1ORMm-414" target="bC43uHXILsUVz6L1ORMm-416">
          <mxGeometry relative="1" as="geometry" />
        </mxCell>
        <mxCell id="bC43uHXILsUVz6L1ORMm-418" value="Start played" style="ellipse;whiteSpace=wrap;html=1;" vertex="1" parent="bC43uHXILsUVz6L1ORMm-366">
          <mxGeometry x="18.75" width="120" height="40" as="geometry" />
        </mxCell>
        <mxCell id="bC43uHXILsUVz6L1ORMm-419" value="End played" style="ellipse;whiteSpace=wrap;html=1;" vertex="1" parent="bC43uHXILsUVz6L1ORMm-366">
          <mxGeometry x="363.75" y="1670" width="120" height="40" as="geometry" />
        </mxCell>
        <mxCell id="bC43uHXILsUVz6L1ORMm-420" value="Yes" style="text;html=1;strokeColor=none;fillColor=none;align=center;verticalAlign=middle;whiteSpace=wrap;rounded=0;" vertex="1" parent="bC43uHXILsUVz6L1ORMm-366">
          <mxGeometry x="129.75" y="250" width="60" height="30" as="geometry" />
        </mxCell>
        <mxCell id="bC43uHXILsUVz6L1ORMm-421" value="No" style="text;html=1;strokeColor=none;fillColor=none;align=center;verticalAlign=middle;whiteSpace=wrap;rounded=0;" vertex="1" parent="bC43uHXILsUVz6L1ORMm-366">
          <mxGeometry x="31" y="313" width="60" height="30" as="geometry" />
        </mxCell>
        <mxCell id="bC43uHXILsUVz6L1ORMm-422" value="No" style="text;html=1;strokeColor=none;fillColor=none;align=center;verticalAlign=middle;whiteSpace=wrap;rounded=0;" vertex="1" parent="bC43uHXILsUVz6L1ORMm-366">
          <mxGeometry x="31" y="417" width="60" height="30" as="geometry" />
        </mxCell>
        <mxCell id="bC43uHXILsUVz6L1ORMm-423" value="Yes" style="text;html=1;strokeColor=none;fillColor=none;align=center;verticalAlign=middle;whiteSpace=wrap;rounded=0;" vertex="1" parent="bC43uHXILsUVz6L1ORMm-366">
          <mxGeometry x="129.75" y="354" width="60" height="30" as="geometry" />
        </mxCell>
        <mxCell id="bC43uHXILsUVz6L1ORMm-424" value="No" style="text;html=1;strokeColor=none;fillColor=none;align=center;verticalAlign=middle;whiteSpace=wrap;rounded=0;" vertex="1" parent="bC43uHXILsUVz6L1ORMm-366">
          <mxGeometry x="31" y="520" width="60" height="30" as="geometry" />
        </mxCell>
        <mxCell id="bC43uHXILsUVz6L1ORMm-425" value="Yes" style="text;html=1;strokeColor=none;fillColor=none;align=center;verticalAlign=middle;whiteSpace=wrap;rounded=0;" vertex="1" parent="bC43uHXILsUVz6L1ORMm-366">
          <mxGeometry x="129.75" y="457" width="60" height="30" as="geometry" />
        </mxCell>
        <mxCell id="bC43uHXILsUVz6L1ORMm-426" value="No" style="text;html=1;strokeColor=none;fillColor=none;align=center;verticalAlign=middle;whiteSpace=wrap;rounded=0;" vertex="1" parent="bC43uHXILsUVz6L1ORMm-366">
          <mxGeometry x="31" y="624" width="60" height="30" as="geometry" />
        </mxCell>
        <mxCell id="bC43uHXILsUVz6L1ORMm-427" value="Yes" style="text;html=1;strokeColor=none;fillColor=none;align=center;verticalAlign=middle;whiteSpace=wrap;rounded=0;" vertex="1" parent="bC43uHXILsUVz6L1ORMm-366">
          <mxGeometry x="129.75" y="561" width="60" height="30" as="geometry" />
        </mxCell>
        <mxCell id="bC43uHXILsUVz6L1ORMm-428" value="No" style="text;html=1;strokeColor=none;fillColor=none;align=center;verticalAlign=middle;whiteSpace=wrap;rounded=0;" vertex="1" parent="bC43uHXILsUVz6L1ORMm-366">
          <mxGeometry x="31" y="726" width="60" height="30" as="geometry" />
        </mxCell>
        <mxCell id="bC43uHXILsUVz6L1ORMm-429" value="Yes" style="text;html=1;strokeColor=none;fillColor=none;align=center;verticalAlign=middle;whiteSpace=wrap;rounded=0;" vertex="1" parent="bC43uHXILsUVz6L1ORMm-366">
          <mxGeometry x="129.75" y="663" width="60" height="30" as="geometry" />
        </mxCell>
        <mxCell id="bC43uHXILsUVz6L1ORMm-430" value="No" style="text;html=1;strokeColor=none;fillColor=none;align=center;verticalAlign=middle;whiteSpace=wrap;rounded=0;" vertex="1" parent="bC43uHXILsUVz6L1ORMm-366">
          <mxGeometry x="31" y="830" width="60" height="30" as="geometry" />
        </mxCell>
        <mxCell id="bC43uHXILsUVz6L1ORMm-431" value="Yes" style="text;html=1;strokeColor=none;fillColor=none;align=center;verticalAlign=middle;whiteSpace=wrap;rounded=0;" vertex="1" parent="bC43uHXILsUVz6L1ORMm-366">
          <mxGeometry x="129.75" y="767" width="60" height="30" as="geometry" />
        </mxCell>
        <mxCell id="bC43uHXILsUVz6L1ORMm-432" value="No" style="text;html=1;strokeColor=none;fillColor=none;align=center;verticalAlign=middle;whiteSpace=wrap;rounded=0;" vertex="1" parent="bC43uHXILsUVz6L1ORMm-366">
          <mxGeometry x="32.75" y="933" width="60" height="30" as="geometry" />
        </mxCell>
        <mxCell id="bC43uHXILsUVz6L1ORMm-433" value="Yes" style="text;html=1;strokeColor=none;fillColor=none;align=center;verticalAlign=middle;whiteSpace=wrap;rounded=0;" vertex="1" parent="bC43uHXILsUVz6L1ORMm-366">
          <mxGeometry x="131.5" y="870" width="60" height="30" as="geometry" />
        </mxCell>
        <mxCell id="bC43uHXILsUVz6L1ORMm-434" value="No" style="text;html=1;strokeColor=none;fillColor=none;align=center;verticalAlign=middle;whiteSpace=wrap;rounded=0;" vertex="1" parent="bC43uHXILsUVz6L1ORMm-366">
          <mxGeometry x="32.75" y="1037" width="60" height="30" as="geometry" />
        </mxCell>
        <mxCell id="bC43uHXILsUVz6L1ORMm-435" value="Yes" style="text;html=1;strokeColor=none;fillColor=none;align=center;verticalAlign=middle;whiteSpace=wrap;rounded=0;" vertex="1" parent="bC43uHXILsUVz6L1ORMm-366">
          <mxGeometry x="131.5" y="974" width="60" height="30" as="geometry" />
        </mxCell>
        <mxCell id="bC43uHXILsUVz6L1ORMm-436" value="No" style="text;html=1;strokeColor=none;fillColor=none;align=center;verticalAlign=middle;whiteSpace=wrap;rounded=0;" vertex="1" parent="bC43uHXILsUVz6L1ORMm-366">
          <mxGeometry x="32.75" y="1139" width="60" height="30" as="geometry" />
        </mxCell>
        <mxCell id="bC43uHXILsUVz6L1ORMm-437" value="Yes" style="text;html=1;strokeColor=none;fillColor=none;align=center;verticalAlign=middle;whiteSpace=wrap;rounded=0;" vertex="1" parent="bC43uHXILsUVz6L1ORMm-366">
          <mxGeometry x="131.5" y="1076" width="60" height="30" as="geometry" />
        </mxCell>
        <mxCell id="bC43uHXILsUVz6L1ORMm-438" value="No" style="text;html=1;strokeColor=none;fillColor=none;align=center;verticalAlign=middle;whiteSpace=wrap;rounded=0;" vertex="1" parent="bC43uHXILsUVz6L1ORMm-366">
          <mxGeometry x="32.75" y="1243" width="60" height="30" as="geometry" />
        </mxCell>
        <mxCell id="bC43uHXILsUVz6L1ORMm-439" value="Yes" style="text;html=1;strokeColor=none;fillColor=none;align=center;verticalAlign=middle;whiteSpace=wrap;rounded=0;" vertex="1" parent="bC43uHXILsUVz6L1ORMm-366">
          <mxGeometry x="131.5" y="1180" width="60" height="30" as="geometry" />
        </mxCell>
        <mxCell id="bC43uHXILsUVz6L1ORMm-440" value="No" style="text;html=1;strokeColor=none;fillColor=none;align=center;verticalAlign=middle;whiteSpace=wrap;rounded=0;" vertex="1" parent="bC43uHXILsUVz6L1ORMm-366">
          <mxGeometry x="32.75" y="1346" width="60" height="30" as="geometry" />
        </mxCell>
        <mxCell id="bC43uHXILsUVz6L1ORMm-441" value="Yes" style="text;html=1;strokeColor=none;fillColor=none;align=center;verticalAlign=middle;whiteSpace=wrap;rounded=0;" vertex="1" parent="bC43uHXILsUVz6L1ORMm-366">
          <mxGeometry x="131.5" y="1283" width="60" height="30" as="geometry" />
        </mxCell>
        <mxCell id="bC43uHXILsUVz6L1ORMm-442" value="No" style="text;html=1;strokeColor=none;fillColor=none;align=center;verticalAlign=middle;whiteSpace=wrap;rounded=0;" vertex="1" parent="bC43uHXILsUVz6L1ORMm-366">
          <mxGeometry x="32.75" y="1450" width="60" height="30" as="geometry" />
        </mxCell>
        <mxCell id="bC43uHXILsUVz6L1ORMm-443" value="Yes" style="text;html=1;strokeColor=none;fillColor=none;align=center;verticalAlign=middle;whiteSpace=wrap;rounded=0;" vertex="1" parent="bC43uHXILsUVz6L1ORMm-366">
          <mxGeometry x="131.5" y="1387" width="60" height="30" as="geometry" />
        </mxCell>
        <mxCell id="bC43uHXILsUVz6L1ORMm-444" value="Yes" style="text;html=1;strokeColor=none;fillColor=none;align=center;verticalAlign=middle;whiteSpace=wrap;rounded=0;" vertex="1" parent="bC43uHXILsUVz6L1ORMm-366">
          <mxGeometry x="131.5" y="1490" width="60" height="30" as="geometry" />
        </mxCell>
        <mxCell id="bC43uHXILsUVz6L1ORMm-445" value="cout &amp;lt;&amp;lt; p.name &lt;br&gt;&amp;nbsp; &amp;nbsp; &amp;nbsp; &amp;nbsp; &amp;nbsp;&amp;lt;&amp;lt; &quot;played: &quot;" style="shape=parallelogram;perimeter=parallelogramPerimeter;whiteSpace=wrap;html=1;fixedSize=1;" vertex="1" parent="bC43uHXILsUVz6L1ORMm-366">
          <mxGeometry y="70" width="157.5" height="60" as="geometry" />
        </mxCell>
        <mxCell id="bC43uHXILsUVz6L1ORMm-446" style="edgeStyle=orthogonalEdgeStyle;rounded=0;orthogonalLoop=1;jettySize=auto;html=1;exitX=0.5;exitY=1;exitDx=0;exitDy=0;entryX=0.5;entryY=0;entryDx=0;entryDy=0;" edge="1" parent="bC43uHXILsUVz6L1ORMm-366" source="bC43uHXILsUVz6L1ORMm-418" target="bC43uHXILsUVz6L1ORMm-445">
          <mxGeometry relative="1" as="geometry" />
        </mxCell>
        <mxCell id="bC43uHXILsUVz6L1ORMm-447" value="break" style="rounded=0;whiteSpace=wrap;html=1;" vertex="1" parent="bC43uHXILsUVz6L1ORMm-366">
          <mxGeometry x="363.75" y="250" width="120" height="60" as="geometry" />
        </mxCell>
        <mxCell id="bC43uHXILsUVz6L1ORMm-448" style="edgeStyle=orthogonalEdgeStyle;rounded=0;orthogonalLoop=1;jettySize=auto;html=1;exitX=1;exitY=0.5;exitDx=0;exitDy=0;entryX=0;entryY=0.5;entryDx=0;entryDy=0;" edge="1" parent="bC43uHXILsUVz6L1ORMm-366" source="bC43uHXILsUVz6L1ORMm-368" target="bC43uHXILsUVz6L1ORMm-447">
          <mxGeometry relative="1" as="geometry" />
        </mxCell>
        <mxCell id="bC43uHXILsUVz6L1ORMm-449" style="edgeStyle=orthogonalEdgeStyle;rounded=0;orthogonalLoop=1;jettySize=auto;html=1;exitX=1;exitY=0.5;exitDx=0;exitDy=0;" edge="1" parent="bC43uHXILsUVz6L1ORMm-366" source="bC43uHXILsUVz6L1ORMm-450">
          <mxGeometry relative="1" as="geometry">
            <mxPoint x="533.75" y="383.17647058823513" as="targetPoint" />
          </mxGeometry>
        </mxCell>
        <mxCell id="bC43uHXILsUVz6L1ORMm-450" value="break" style="rounded=0;whiteSpace=wrap;html=1;" vertex="1" parent="bC43uHXILsUVz6L1ORMm-366">
          <mxGeometry x="363.75" y="353" width="120" height="60" as="geometry" />
        </mxCell>
        <mxCell id="bC43uHXILsUVz6L1ORMm-451" style="edgeStyle=orthogonalEdgeStyle;rounded=0;orthogonalLoop=1;jettySize=auto;html=1;exitX=1;exitY=0.5;exitDx=0;exitDy=0;entryX=0;entryY=0.5;entryDx=0;entryDy=0;" edge="1" parent="bC43uHXILsUVz6L1ORMm-366" source="bC43uHXILsUVz6L1ORMm-372" target="bC43uHXILsUVz6L1ORMm-450">
          <mxGeometry relative="1" as="geometry" />
        </mxCell>
        <mxCell id="bC43uHXILsUVz6L1ORMm-452" style="edgeStyle=orthogonalEdgeStyle;rounded=0;orthogonalLoop=1;jettySize=auto;html=1;exitX=1;exitY=0.5;exitDx=0;exitDy=0;" edge="1" parent="bC43uHXILsUVz6L1ORMm-366" source="bC43uHXILsUVz6L1ORMm-453">
          <mxGeometry relative="1" as="geometry">
            <mxPoint x="533.75" y="486.70588235294144" as="targetPoint" />
          </mxGeometry>
        </mxCell>
        <mxCell id="bC43uHXILsUVz6L1ORMm-453" value="break" style="rounded=0;whiteSpace=wrap;html=1;" vertex="1" parent="bC43uHXILsUVz6L1ORMm-366">
          <mxGeometry x="363.75" y="457" width="120" height="60" as="geometry" />
        </mxCell>
        <mxCell id="bC43uHXILsUVz6L1ORMm-454" style="edgeStyle=orthogonalEdgeStyle;rounded=0;orthogonalLoop=1;jettySize=auto;html=1;exitX=1;exitY=0.5;exitDx=0;exitDy=0;entryX=0;entryY=0.5;entryDx=0;entryDy=0;" edge="1" parent="bC43uHXILsUVz6L1ORMm-366" source="bC43uHXILsUVz6L1ORMm-376" target="bC43uHXILsUVz6L1ORMm-453">
          <mxGeometry relative="1" as="geometry" />
        </mxCell>
        <mxCell id="bC43uHXILsUVz6L1ORMm-455" style="edgeStyle=orthogonalEdgeStyle;rounded=0;orthogonalLoop=1;jettySize=auto;html=1;exitX=1;exitY=0.5;exitDx=0;exitDy=0;" edge="1" parent="bC43uHXILsUVz6L1ORMm-366" source="bC43uHXILsUVz6L1ORMm-456">
          <mxGeometry relative="1" as="geometry">
            <mxPoint x="533.75" y="590.2352941176473" as="targetPoint" />
          </mxGeometry>
        </mxCell>
        <mxCell id="bC43uHXILsUVz6L1ORMm-456" value="break" style="rounded=0;whiteSpace=wrap;html=1;" vertex="1" parent="bC43uHXILsUVz6L1ORMm-366">
          <mxGeometry x="363.75" y="560" width="120" height="60" as="geometry" />
        </mxCell>
        <mxCell id="bC43uHXILsUVz6L1ORMm-457" style="edgeStyle=orthogonalEdgeStyle;rounded=0;orthogonalLoop=1;jettySize=auto;html=1;exitX=1;exitY=0.5;exitDx=0;exitDy=0;" edge="1" parent="bC43uHXILsUVz6L1ORMm-366" source="bC43uHXILsUVz6L1ORMm-458">
          <mxGeometry relative="1" as="geometry">
            <mxPoint x="533.75" y="692.5882352941176" as="targetPoint" />
          </mxGeometry>
        </mxCell>
        <mxCell id="bC43uHXILsUVz6L1ORMm-458" value="break" style="rounded=0;whiteSpace=wrap;html=1;" vertex="1" parent="bC43uHXILsUVz6L1ORMm-366">
          <mxGeometry x="363.75" y="663" width="120" height="60" as="geometry" />
        </mxCell>
        <mxCell id="bC43uHXILsUVz6L1ORMm-459" style="edgeStyle=orthogonalEdgeStyle;rounded=0;orthogonalLoop=1;jettySize=auto;html=1;exitX=1;exitY=0.5;exitDx=0;exitDy=0;" edge="1" parent="bC43uHXILsUVz6L1ORMm-366" source="bC43uHXILsUVz6L1ORMm-460">
          <mxGeometry relative="1" as="geometry">
            <mxPoint x="533.75" y="796.1176470588234" as="targetPoint" />
          </mxGeometry>
        </mxCell>
        <mxCell id="bC43uHXILsUVz6L1ORMm-460" value="break" style="rounded=0;whiteSpace=wrap;html=1;" vertex="1" parent="bC43uHXILsUVz6L1ORMm-366">
          <mxGeometry x="363.75" y="766" width="120" height="60" as="geometry" />
        </mxCell>
        <mxCell id="bC43uHXILsUVz6L1ORMm-461" style="edgeStyle=orthogonalEdgeStyle;rounded=0;orthogonalLoop=1;jettySize=auto;html=1;exitX=1;exitY=0.5;exitDx=0;exitDy=0;" edge="1" parent="bC43uHXILsUVz6L1ORMm-366" source="bC43uHXILsUVz6L1ORMm-462">
          <mxGeometry relative="1" as="geometry">
            <mxPoint x="533.75" y="899.6470588235293" as="targetPoint" />
          </mxGeometry>
        </mxCell>
        <mxCell id="bC43uHXILsUVz6L1ORMm-462" value="break" style="rounded=0;whiteSpace=wrap;html=1;" vertex="1" parent="bC43uHXILsUVz6L1ORMm-366">
          <mxGeometry x="363.75" y="870" width="120" height="60" as="geometry" />
        </mxCell>
        <mxCell id="bC43uHXILsUVz6L1ORMm-463" style="edgeStyle=orthogonalEdgeStyle;rounded=0;orthogonalLoop=1;jettySize=auto;html=1;exitX=1;exitY=0.5;exitDx=0;exitDy=0;" edge="1" parent="bC43uHXILsUVz6L1ORMm-366" source="bC43uHXILsUVz6L1ORMm-464">
          <mxGeometry relative="1" as="geometry">
            <mxPoint x="533.75" y="1003.1764705882356" as="targetPoint" />
          </mxGeometry>
        </mxCell>
        <mxCell id="bC43uHXILsUVz6L1ORMm-464" value="break" style="rounded=0;whiteSpace=wrap;html=1;" vertex="1" parent="bC43uHXILsUVz6L1ORMm-366">
          <mxGeometry x="363.75" y="973" width="120" height="60" as="geometry" />
        </mxCell>
        <mxCell id="bC43uHXILsUVz6L1ORMm-465" style="edgeStyle=orthogonalEdgeStyle;rounded=0;orthogonalLoop=1;jettySize=auto;html=1;exitX=1;exitY=0.5;exitDx=0;exitDy=0;" edge="1" parent="bC43uHXILsUVz6L1ORMm-366" source="bC43uHXILsUVz6L1ORMm-466">
          <mxGeometry relative="1" as="geometry">
            <mxPoint x="533.75" y="1105.5294117647059" as="targetPoint" />
          </mxGeometry>
        </mxCell>
        <mxCell id="bC43uHXILsUVz6L1ORMm-466" value="break" style="rounded=0;whiteSpace=wrap;html=1;" vertex="1" parent="bC43uHXILsUVz6L1ORMm-366">
          <mxGeometry x="363.75" y="1076" width="120" height="60" as="geometry" />
        </mxCell>
        <mxCell id="bC43uHXILsUVz6L1ORMm-467" style="edgeStyle=orthogonalEdgeStyle;rounded=0;orthogonalLoop=1;jettySize=auto;html=1;exitX=1;exitY=0.5;exitDx=0;exitDy=0;" edge="1" parent="bC43uHXILsUVz6L1ORMm-366" source="bC43uHXILsUVz6L1ORMm-468">
          <mxGeometry relative="1" as="geometry">
            <mxPoint x="533.75" y="1209.0588235294117" as="targetPoint" />
          </mxGeometry>
        </mxCell>
        <mxCell id="bC43uHXILsUVz6L1ORMm-468" value="break" style="rounded=0;whiteSpace=wrap;html=1;" vertex="1" parent="bC43uHXILsUVz6L1ORMm-366">
          <mxGeometry x="363.75" y="1179" width="120" height="60" as="geometry" />
        </mxCell>
        <mxCell id="bC43uHXILsUVz6L1ORMm-469" style="edgeStyle=orthogonalEdgeStyle;rounded=0;orthogonalLoop=1;jettySize=auto;html=1;exitX=1;exitY=0.5;exitDx=0;exitDy=0;" edge="1" parent="bC43uHXILsUVz6L1ORMm-366" source="bC43uHXILsUVz6L1ORMm-470">
          <mxGeometry relative="1" as="geometry">
            <mxPoint x="533.75" y="1312.5882352941176" as="targetPoint" />
          </mxGeometry>
        </mxCell>
        <mxCell id="bC43uHXILsUVz6L1ORMm-470" value="break" style="rounded=0;whiteSpace=wrap;html=1;" vertex="1" parent="bC43uHXILsUVz6L1ORMm-366">
          <mxGeometry x="363.75" y="1283" width="120" height="60" as="geometry" />
        </mxCell>
        <mxCell id="bC43uHXILsUVz6L1ORMm-471" style="edgeStyle=orthogonalEdgeStyle;rounded=0;orthogonalLoop=1;jettySize=auto;html=1;exitX=1;exitY=0.5;exitDx=0;exitDy=0;" edge="1" parent="bC43uHXILsUVz6L1ORMm-366" source="bC43uHXILsUVz6L1ORMm-472">
          <mxGeometry relative="1" as="geometry">
            <mxPoint x="533.75" y="1416.1176470588234" as="targetPoint" />
          </mxGeometry>
        </mxCell>
        <mxCell id="bC43uHXILsUVz6L1ORMm-472" value="break" style="rounded=0;whiteSpace=wrap;html=1;" vertex="1" parent="bC43uHXILsUVz6L1ORMm-366">
          <mxGeometry x="363.75" y="1386" width="120" height="60" as="geometry" />
        </mxCell>
        <mxCell id="bC43uHXILsUVz6L1ORMm-473" style="edgeStyle=orthogonalEdgeStyle;rounded=0;orthogonalLoop=1;jettySize=auto;html=1;exitX=1;exitY=0.5;exitDx=0;exitDy=0;" edge="1" parent="bC43uHXILsUVz6L1ORMm-366" source="bC43uHXILsUVz6L1ORMm-474">
          <mxGeometry relative="1" as="geometry">
            <mxPoint x="533.75" y="1519.6470588235293" as="targetPoint" />
          </mxGeometry>
        </mxCell>
        <mxCell id="bC43uHXILsUVz6L1ORMm-474" value="break" style="rounded=0;whiteSpace=wrap;html=1;" vertex="1" parent="bC43uHXILsUVz6L1ORMm-366">
          <mxGeometry x="363.75" y="1490" width="120" height="60" as="geometry" />
        </mxCell>
        <mxCell id="bC43uHXILsUVz6L1ORMm-475" style="edgeStyle=orthogonalEdgeStyle;rounded=0;orthogonalLoop=1;jettySize=auto;html=1;exitX=0.5;exitY=1;exitDx=0;exitDy=0;entryX=0.5;entryY=0;entryDx=0;entryDy=0;" edge="1" parent="bC43uHXILsUVz6L1ORMm-366" source="bC43uHXILsUVz6L1ORMm-476" target="bC43uHXILsUVz6L1ORMm-419">
          <mxGeometry relative="1" as="geometry" />
        </mxCell>
        <mxCell id="bC43uHXILsUVz6L1ORMm-476" value="cout &amp;lt;&amp;lt; endl" style="rounded=0;whiteSpace=wrap;html=1;shape=parallelogram;perimeter=parallelogramPerimeter;fixedSize=1;" vertex="1" parent="bC43uHXILsUVz6L1ORMm-366">
          <mxGeometry x="351.75" y="1580" width="144" height="60" as="geometry" />
        </mxCell>
        <mxCell id="bC43uHXILsUVz6L1ORMm-477" style="edgeStyle=orthogonalEdgeStyle;rounded=0;orthogonalLoop=1;jettySize=auto;html=1;exitX=0.5;exitY=1;exitDx=0;exitDy=0;entryX=0.5;entryY=0;entryDx=0;entryDy=0;" edge="1" parent="bC43uHXILsUVz6L1ORMm-366" source="bC43uHXILsUVz6L1ORMm-478" target="bC43uHXILsUVz6L1ORMm-367">
          <mxGeometry relative="1" as="geometry" />
        </mxCell>
        <mxCell id="bC43uHXILsUVz6L1ORMm-478" value="switch (p.choice)" style="rounded=0;whiteSpace=wrap;html=1;" vertex="1" parent="bC43uHXILsUVz6L1ORMm-366">
          <mxGeometry x="18.75" y="160" width="120" height="60" as="geometry" />
        </mxCell>
        <mxCell id="bC43uHXILsUVz6L1ORMm-479" style="edgeStyle=orthogonalEdgeStyle;rounded=0;orthogonalLoop=1;jettySize=auto;html=1;exitX=1;exitY=0.5;exitDx=0;exitDy=0;entryX=0;entryY=0.5;entryDx=0;entryDy=0;" edge="1" parent="bC43uHXILsUVz6L1ORMm-366" source="bC43uHXILsUVz6L1ORMm-380" target="bC43uHXILsUVz6L1ORMm-456">
          <mxGeometry relative="1" as="geometry" />
        </mxCell>
        <mxCell id="bC43uHXILsUVz6L1ORMm-480" style="edgeStyle=orthogonalEdgeStyle;rounded=0;orthogonalLoop=1;jettySize=auto;html=1;exitX=1;exitY=0.5;exitDx=0;exitDy=0;entryX=0;entryY=0.5;entryDx=0;entryDy=0;" edge="1" parent="bC43uHXILsUVz6L1ORMm-366" source="bC43uHXILsUVz6L1ORMm-384" target="bC43uHXILsUVz6L1ORMm-458">
          <mxGeometry relative="1" as="geometry" />
        </mxCell>
        <mxCell id="bC43uHXILsUVz6L1ORMm-481" style="edgeStyle=orthogonalEdgeStyle;rounded=0;orthogonalLoop=1;jettySize=auto;html=1;exitX=1;exitY=0.5;exitDx=0;exitDy=0;entryX=0;entryY=0.5;entryDx=0;entryDy=0;" edge="1" parent="bC43uHXILsUVz6L1ORMm-366" source="bC43uHXILsUVz6L1ORMm-388" target="bC43uHXILsUVz6L1ORMm-460">
          <mxGeometry relative="1" as="geometry" />
        </mxCell>
        <mxCell id="bC43uHXILsUVz6L1ORMm-482" style="edgeStyle=orthogonalEdgeStyle;rounded=0;orthogonalLoop=1;jettySize=auto;html=1;exitX=1;exitY=0.5;exitDx=0;exitDy=0;entryX=0;entryY=0.5;entryDx=0;entryDy=0;" edge="1" parent="bC43uHXILsUVz6L1ORMm-366" source="bC43uHXILsUVz6L1ORMm-392" target="bC43uHXILsUVz6L1ORMm-462">
          <mxGeometry relative="1" as="geometry" />
        </mxCell>
        <mxCell id="bC43uHXILsUVz6L1ORMm-483" style="edgeStyle=orthogonalEdgeStyle;rounded=0;orthogonalLoop=1;jettySize=auto;html=1;exitX=1;exitY=0.5;exitDx=0;exitDy=0;entryX=0;entryY=0.5;entryDx=0;entryDy=0;" edge="1" parent="bC43uHXILsUVz6L1ORMm-366" source="bC43uHXILsUVz6L1ORMm-396" target="bC43uHXILsUVz6L1ORMm-464">
          <mxGeometry relative="1" as="geometry" />
        </mxCell>
        <mxCell id="bC43uHXILsUVz6L1ORMm-484" style="edgeStyle=orthogonalEdgeStyle;rounded=0;orthogonalLoop=1;jettySize=auto;html=1;exitX=1;exitY=0.5;exitDx=0;exitDy=0;entryX=0;entryY=0.5;entryDx=0;entryDy=0;" edge="1" parent="bC43uHXILsUVz6L1ORMm-366" source="bC43uHXILsUVz6L1ORMm-400" target="bC43uHXILsUVz6L1ORMm-466">
          <mxGeometry relative="1" as="geometry" />
        </mxCell>
        <mxCell id="bC43uHXILsUVz6L1ORMm-485" style="edgeStyle=orthogonalEdgeStyle;rounded=0;orthogonalLoop=1;jettySize=auto;html=1;exitX=1;exitY=0.5;exitDx=0;exitDy=0;entryX=0;entryY=0.5;entryDx=0;entryDy=0;" edge="1" parent="bC43uHXILsUVz6L1ORMm-366" source="bC43uHXILsUVz6L1ORMm-404" target="bC43uHXILsUVz6L1ORMm-468">
          <mxGeometry relative="1" as="geometry" />
        </mxCell>
        <mxCell id="bC43uHXILsUVz6L1ORMm-486" style="edgeStyle=orthogonalEdgeStyle;rounded=0;orthogonalLoop=1;jettySize=auto;html=1;exitX=1;exitY=0.5;exitDx=0;exitDy=0;entryX=0;entryY=0.5;entryDx=0;entryDy=0;" edge="1" parent="bC43uHXILsUVz6L1ORMm-366" source="bC43uHXILsUVz6L1ORMm-408" target="bC43uHXILsUVz6L1ORMm-470">
          <mxGeometry relative="1" as="geometry" />
        </mxCell>
        <mxCell id="bC43uHXILsUVz6L1ORMm-487" style="edgeStyle=orthogonalEdgeStyle;rounded=0;orthogonalLoop=1;jettySize=auto;html=1;exitX=1;exitY=0.5;exitDx=0;exitDy=0;entryX=0;entryY=0.5;entryDx=0;entryDy=0;" edge="1" parent="bC43uHXILsUVz6L1ORMm-366" source="bC43uHXILsUVz6L1ORMm-412" target="bC43uHXILsUVz6L1ORMm-472">
          <mxGeometry relative="1" as="geometry" />
        </mxCell>
        <mxCell id="bC43uHXILsUVz6L1ORMm-488" style="edgeStyle=orthogonalEdgeStyle;rounded=0;orthogonalLoop=1;jettySize=auto;html=1;exitX=1;exitY=0.5;exitDx=0;exitDy=0;entryX=0;entryY=0.5;entryDx=0;entryDy=0;" edge="1" parent="bC43uHXILsUVz6L1ORMm-366" source="bC43uHXILsUVz6L1ORMm-416" target="bC43uHXILsUVz6L1ORMm-474">
          <mxGeometry relative="1" as="geometry" />
        </mxCell>
        <mxCell id="bC43uHXILsUVz6L1ORMm-489" style="edgeStyle=orthogonalEdgeStyle;rounded=0;orthogonalLoop=1;jettySize=auto;html=1;exitX=1;exitY=0.5;exitDx=0;exitDy=0;entryX=1;entryY=0.5;entryDx=0;entryDy=0;" edge="1" parent="bC43uHXILsUVz6L1ORMm-366" source="bC43uHXILsUVz6L1ORMm-447" target="bC43uHXILsUVz6L1ORMm-476">
          <mxGeometry relative="1" as="geometry">
            <Array as="points">
              <mxPoint x="533.75" y="280" />
              <mxPoint x="533.75" y="1610" />
            </Array>
          </mxGeometry>
        </mxCell>
        <mxCell id="bC43uHXILsUVz6L1ORMm-490" style="edgeStyle=orthogonalEdgeStyle;rounded=0;orthogonalLoop=1;jettySize=auto;html=1;exitX=0.5;exitY=1;exitDx=0;exitDy=0;entryX=0.5;entryY=0;entryDx=0;entryDy=0;" edge="1" parent="bC43uHXILsUVz6L1ORMm-366" source="bC43uHXILsUVz6L1ORMm-445" target="bC43uHXILsUVz6L1ORMm-478">
          <mxGeometry relative="1" as="geometry" />
        </mxCell>
      </root>
    </mxGraphModel>
  </diagram>
</mxfile>
